G04 #@! TF.GenerationSoftware,KiCad,Pcbnew,(5.0.0)*
G04 #@! TF.CreationDate,2020-01-05T19:48:47-05:00*
G04 #@! TF.ProjectId,Lathe RPM Display,4C617468652052504D20446973706C61,A*
G04 #@! TF.SameCoordinates,Original*
G04 #@! TF.FileFunction,Copper,L1,Top,Signal*
G04 #@! TF.FilePolarity,Positive*
%FSLAX46Y46*%
G04 Gerber Fmt 4.6, Leading zero omitted, Abs format (unit mm)*
G04 Created by KiCad (PCBNEW (5.0.0)) date 01/05/20 19:48:47*
%MOMM*%
%LPD*%
G01*
G04 APERTURE LIST*
G04 #@! TA.AperFunction,ComponentPad*
%ADD10R,1.524000X2.524000*%
G04 #@! TD*
G04 #@! TA.AperFunction,ComponentPad*
%ADD11O,1.524000X2.524000*%
G04 #@! TD*
G04 #@! TA.AperFunction,ComponentPad*
%ADD12C,6.400000*%
G04 #@! TD*
G04 #@! TA.AperFunction,ComponentPad*
%ADD13R,1.050000X1.500000*%
G04 #@! TD*
G04 #@! TA.AperFunction,ComponentPad*
%ADD14O,1.050000X1.500000*%
G04 #@! TD*
G04 #@! TA.AperFunction,ComponentPad*
%ADD15R,1.600000X1.600000*%
G04 #@! TD*
G04 #@! TA.AperFunction,ComponentPad*
%ADD16O,1.600000X1.600000*%
G04 #@! TD*
G04 #@! TA.AperFunction,ComponentPad*
%ADD17O,1.500000X1.000000*%
G04 #@! TD*
G04 #@! TA.AperFunction,ComponentPad*
%ADD18R,1.500000X1.000000*%
G04 #@! TD*
G04 #@! TA.AperFunction,ComponentPad*
%ADD19R,1.700000X1.700000*%
G04 #@! TD*
G04 #@! TA.AperFunction,ComponentPad*
%ADD20O,1.700000X1.700000*%
G04 #@! TD*
G04 #@! TA.AperFunction,ViaPad*
%ADD21C,0.762000*%
G04 #@! TD*
G04 #@! TA.AperFunction,Conductor*
%ADD22C,0.635000*%
G04 #@! TD*
G04 #@! TA.AperFunction,Conductor*
%ADD23C,0.127000*%
G04 #@! TD*
G04 APERTURE END LIST*
D10*
G04 #@! TO.P,U3,1*
G04 #@! TO.N,Net-(R5-Pad1)*
X66040000Y-45720000D03*
D11*
G04 #@! TO.P,U3,2*
G04 #@! TO.N,Net-(R4-Pad1)*
X68580000Y-45720000D03*
G04 #@! TO.P,U3,3*
G04 #@! TO.N,Net-(Q4-Pad3)*
X71120000Y-45720000D03*
G04 #@! TO.P,U3,4*
G04 #@! TO.N,Net-(R3-Pad1)*
X73660000Y-45720000D03*
G04 #@! TO.P,U3,5*
G04 #@! TO.N,Net-(R8-Pad1)*
X76200000Y-45720000D03*
G04 #@! TO.P,U3,6*
G04 #@! TO.N,Net-(R2-Pad1)*
X76200000Y-30480000D03*
G04 #@! TO.P,U3,7*
G04 #@! TO.N,Net-(R1-Pad1)*
X73660000Y-30480000D03*
G04 #@! TO.P,U3,8*
G04 #@! TO.N,Net-(Q4-Pad3)*
X71120000Y-30480000D03*
G04 #@! TO.P,U3,9*
G04 #@! TO.N,Net-(R6-Pad1)*
X68580000Y-30480000D03*
G04 #@! TO.P,U3,10*
G04 #@! TO.N,Net-(R7-Pad1)*
X66040000Y-30480000D03*
G04 #@! TD*
G04 #@! TO.P,U2,10*
G04 #@! TO.N,Net-(R7-Pad1)*
X52070000Y-30480000D03*
G04 #@! TO.P,U2,9*
G04 #@! TO.N,Net-(R6-Pad1)*
X54610000Y-30480000D03*
G04 #@! TO.P,U2,8*
G04 #@! TO.N,Net-(Q3-Pad3)*
X57150000Y-30480000D03*
G04 #@! TO.P,U2,7*
G04 #@! TO.N,Net-(R1-Pad1)*
X59690000Y-30480000D03*
G04 #@! TO.P,U2,6*
G04 #@! TO.N,Net-(R2-Pad1)*
X62230000Y-30480000D03*
G04 #@! TO.P,U2,5*
G04 #@! TO.N,Net-(R8-Pad1)*
X62230000Y-45720000D03*
G04 #@! TO.P,U2,4*
G04 #@! TO.N,Net-(R3-Pad1)*
X59690000Y-45720000D03*
G04 #@! TO.P,U2,3*
G04 #@! TO.N,Net-(Q3-Pad3)*
X57150000Y-45720000D03*
G04 #@! TO.P,U2,2*
G04 #@! TO.N,Net-(R4-Pad1)*
X54610000Y-45720000D03*
D10*
G04 #@! TO.P,U2,1*
G04 #@! TO.N,Net-(R5-Pad1)*
X52070000Y-45720000D03*
G04 #@! TD*
D12*
G04 #@! TO.P,REF\002A\002A,1*
G04 #@! TO.N,N/C*
X96520000Y-30480000D03*
G04 #@! TD*
G04 #@! TO.P,REF\002A\002A,1*
G04 #@! TO.N,N/C*
X96520000Y-71120000D03*
G04 #@! TD*
G04 #@! TO.P,REF\002A\002A,1*
G04 #@! TO.N,N/C*
X30480000Y-71120000D03*
G04 #@! TD*
G04 #@! TO.P,REF\002A\002A,1*
G04 #@! TO.N,N/C*
X30480000Y-30480000D03*
G04 #@! TD*
D13*
G04 #@! TO.P,Q2,1*
G04 #@! TO.N,GND*
X40640000Y-51308000D03*
D14*
G04 #@! TO.P,Q2,3*
G04 #@! TO.N,Net-(Q2-Pad3)*
X43180000Y-51308000D03*
G04 #@! TO.P,Q2,2*
G04 #@! TO.N,Net-(A1-Pad8)*
X41910000Y-51308000D03*
G04 #@! TD*
D15*
G04 #@! TO.P,A1,1*
G04 #@! TO.N,N/C*
X49530000Y-71120000D03*
D16*
G04 #@! TO.P,A1,17*
X82550000Y-55880000D03*
G04 #@! TO.P,A1,2*
X52070000Y-71120000D03*
G04 #@! TO.P,A1,18*
X80010000Y-55880000D03*
G04 #@! TO.P,A1,3*
X54610000Y-71120000D03*
G04 #@! TO.P,A1,19*
G04 #@! TO.N,/A*
X77470000Y-55880000D03*
G04 #@! TO.P,A1,4*
G04 #@! TO.N,GND*
X57150000Y-71120000D03*
G04 #@! TO.P,A1,20*
G04 #@! TO.N,/B*
X74930000Y-55880000D03*
G04 #@! TO.P,A1,5*
G04 #@! TO.N,Net-(A1-Pad5)*
X59690000Y-71120000D03*
G04 #@! TO.P,A1,21*
G04 #@! TO.N,/C*
X72390000Y-55880000D03*
G04 #@! TO.P,A1,6*
G04 #@! TO.N,N/C*
X62230000Y-71120000D03*
G04 #@! TO.P,A1,22*
G04 #@! TO.N,/D*
X69850000Y-55880000D03*
G04 #@! TO.P,A1,7*
G04 #@! TO.N,Net-(A1-Pad7)*
X64770000Y-71120000D03*
G04 #@! TO.P,A1,23*
G04 #@! TO.N,/E*
X67310000Y-55880000D03*
G04 #@! TO.P,A1,8*
G04 #@! TO.N,Net-(A1-Pad8)*
X67310000Y-71120000D03*
G04 #@! TO.P,A1,24*
G04 #@! TO.N,/F*
X64770000Y-55880000D03*
G04 #@! TO.P,A1,9*
G04 #@! TO.N,Net-(A1-Pad9)*
X69850000Y-71120000D03*
G04 #@! TO.P,A1,25*
G04 #@! TO.N,N/C*
X62230000Y-55880000D03*
G04 #@! TO.P,A1,10*
G04 #@! TO.N,Net-(A1-Pad10)*
X72390000Y-71120000D03*
G04 #@! TO.P,A1,26*
G04 #@! TO.N,N/C*
X59690000Y-55880000D03*
G04 #@! TO.P,A1,11*
X74930000Y-71120000D03*
G04 #@! TO.P,A1,27*
X57150000Y-55880000D03*
G04 #@! TO.P,A1,12*
X77470000Y-71120000D03*
G04 #@! TO.P,A1,28*
X54610000Y-55880000D03*
G04 #@! TO.P,A1,13*
X80010000Y-71120000D03*
G04 #@! TO.P,A1,29*
G04 #@! TO.N,GND*
X52070000Y-55880000D03*
G04 #@! TO.P,A1,14*
G04 #@! TO.N,N/C*
X82550000Y-71120000D03*
G04 #@! TO.P,A1,30*
G04 #@! TO.N,+5V*
X49530000Y-55880000D03*
G04 #@! TO.P,A1,15*
G04 #@! TO.N,/DP*
X85090000Y-71120000D03*
G04 #@! TO.P,A1,16*
G04 #@! TO.N,/G*
X85090000Y-55880000D03*
G04 #@! TD*
D17*
G04 #@! TO.P,Q1,2*
G04 #@! TO.N,GND*
X29210000Y-60325000D03*
G04 #@! TO.P,Q1,3*
G04 #@! TO.N,Net-(A1-Pad5)*
X29210000Y-61595000D03*
D18*
G04 #@! TO.P,Q1,1*
G04 #@! TO.N,+5V*
X29210000Y-59055000D03*
G04 #@! TD*
D14*
G04 #@! TO.P,Q3,2*
G04 #@! TO.N,Net-(A1-Pad7)*
X55880000Y-51308000D03*
G04 #@! TO.P,Q3,3*
G04 #@! TO.N,Net-(Q3-Pad3)*
X57150000Y-51308000D03*
D13*
G04 #@! TO.P,Q3,1*
G04 #@! TO.N,GND*
X54610000Y-51308000D03*
G04 #@! TD*
G04 #@! TO.P,Q4,1*
G04 #@! TO.N,GND*
X68580000Y-51308000D03*
D14*
G04 #@! TO.P,Q4,3*
G04 #@! TO.N,Net-(Q4-Pad3)*
X71120000Y-51308000D03*
G04 #@! TO.P,Q4,2*
G04 #@! TO.N,Net-(A1-Pad10)*
X69850000Y-51308000D03*
G04 #@! TD*
G04 #@! TO.P,Q5,2*
G04 #@! TO.N,Net-(A1-Pad9)*
X83820000Y-51308000D03*
G04 #@! TO.P,Q5,3*
G04 #@! TO.N,Net-(Q5-Pad3)*
X85090000Y-51308000D03*
D13*
G04 #@! TO.P,Q5,1*
G04 #@! TO.N,GND*
X82550000Y-51308000D03*
G04 #@! TD*
D10*
G04 #@! TO.P,U1,1*
G04 #@! TO.N,Net-(R5-Pad1)*
X38100000Y-45720000D03*
D11*
G04 #@! TO.P,U1,2*
G04 #@! TO.N,Net-(R4-Pad1)*
X40640000Y-45720000D03*
G04 #@! TO.P,U1,3*
G04 #@! TO.N,Net-(Q2-Pad3)*
X43180000Y-45720000D03*
G04 #@! TO.P,U1,4*
G04 #@! TO.N,Net-(R3-Pad1)*
X45720000Y-45720000D03*
G04 #@! TO.P,U1,5*
G04 #@! TO.N,Net-(R8-Pad1)*
X48260000Y-45720000D03*
G04 #@! TO.P,U1,6*
G04 #@! TO.N,Net-(R2-Pad1)*
X48260000Y-30480000D03*
G04 #@! TO.P,U1,7*
G04 #@! TO.N,Net-(R1-Pad1)*
X45720000Y-30480000D03*
G04 #@! TO.P,U1,8*
G04 #@! TO.N,Net-(Q2-Pad3)*
X43180000Y-30480000D03*
G04 #@! TO.P,U1,9*
G04 #@! TO.N,Net-(R6-Pad1)*
X40640000Y-30480000D03*
G04 #@! TO.P,U1,10*
G04 #@! TO.N,Net-(R7-Pad1)*
X38100000Y-30480000D03*
G04 #@! TD*
G04 #@! TO.P,U4,10*
G04 #@! TO.N,Net-(R7-Pad1)*
X80010000Y-30480000D03*
G04 #@! TO.P,U4,9*
G04 #@! TO.N,Net-(R6-Pad1)*
X82550000Y-30480000D03*
G04 #@! TO.P,U4,8*
G04 #@! TO.N,Net-(Q5-Pad3)*
X85090000Y-30480000D03*
G04 #@! TO.P,U4,7*
G04 #@! TO.N,Net-(R1-Pad1)*
X87630000Y-30480000D03*
G04 #@! TO.P,U4,6*
G04 #@! TO.N,Net-(R2-Pad1)*
X90170000Y-30480000D03*
G04 #@! TO.P,U4,5*
G04 #@! TO.N,Net-(R8-Pad1)*
X90170000Y-45720000D03*
G04 #@! TO.P,U4,4*
G04 #@! TO.N,Net-(R3-Pad1)*
X87630000Y-45720000D03*
G04 #@! TO.P,U4,3*
G04 #@! TO.N,Net-(Q5-Pad3)*
X85090000Y-45720000D03*
G04 #@! TO.P,U4,2*
G04 #@! TO.N,Net-(R4-Pad1)*
X82550000Y-45720000D03*
D10*
G04 #@! TO.P,U4,1*
G04 #@! TO.N,Net-(R5-Pad1)*
X80010000Y-45720000D03*
G04 #@! TD*
D19*
G04 #@! TO.P,J1,1*
G04 #@! TO.N,GND*
X29210000Y-50800000D03*
D20*
G04 #@! TO.P,J1,2*
G04 #@! TO.N,+5V*
X29210000Y-53340000D03*
G04 #@! TD*
D21*
G04 #@! TO.N,Net-(A1-Pad5)*
X49530000Y-66040000D03*
X59690000Y-66040000D03*
X29210000Y-66040000D03*
G04 #@! TO.N,Net-(A1-Pad7)*
X40005000Y-73025000D03*
X64770000Y-73025000D03*
X55880000Y-53340000D03*
X40005000Y-53340000D03*
G04 #@! TO.N,Net-(A1-Pad8)*
X38735000Y-74295000D03*
X67310000Y-74295000D03*
X41910000Y-49530000D03*
X38735000Y-49530000D03*
G04 #@! TO.N,Net-(A1-Pad9)*
X91440000Y-74295000D03*
X69850000Y-74295000D03*
X83820000Y-52705000D03*
X91440000Y-52705000D03*
G04 #@! TO.N,Net-(A1-Pad10)*
X90170000Y-53975000D03*
X90170026Y-73025000D03*
X72390046Y-73025000D03*
X69850000Y-53975000D03*
G04 #@! TO.N,/DP*
X87630000Y-71120000D03*
G04 #@! TO.N,+5V*
X29210000Y-55880000D03*
G04 #@! TO.N,Net-(R1-Pad1)*
X77469990Y-65405000D03*
X95250000Y-65405000D03*
X45720000Y-34925000D03*
X87630000Y-34925000D03*
X95250000Y-34925000D03*
X59690000Y-34925000D03*
X73660000Y-34925000D03*
G04 #@! TO.N,Net-(R2-Pad1)*
X74930000Y-66675000D03*
X93980000Y-66675000D03*
X90170000Y-33655000D03*
X93980000Y-33655000D03*
X48260000Y-33655000D03*
X62230000Y-33655000D03*
X76200000Y-33655000D03*
G04 #@! TO.N,Net-(R3-Pad1)*
X92710000Y-67945000D03*
X92710000Y-49530000D03*
X72390000Y-67945000D03*
X87630000Y-49530000D03*
X45720000Y-41275000D03*
X59690000Y-41275000D03*
X73660000Y-41275000D03*
X87630000Y-41275000D03*
G04 #@! TO.N,Net-(R4-Pad1)*
X69850000Y-64770000D03*
X57150000Y-64770000D03*
X57150000Y-57785000D03*
X40640000Y-40005000D03*
X54610000Y-40005000D03*
X68580000Y-40005000D03*
X82550000Y-40005000D03*
X35560000Y-57785000D03*
X35560000Y-40005000D03*
G04 #@! TO.N,Net-(R5-Pad1)*
X58420000Y-59055000D03*
X67310000Y-63500012D03*
X58420000Y-63500000D03*
X38100000Y-38735000D03*
X52070000Y-38735000D03*
X66040000Y-38735000D03*
X80010000Y-38735000D03*
X34290000Y-59055000D03*
X34290000Y-38735000D03*
G04 #@! TO.N,Net-(R6-Pad1)*
X64770000Y-62230000D03*
X33020000Y-60325000D03*
X40640000Y-36195000D03*
X54610000Y-36195000D03*
X68580000Y-36195000D03*
X82550000Y-36195000D03*
X33020000Y-36195000D03*
G04 #@! TO.N,Net-(R7-Pad1)*
X38100000Y-37465000D03*
X52070000Y-37465000D03*
X85090000Y-64135000D03*
X96520000Y-64135000D03*
X96520000Y-37465000D03*
X66040000Y-37465000D03*
X80010000Y-37465000D03*
G04 #@! TO.N,Net-(R8-Pad1)*
X48260000Y-42545000D03*
X62230000Y-42545000D03*
X76200000Y-42545000D03*
X90170000Y-42545000D03*
X87630000Y-51435000D03*
X90170000Y-51435000D03*
G04 #@! TD*
D22*
G04 #@! TO.N,Net-(A1-Pad5)*
X49530000Y-66040000D02*
X59690000Y-66040000D01*
X41910000Y-66040000D02*
X49530000Y-66040000D01*
X41910000Y-66040000D02*
X29210000Y-66040000D01*
G04 #@! TO.N,Net-(A1-Pad7)*
X40005000Y-73025000D02*
X64770000Y-73025000D01*
X55880000Y-53340000D02*
X40005000Y-53340000D01*
G04 #@! TO.N,Net-(A1-Pad8)*
X67310000Y-74295000D02*
X38735000Y-74295000D01*
X38735000Y-49530000D02*
X41910000Y-49530000D01*
G04 #@! TO.N,Net-(A1-Pad9)*
X69850000Y-74295000D02*
X91440000Y-74295000D01*
X83820000Y-52705000D02*
X91440000Y-52705000D01*
G04 #@! TO.N,Net-(A1-Pad10)*
X69850000Y-53975000D02*
X90170000Y-53975000D01*
X90170026Y-73025000D02*
X72390046Y-73025000D01*
G04 #@! TO.N,/DP*
X85090000Y-71120000D02*
X87630000Y-71120000D01*
G04 #@! TO.N,+5V*
X49530000Y-55880000D02*
X29210000Y-55880000D01*
G04 #@! TO.N,Net-(R1-Pad1)*
X95250000Y-65405000D02*
X77469990Y-65405000D01*
X87630000Y-34925000D02*
X95250000Y-34925000D01*
X45720000Y-34925000D02*
X59690000Y-34925000D01*
X59690000Y-34925000D02*
X73660000Y-34925000D01*
X73660000Y-34925000D02*
X87630000Y-34925000D01*
G04 #@! TO.N,Net-(R2-Pad1)*
X93980000Y-66675000D02*
X74930000Y-66675000D01*
X90170000Y-33655000D02*
X93980000Y-33655000D01*
X48260000Y-33655000D02*
X62230000Y-33655000D01*
X62230000Y-33655000D02*
X76200000Y-33655000D01*
X76200000Y-33655000D02*
X90170000Y-33655000D01*
G04 #@! TO.N,Net-(R3-Pad1)*
X92710000Y-67945000D02*
X72390000Y-67945000D01*
X92710000Y-49530000D02*
X87630000Y-49530000D01*
X45720000Y-41275000D02*
X59690000Y-41275000D01*
X59690000Y-41275000D02*
X73660000Y-41275000D01*
X73660000Y-41275000D02*
X87630000Y-41275000D01*
G04 #@! TO.N,Net-(R4-Pad1)*
X69850000Y-64770000D02*
X57150000Y-64770000D01*
X40640000Y-40005000D02*
X54610000Y-40005000D01*
X54610000Y-40005000D02*
X68580000Y-40005000D01*
X68580000Y-40005000D02*
X82550000Y-40005000D01*
X57150000Y-57785000D02*
X35560000Y-57785000D01*
X35560000Y-40005000D02*
X40640000Y-40005000D01*
G04 #@! TO.N,Net-(R5-Pad1)*
X67309988Y-63500000D02*
X58420000Y-63500000D01*
X67310000Y-63500012D02*
X67309988Y-63500000D01*
X38100000Y-38735000D02*
X52070000Y-38735000D01*
X52070000Y-38735000D02*
X66040000Y-38735000D01*
X66040000Y-38735000D02*
X80010000Y-38735000D01*
X58420000Y-59055000D02*
X34290000Y-59055000D01*
X34290000Y-38735000D02*
X38100000Y-38735000D01*
G04 #@! TO.N,Net-(R6-Pad1)*
X40640000Y-36195000D02*
X54610000Y-36195000D01*
X68580000Y-36195000D02*
X54610000Y-36195000D01*
X82550000Y-36195000D02*
X68580000Y-36195000D01*
X40640000Y-36195000D02*
X33020000Y-36195000D01*
X60325000Y-60325000D02*
X33020000Y-60325000D01*
X64770000Y-62230000D02*
X62230000Y-62230000D01*
X62230000Y-62230000D02*
X60325000Y-60325000D01*
G04 #@! TO.N,Net-(R7-Pad1)*
X38100000Y-37465000D02*
X52070000Y-37465000D01*
X85090000Y-64135000D02*
X96520000Y-64135000D01*
X96520000Y-37465000D02*
X90805000Y-37465000D01*
X90805000Y-37465000D02*
X92710000Y-37465000D01*
X52070000Y-37465000D02*
X66040000Y-37465000D01*
X66040000Y-37465000D02*
X80010000Y-37465000D01*
X80010000Y-37465000D02*
X90805000Y-37465000D01*
G04 #@! TO.N,Net-(R8-Pad1)*
X48260000Y-42545000D02*
X62230000Y-42545000D01*
X62230000Y-42545000D02*
X76200000Y-42545000D01*
X76200000Y-42545000D02*
X90170000Y-42545000D01*
X87630000Y-51435000D02*
X87630000Y-51435000D01*
X87630000Y-51435000D02*
X90170000Y-51435000D01*
G04 #@! TD*
D23*
G04 #@! TO.N,GND*
G36*
X97345361Y-25892820D02*
X98144640Y-26111478D01*
X98892561Y-26468219D01*
X99565490Y-26951767D01*
X100142152Y-27546836D01*
X100604326Y-28234622D01*
X100937397Y-28993378D01*
X101131611Y-29802343D01*
X101182500Y-30495312D01*
X101182501Y-71101396D01*
X101107179Y-71945362D01*
X100888522Y-72744640D01*
X100531781Y-73492561D01*
X100048235Y-74165487D01*
X99453164Y-74742152D01*
X98765376Y-75204327D01*
X98006617Y-75537399D01*
X97197658Y-75731611D01*
X96504688Y-75782500D01*
X30498592Y-75782500D01*
X29654638Y-75707179D01*
X28855360Y-75488522D01*
X28107439Y-75131781D01*
X27434513Y-74648235D01*
X26857848Y-74053164D01*
X26395673Y-73365376D01*
X26062601Y-72606617D01*
X25868389Y-71797658D01*
X25817500Y-71104688D01*
X25817500Y-70420326D01*
X26962500Y-70420326D01*
X26962500Y-71819674D01*
X27498007Y-73112504D01*
X28487496Y-74101993D01*
X29780326Y-74637500D01*
X31179674Y-74637500D01*
X32341974Y-74156060D01*
X38036500Y-74156060D01*
X38036500Y-74433940D01*
X38142841Y-74690668D01*
X38339332Y-74887159D01*
X38596060Y-74993500D01*
X38873940Y-74993500D01*
X39027241Y-74930000D01*
X67017759Y-74930000D01*
X67171060Y-74993500D01*
X67448940Y-74993500D01*
X67705668Y-74887159D01*
X67902159Y-74690668D01*
X68008500Y-74433940D01*
X68008500Y-74156060D01*
X69151500Y-74156060D01*
X69151500Y-74433940D01*
X69257841Y-74690668D01*
X69454332Y-74887159D01*
X69711060Y-74993500D01*
X69988940Y-74993500D01*
X70142241Y-74930000D01*
X91147759Y-74930000D01*
X91301060Y-74993500D01*
X91578940Y-74993500D01*
X91835668Y-74887159D01*
X92032159Y-74690668D01*
X92138500Y-74433940D01*
X92138500Y-74156060D01*
X92032159Y-73899332D01*
X91835668Y-73702841D01*
X91578940Y-73596500D01*
X91301060Y-73596500D01*
X91147759Y-73660000D01*
X90462267Y-73660000D01*
X90565694Y-73617159D01*
X90762185Y-73420668D01*
X90868526Y-73163940D01*
X90868526Y-72886060D01*
X90762185Y-72629332D01*
X90565694Y-72432841D01*
X90308966Y-72326500D01*
X90031086Y-72326500D01*
X89877785Y-72390000D01*
X72682287Y-72390000D01*
X72528986Y-72326500D01*
X72251106Y-72326500D01*
X71994378Y-72432841D01*
X71797887Y-72629332D01*
X71691546Y-72886060D01*
X71691546Y-73163940D01*
X71797887Y-73420668D01*
X71994378Y-73617159D01*
X72097805Y-73660000D01*
X70142241Y-73660000D01*
X69988940Y-73596500D01*
X69711060Y-73596500D01*
X69454332Y-73702841D01*
X69257841Y-73899332D01*
X69151500Y-74156060D01*
X68008500Y-74156060D01*
X67902159Y-73899332D01*
X67705668Y-73702841D01*
X67448940Y-73596500D01*
X67171060Y-73596500D01*
X67017759Y-73660000D01*
X65062241Y-73660000D01*
X65165668Y-73617159D01*
X65362159Y-73420668D01*
X65468500Y-73163940D01*
X65468500Y-72886060D01*
X65362159Y-72629332D01*
X65165668Y-72432841D01*
X64908940Y-72326500D01*
X64631060Y-72326500D01*
X64477759Y-72390000D01*
X57651272Y-72390000D01*
X57794225Y-72330797D01*
X58208538Y-71992096D01*
X58461698Y-71520627D01*
X58365346Y-71310500D01*
X57340500Y-71310500D01*
X57340500Y-71330500D01*
X56959500Y-71330500D01*
X56959500Y-71310500D01*
X55934654Y-71310500D01*
X55838302Y-71520627D01*
X56091462Y-71992096D01*
X56505775Y-72330797D01*
X56648728Y-72390000D01*
X40297241Y-72390000D01*
X40143940Y-72326500D01*
X39866060Y-72326500D01*
X39609332Y-72432841D01*
X39412841Y-72629332D01*
X39306500Y-72886060D01*
X39306500Y-73163940D01*
X39412841Y-73420668D01*
X39609332Y-73617159D01*
X39712759Y-73660000D01*
X39027241Y-73660000D01*
X38873940Y-73596500D01*
X38596060Y-73596500D01*
X38339332Y-73702841D01*
X38142841Y-73899332D01*
X38036500Y-74156060D01*
X32341974Y-74156060D01*
X32472504Y-74101993D01*
X33461993Y-73112504D01*
X33997500Y-71819674D01*
X33997500Y-70420326D01*
X33955944Y-70320000D01*
X48406280Y-70320000D01*
X48406280Y-71920000D01*
X48430922Y-72043882D01*
X48501095Y-72148905D01*
X48606118Y-72219078D01*
X48730000Y-72243720D01*
X50330000Y-72243720D01*
X50453882Y-72219078D01*
X50558905Y-72148905D01*
X50629078Y-72043882D01*
X50653720Y-71920000D01*
X50653720Y-71120000D01*
X50930607Y-71120000D01*
X51017338Y-71556027D01*
X51264327Y-71925673D01*
X51633973Y-72172662D01*
X51959936Y-72237500D01*
X52180064Y-72237500D01*
X52506027Y-72172662D01*
X52875673Y-71925673D01*
X53122662Y-71556027D01*
X53209393Y-71120000D01*
X53470607Y-71120000D01*
X53557338Y-71556027D01*
X53804327Y-71925673D01*
X54173973Y-72172662D01*
X54499936Y-72237500D01*
X54720064Y-72237500D01*
X55046027Y-72172662D01*
X55415673Y-71925673D01*
X55662662Y-71556027D01*
X55749393Y-71120000D01*
X58550607Y-71120000D01*
X58637338Y-71556027D01*
X58884327Y-71925673D01*
X59253973Y-72172662D01*
X59579936Y-72237500D01*
X59800064Y-72237500D01*
X60126027Y-72172662D01*
X60495673Y-71925673D01*
X60742662Y-71556027D01*
X60829393Y-71120000D01*
X61090607Y-71120000D01*
X61177338Y-71556027D01*
X61424327Y-71925673D01*
X61793973Y-72172662D01*
X62119936Y-72237500D01*
X62340064Y-72237500D01*
X62666027Y-72172662D01*
X63035673Y-71925673D01*
X63282662Y-71556027D01*
X63369393Y-71120000D01*
X63630607Y-71120000D01*
X63717338Y-71556027D01*
X63964327Y-71925673D01*
X64333973Y-72172662D01*
X64659936Y-72237500D01*
X64880064Y-72237500D01*
X65206027Y-72172662D01*
X65575673Y-71925673D01*
X65822662Y-71556027D01*
X65909393Y-71120000D01*
X66170607Y-71120000D01*
X66257338Y-71556027D01*
X66504327Y-71925673D01*
X66873973Y-72172662D01*
X67199936Y-72237500D01*
X67420064Y-72237500D01*
X67746027Y-72172662D01*
X68115673Y-71925673D01*
X68362662Y-71556027D01*
X68449393Y-71120000D01*
X68710607Y-71120000D01*
X68797338Y-71556027D01*
X69044327Y-71925673D01*
X69413973Y-72172662D01*
X69739936Y-72237500D01*
X69960064Y-72237500D01*
X70286027Y-72172662D01*
X70655673Y-71925673D01*
X70902662Y-71556027D01*
X70989393Y-71120000D01*
X71250607Y-71120000D01*
X71337338Y-71556027D01*
X71584327Y-71925673D01*
X71953973Y-72172662D01*
X72279936Y-72237500D01*
X72500064Y-72237500D01*
X72826027Y-72172662D01*
X73195673Y-71925673D01*
X73442662Y-71556027D01*
X73529393Y-71120000D01*
X73790607Y-71120000D01*
X73877338Y-71556027D01*
X74124327Y-71925673D01*
X74493973Y-72172662D01*
X74819936Y-72237500D01*
X75040064Y-72237500D01*
X75366027Y-72172662D01*
X75735673Y-71925673D01*
X75982662Y-71556027D01*
X76069393Y-71120000D01*
X76330607Y-71120000D01*
X76417338Y-71556027D01*
X76664327Y-71925673D01*
X77033973Y-72172662D01*
X77359936Y-72237500D01*
X77580064Y-72237500D01*
X77906027Y-72172662D01*
X78275673Y-71925673D01*
X78522662Y-71556027D01*
X78609393Y-71120000D01*
X78870607Y-71120000D01*
X78957338Y-71556027D01*
X79204327Y-71925673D01*
X79573973Y-72172662D01*
X79899936Y-72237500D01*
X80120064Y-72237500D01*
X80446027Y-72172662D01*
X80815673Y-71925673D01*
X81062662Y-71556027D01*
X81149393Y-71120000D01*
X81410607Y-71120000D01*
X81497338Y-71556027D01*
X81744327Y-71925673D01*
X82113973Y-72172662D01*
X82439936Y-72237500D01*
X82660064Y-72237500D01*
X82986027Y-72172662D01*
X83355673Y-71925673D01*
X83602662Y-71556027D01*
X83689393Y-71120000D01*
X83950607Y-71120000D01*
X84037338Y-71556027D01*
X84284327Y-71925673D01*
X84653973Y-72172662D01*
X84979936Y-72237500D01*
X85200064Y-72237500D01*
X85526027Y-72172662D01*
X85895673Y-71925673D01*
X86009713Y-71755000D01*
X87337759Y-71755000D01*
X87491060Y-71818500D01*
X87768940Y-71818500D01*
X88025668Y-71712159D01*
X88222159Y-71515668D01*
X88328500Y-71258940D01*
X88328500Y-70981060D01*
X88222159Y-70724332D01*
X88025668Y-70527841D01*
X87768940Y-70421500D01*
X87491060Y-70421500D01*
X87337759Y-70485000D01*
X86009713Y-70485000D01*
X85966500Y-70420326D01*
X93002500Y-70420326D01*
X93002500Y-71819674D01*
X93538007Y-73112504D01*
X94527496Y-74101993D01*
X95820326Y-74637500D01*
X97219674Y-74637500D01*
X98512504Y-74101993D01*
X99501993Y-73112504D01*
X100037500Y-71819674D01*
X100037500Y-70420326D01*
X99501993Y-69127496D01*
X98512504Y-68138007D01*
X97219674Y-67602500D01*
X95820326Y-67602500D01*
X94527496Y-68138007D01*
X93538007Y-69127496D01*
X93002500Y-70420326D01*
X85966500Y-70420326D01*
X85895673Y-70314327D01*
X85526027Y-70067338D01*
X85200064Y-70002500D01*
X84979936Y-70002500D01*
X84653973Y-70067338D01*
X84284327Y-70314327D01*
X84037338Y-70683973D01*
X83950607Y-71120000D01*
X83689393Y-71120000D01*
X83602662Y-70683973D01*
X83355673Y-70314327D01*
X82986027Y-70067338D01*
X82660064Y-70002500D01*
X82439936Y-70002500D01*
X82113973Y-70067338D01*
X81744327Y-70314327D01*
X81497338Y-70683973D01*
X81410607Y-71120000D01*
X81149393Y-71120000D01*
X81062662Y-70683973D01*
X80815673Y-70314327D01*
X80446027Y-70067338D01*
X80120064Y-70002500D01*
X79899936Y-70002500D01*
X79573973Y-70067338D01*
X79204327Y-70314327D01*
X78957338Y-70683973D01*
X78870607Y-71120000D01*
X78609393Y-71120000D01*
X78522662Y-70683973D01*
X78275673Y-70314327D01*
X77906027Y-70067338D01*
X77580064Y-70002500D01*
X77359936Y-70002500D01*
X77033973Y-70067338D01*
X76664327Y-70314327D01*
X76417338Y-70683973D01*
X76330607Y-71120000D01*
X76069393Y-71120000D01*
X75982662Y-70683973D01*
X75735673Y-70314327D01*
X75366027Y-70067338D01*
X75040064Y-70002500D01*
X74819936Y-70002500D01*
X74493973Y-70067338D01*
X74124327Y-70314327D01*
X73877338Y-70683973D01*
X73790607Y-71120000D01*
X73529393Y-71120000D01*
X73442662Y-70683973D01*
X73195673Y-70314327D01*
X72826027Y-70067338D01*
X72500064Y-70002500D01*
X72279936Y-70002500D01*
X71953973Y-70067338D01*
X71584327Y-70314327D01*
X71337338Y-70683973D01*
X71250607Y-71120000D01*
X70989393Y-71120000D01*
X70902662Y-70683973D01*
X70655673Y-70314327D01*
X70286027Y-70067338D01*
X69960064Y-70002500D01*
X69739936Y-70002500D01*
X69413973Y-70067338D01*
X69044327Y-70314327D01*
X68797338Y-70683973D01*
X68710607Y-71120000D01*
X68449393Y-71120000D01*
X68362662Y-70683973D01*
X68115673Y-70314327D01*
X67746027Y-70067338D01*
X67420064Y-70002500D01*
X67199936Y-70002500D01*
X66873973Y-70067338D01*
X66504327Y-70314327D01*
X66257338Y-70683973D01*
X66170607Y-71120000D01*
X65909393Y-71120000D01*
X65822662Y-70683973D01*
X65575673Y-70314327D01*
X65206027Y-70067338D01*
X64880064Y-70002500D01*
X64659936Y-70002500D01*
X64333973Y-70067338D01*
X63964327Y-70314327D01*
X63717338Y-70683973D01*
X63630607Y-71120000D01*
X63369393Y-71120000D01*
X63282662Y-70683973D01*
X63035673Y-70314327D01*
X62666027Y-70067338D01*
X62340064Y-70002500D01*
X62119936Y-70002500D01*
X61793973Y-70067338D01*
X61424327Y-70314327D01*
X61177338Y-70683973D01*
X61090607Y-71120000D01*
X60829393Y-71120000D01*
X60742662Y-70683973D01*
X60495673Y-70314327D01*
X60126027Y-70067338D01*
X59800064Y-70002500D01*
X59579936Y-70002500D01*
X59253973Y-70067338D01*
X58884327Y-70314327D01*
X58637338Y-70683973D01*
X58550607Y-71120000D01*
X55749393Y-71120000D01*
X55669704Y-70719373D01*
X55838302Y-70719373D01*
X55934654Y-70929500D01*
X56959500Y-70929500D01*
X56959500Y-69906233D01*
X57340500Y-69906233D01*
X57340500Y-70929500D01*
X58365346Y-70929500D01*
X58461698Y-70719373D01*
X58208538Y-70247904D01*
X57794225Y-69909203D01*
X57550625Y-69808318D01*
X57340500Y-69906233D01*
X56959500Y-69906233D01*
X56749375Y-69808318D01*
X56505775Y-69909203D01*
X56091462Y-70247904D01*
X55838302Y-70719373D01*
X55669704Y-70719373D01*
X55662662Y-70683973D01*
X55415673Y-70314327D01*
X55046027Y-70067338D01*
X54720064Y-70002500D01*
X54499936Y-70002500D01*
X54173973Y-70067338D01*
X53804327Y-70314327D01*
X53557338Y-70683973D01*
X53470607Y-71120000D01*
X53209393Y-71120000D01*
X53122662Y-70683973D01*
X52875673Y-70314327D01*
X52506027Y-70067338D01*
X52180064Y-70002500D01*
X51959936Y-70002500D01*
X51633973Y-70067338D01*
X51264327Y-70314327D01*
X51017338Y-70683973D01*
X50930607Y-71120000D01*
X50653720Y-71120000D01*
X50653720Y-70320000D01*
X50629078Y-70196118D01*
X50558905Y-70091095D01*
X50453882Y-70020922D01*
X50330000Y-69996280D01*
X48730000Y-69996280D01*
X48606118Y-70020922D01*
X48501095Y-70091095D01*
X48430922Y-70196118D01*
X48406280Y-70320000D01*
X33955944Y-70320000D01*
X33461993Y-69127496D01*
X32472504Y-68138007D01*
X31671112Y-67806060D01*
X71691500Y-67806060D01*
X71691500Y-68083940D01*
X71797841Y-68340668D01*
X71994332Y-68537159D01*
X72251060Y-68643500D01*
X72528940Y-68643500D01*
X72682241Y-68580000D01*
X92417759Y-68580000D01*
X92571060Y-68643500D01*
X92848940Y-68643500D01*
X93105668Y-68537159D01*
X93302159Y-68340668D01*
X93408500Y-68083940D01*
X93408500Y-67806060D01*
X93302159Y-67549332D01*
X93105668Y-67352841D01*
X93002241Y-67310000D01*
X93687759Y-67310000D01*
X93841060Y-67373500D01*
X94118940Y-67373500D01*
X94375668Y-67267159D01*
X94572159Y-67070668D01*
X94678500Y-66813940D01*
X94678500Y-66536060D01*
X94572159Y-66279332D01*
X94375668Y-66082841D01*
X94272241Y-66040000D01*
X94957759Y-66040000D01*
X95111060Y-66103500D01*
X95388940Y-66103500D01*
X95645668Y-65997159D01*
X95842159Y-65800668D01*
X95948500Y-65543940D01*
X95948500Y-65266060D01*
X95842159Y-65009332D01*
X95645668Y-64812841D01*
X95542241Y-64770000D01*
X96227759Y-64770000D01*
X96381060Y-64833500D01*
X96658940Y-64833500D01*
X96915668Y-64727159D01*
X97112159Y-64530668D01*
X97218500Y-64273940D01*
X97218500Y-63996060D01*
X97112159Y-63739332D01*
X96915668Y-63542841D01*
X96658940Y-63436500D01*
X96381060Y-63436500D01*
X96227759Y-63500000D01*
X85382241Y-63500000D01*
X85228940Y-63436500D01*
X84951060Y-63436500D01*
X84694332Y-63542841D01*
X84497841Y-63739332D01*
X84391500Y-63996060D01*
X84391500Y-64273940D01*
X84497841Y-64530668D01*
X84694332Y-64727159D01*
X84797759Y-64770000D01*
X77762231Y-64770000D01*
X77608930Y-64706500D01*
X77331050Y-64706500D01*
X77074322Y-64812841D01*
X76877831Y-65009332D01*
X76771490Y-65266060D01*
X76771490Y-65543940D01*
X76877831Y-65800668D01*
X77074322Y-65997159D01*
X77177749Y-66040000D01*
X75222241Y-66040000D01*
X75068940Y-65976500D01*
X74791060Y-65976500D01*
X74534332Y-66082841D01*
X74337841Y-66279332D01*
X74231500Y-66536060D01*
X74231500Y-66813940D01*
X74337841Y-67070668D01*
X74534332Y-67267159D01*
X74637759Y-67310000D01*
X72682241Y-67310000D01*
X72528940Y-67246500D01*
X72251060Y-67246500D01*
X71994332Y-67352841D01*
X71797841Y-67549332D01*
X71691500Y-67806060D01*
X31671112Y-67806060D01*
X31179674Y-67602500D01*
X29780326Y-67602500D01*
X28487496Y-68138007D01*
X27498007Y-69127496D01*
X26962500Y-70420326D01*
X25817500Y-70420326D01*
X25817500Y-65901060D01*
X28511500Y-65901060D01*
X28511500Y-66178940D01*
X28617841Y-66435668D01*
X28814332Y-66632159D01*
X29071060Y-66738500D01*
X29348940Y-66738500D01*
X29502241Y-66675000D01*
X49237759Y-66675000D01*
X49391060Y-66738500D01*
X49668940Y-66738500D01*
X49822241Y-66675000D01*
X59397759Y-66675000D01*
X59551060Y-66738500D01*
X59828940Y-66738500D01*
X60085668Y-66632159D01*
X60282159Y-66435668D01*
X60388500Y-66178940D01*
X60388500Y-65901060D01*
X60282159Y-65644332D01*
X60085668Y-65447841D01*
X59982241Y-65405000D01*
X69557759Y-65405000D01*
X69711060Y-65468500D01*
X69988940Y-65468500D01*
X70245668Y-65362159D01*
X70442159Y-65165668D01*
X70548500Y-64908940D01*
X70548500Y-64631060D01*
X70442159Y-64374332D01*
X70245668Y-64177841D01*
X69988940Y-64071500D01*
X69711060Y-64071500D01*
X69557759Y-64135000D01*
X67602270Y-64135000D01*
X67705668Y-64092171D01*
X67902159Y-63895680D01*
X68008500Y-63638952D01*
X68008500Y-63361072D01*
X67902159Y-63104344D01*
X67705668Y-62907853D01*
X67448940Y-62801512D01*
X67171060Y-62801512D01*
X67017788Y-62865000D01*
X65062241Y-62865000D01*
X65165668Y-62822159D01*
X65362159Y-62625668D01*
X65468500Y-62368940D01*
X65468500Y-62091060D01*
X65362159Y-61834332D01*
X65165668Y-61637841D01*
X64908940Y-61531500D01*
X64631060Y-61531500D01*
X64477759Y-61595000D01*
X62493026Y-61595000D01*
X60818238Y-59920214D01*
X60782809Y-59867191D01*
X60572765Y-59726843D01*
X60387541Y-59690000D01*
X60387537Y-59690000D01*
X60325000Y-59677561D01*
X60262463Y-59690000D01*
X58712241Y-59690000D01*
X58815668Y-59647159D01*
X59012159Y-59450668D01*
X59118500Y-59193940D01*
X59118500Y-58916060D01*
X59012159Y-58659332D01*
X58815668Y-58462841D01*
X58558940Y-58356500D01*
X58281060Y-58356500D01*
X58127759Y-58420000D01*
X57442241Y-58420000D01*
X57545668Y-58377159D01*
X57742159Y-58180668D01*
X57848500Y-57923940D01*
X57848500Y-57646060D01*
X57742159Y-57389332D01*
X57545668Y-57192841D01*
X57288940Y-57086500D01*
X57011060Y-57086500D01*
X56857759Y-57150000D01*
X52571272Y-57150000D01*
X52714225Y-57090797D01*
X53128538Y-56752096D01*
X53381698Y-56280627D01*
X53285346Y-56070500D01*
X52260500Y-56070500D01*
X52260500Y-56090500D01*
X51879500Y-56090500D01*
X51879500Y-56070500D01*
X50854654Y-56070500D01*
X50758302Y-56280627D01*
X51011462Y-56752096D01*
X51425775Y-57090797D01*
X51568728Y-57150000D01*
X35852241Y-57150000D01*
X35698940Y-57086500D01*
X35421060Y-57086500D01*
X35164332Y-57192841D01*
X34967841Y-57389332D01*
X34861500Y-57646060D01*
X34861500Y-57923940D01*
X34967841Y-58180668D01*
X35164332Y-58377159D01*
X35267759Y-58420000D01*
X34582241Y-58420000D01*
X34428940Y-58356500D01*
X34151060Y-58356500D01*
X33894332Y-58462841D01*
X33697841Y-58659332D01*
X33591500Y-58916060D01*
X33591500Y-59193940D01*
X33697841Y-59450668D01*
X33894332Y-59647159D01*
X33997759Y-59690000D01*
X33312241Y-59690000D01*
X33158940Y-59626500D01*
X32881060Y-59626500D01*
X32624332Y-59732841D01*
X32427841Y-59929332D01*
X32321500Y-60186060D01*
X32321500Y-60463940D01*
X32427841Y-60720668D01*
X32624332Y-60917159D01*
X32881060Y-61023500D01*
X33158940Y-61023500D01*
X33312241Y-60960000D01*
X60061976Y-60960000D01*
X61736766Y-62634791D01*
X61772191Y-62687809D01*
X61825208Y-62723234D01*
X61825210Y-62723236D01*
X61942340Y-62801500D01*
X61982235Y-62828157D01*
X62167459Y-62865000D01*
X58712241Y-62865000D01*
X58558940Y-62801500D01*
X58281060Y-62801500D01*
X58024332Y-62907841D01*
X57827841Y-63104332D01*
X57721500Y-63361060D01*
X57721500Y-63638940D01*
X57827841Y-63895668D01*
X58024332Y-64092159D01*
X58127759Y-64135000D01*
X57442241Y-64135000D01*
X57288940Y-64071500D01*
X57011060Y-64071500D01*
X56754332Y-64177841D01*
X56557841Y-64374332D01*
X56451500Y-64631060D01*
X56451500Y-64908940D01*
X56557841Y-65165668D01*
X56754332Y-65362159D01*
X56857759Y-65405000D01*
X49822241Y-65405000D01*
X49668940Y-65341500D01*
X49391060Y-65341500D01*
X49237759Y-65405000D01*
X29502241Y-65405000D01*
X29348940Y-65341500D01*
X29071060Y-65341500D01*
X28814332Y-65447841D01*
X28617841Y-65644332D01*
X28511500Y-65901060D01*
X25817500Y-65901060D01*
X25817500Y-60678104D01*
X27948353Y-60678104D01*
X28123849Y-61006046D01*
X28282611Y-61137325D01*
X28189933Y-61276028D01*
X28126485Y-61595000D01*
X28189933Y-61913972D01*
X28370616Y-62184384D01*
X28641028Y-62365067D01*
X28879488Y-62412500D01*
X29540512Y-62412500D01*
X29778972Y-62365067D01*
X30049384Y-62184384D01*
X30230067Y-61913972D01*
X30293515Y-61595000D01*
X30230067Y-61276028D01*
X30137389Y-61137325D01*
X30296151Y-61006046D01*
X30471647Y-60678104D01*
X30368875Y-60515500D01*
X29400500Y-60515500D01*
X29400500Y-60535500D01*
X29019500Y-60535500D01*
X29019500Y-60515500D01*
X28051125Y-60515500D01*
X27948353Y-60678104D01*
X25817500Y-60678104D01*
X25817500Y-59971896D01*
X27948353Y-59971896D01*
X28051125Y-60134500D01*
X29019500Y-60134500D01*
X29019500Y-60114500D01*
X29400500Y-60114500D01*
X29400500Y-60134500D01*
X30368875Y-60134500D01*
X30471647Y-59971896D01*
X30296151Y-59643954D01*
X30270281Y-59622562D01*
X30283720Y-59555000D01*
X30283720Y-58555000D01*
X30259078Y-58431118D01*
X30188905Y-58326095D01*
X30083882Y-58255922D01*
X29960000Y-58231280D01*
X28460000Y-58231280D01*
X28336118Y-58255922D01*
X28231095Y-58326095D01*
X28160922Y-58431118D01*
X28136280Y-58555000D01*
X28136280Y-59555000D01*
X28149719Y-59622562D01*
X28123849Y-59643954D01*
X27948353Y-59971896D01*
X25817500Y-59971896D01*
X25817500Y-55741060D01*
X28511500Y-55741060D01*
X28511500Y-56018940D01*
X28617841Y-56275668D01*
X28814332Y-56472159D01*
X29071060Y-56578500D01*
X29348940Y-56578500D01*
X29502241Y-56515000D01*
X48610287Y-56515000D01*
X48724327Y-56685673D01*
X49093973Y-56932662D01*
X49419936Y-56997500D01*
X49640064Y-56997500D01*
X49966027Y-56932662D01*
X50335673Y-56685673D01*
X50582662Y-56316027D01*
X50669393Y-55880000D01*
X53470607Y-55880000D01*
X53557338Y-56316027D01*
X53804327Y-56685673D01*
X54173973Y-56932662D01*
X54499936Y-56997500D01*
X54720064Y-56997500D01*
X55046027Y-56932662D01*
X55415673Y-56685673D01*
X55662662Y-56316027D01*
X55749393Y-55880000D01*
X56010607Y-55880000D01*
X56097338Y-56316027D01*
X56344327Y-56685673D01*
X56713973Y-56932662D01*
X57039936Y-56997500D01*
X57260064Y-56997500D01*
X57586027Y-56932662D01*
X57955673Y-56685673D01*
X58202662Y-56316027D01*
X58289393Y-55880000D01*
X58550607Y-55880000D01*
X58637338Y-56316027D01*
X58884327Y-56685673D01*
X59253973Y-56932662D01*
X59579936Y-56997500D01*
X59800064Y-56997500D01*
X60126027Y-56932662D01*
X60495673Y-56685673D01*
X60742662Y-56316027D01*
X60829393Y-55880000D01*
X61090607Y-55880000D01*
X61177338Y-56316027D01*
X61424327Y-56685673D01*
X61793973Y-56932662D01*
X62119936Y-56997500D01*
X62340064Y-56997500D01*
X62666027Y-56932662D01*
X63035673Y-56685673D01*
X63282662Y-56316027D01*
X63369393Y-55880000D01*
X63630607Y-55880000D01*
X63717338Y-56316027D01*
X63964327Y-56685673D01*
X64333973Y-56932662D01*
X64659936Y-56997500D01*
X64880064Y-56997500D01*
X65206027Y-56932662D01*
X65575673Y-56685673D01*
X65822662Y-56316027D01*
X65909393Y-55880000D01*
X66170607Y-55880000D01*
X66257338Y-56316027D01*
X66504327Y-56685673D01*
X66873973Y-56932662D01*
X67199936Y-56997500D01*
X67420064Y-56997500D01*
X67746027Y-56932662D01*
X68115673Y-56685673D01*
X68362662Y-56316027D01*
X68449393Y-55880000D01*
X68710607Y-55880000D01*
X68797338Y-56316027D01*
X69044327Y-56685673D01*
X69413973Y-56932662D01*
X69739936Y-56997500D01*
X69960064Y-56997500D01*
X70286027Y-56932662D01*
X70655673Y-56685673D01*
X70902662Y-56316027D01*
X70989393Y-55880000D01*
X71250607Y-55880000D01*
X71337338Y-56316027D01*
X71584327Y-56685673D01*
X71953973Y-56932662D01*
X72279936Y-56997500D01*
X72500064Y-56997500D01*
X72826027Y-56932662D01*
X73195673Y-56685673D01*
X73442662Y-56316027D01*
X73529393Y-55880000D01*
X73790607Y-55880000D01*
X73877338Y-56316027D01*
X74124327Y-56685673D01*
X74493973Y-56932662D01*
X74819936Y-56997500D01*
X75040064Y-56997500D01*
X75366027Y-56932662D01*
X75735673Y-56685673D01*
X75982662Y-56316027D01*
X76069393Y-55880000D01*
X76330607Y-55880000D01*
X76417338Y-56316027D01*
X76664327Y-56685673D01*
X77033973Y-56932662D01*
X77359936Y-56997500D01*
X77580064Y-56997500D01*
X77906027Y-56932662D01*
X78275673Y-56685673D01*
X78522662Y-56316027D01*
X78609393Y-55880000D01*
X78870607Y-55880000D01*
X78957338Y-56316027D01*
X79204327Y-56685673D01*
X79573973Y-56932662D01*
X79899936Y-56997500D01*
X80120064Y-56997500D01*
X80446027Y-56932662D01*
X80815673Y-56685673D01*
X81062662Y-56316027D01*
X81149393Y-55880000D01*
X81410607Y-55880000D01*
X81497338Y-56316027D01*
X81744327Y-56685673D01*
X82113973Y-56932662D01*
X82439936Y-56997500D01*
X82660064Y-56997500D01*
X82986027Y-56932662D01*
X83355673Y-56685673D01*
X83602662Y-56316027D01*
X83689393Y-55880000D01*
X83950607Y-55880000D01*
X84037338Y-56316027D01*
X84284327Y-56685673D01*
X84653973Y-56932662D01*
X84979936Y-56997500D01*
X85200064Y-56997500D01*
X85526027Y-56932662D01*
X85895673Y-56685673D01*
X86142662Y-56316027D01*
X86229393Y-55880000D01*
X86142662Y-55443973D01*
X85895673Y-55074327D01*
X85526027Y-54827338D01*
X85200064Y-54762500D01*
X84979936Y-54762500D01*
X84653973Y-54827338D01*
X84284327Y-55074327D01*
X84037338Y-55443973D01*
X83950607Y-55880000D01*
X83689393Y-55880000D01*
X83602662Y-55443973D01*
X83355673Y-55074327D01*
X82986027Y-54827338D01*
X82660064Y-54762500D01*
X82439936Y-54762500D01*
X82113973Y-54827338D01*
X81744327Y-55074327D01*
X81497338Y-55443973D01*
X81410607Y-55880000D01*
X81149393Y-55880000D01*
X81062662Y-55443973D01*
X80815673Y-55074327D01*
X80446027Y-54827338D01*
X80120064Y-54762500D01*
X79899936Y-54762500D01*
X79573973Y-54827338D01*
X79204327Y-55074327D01*
X78957338Y-55443973D01*
X78870607Y-55880000D01*
X78609393Y-55880000D01*
X78522662Y-55443973D01*
X78275673Y-55074327D01*
X77906027Y-54827338D01*
X77580064Y-54762500D01*
X77359936Y-54762500D01*
X77033973Y-54827338D01*
X76664327Y-55074327D01*
X76417338Y-55443973D01*
X76330607Y-55880000D01*
X76069393Y-55880000D01*
X75982662Y-55443973D01*
X75735673Y-55074327D01*
X75366027Y-54827338D01*
X75040064Y-54762500D01*
X74819936Y-54762500D01*
X74493973Y-54827338D01*
X74124327Y-55074327D01*
X73877338Y-55443973D01*
X73790607Y-55880000D01*
X73529393Y-55880000D01*
X73442662Y-55443973D01*
X73195673Y-55074327D01*
X72826027Y-54827338D01*
X72500064Y-54762500D01*
X72279936Y-54762500D01*
X71953973Y-54827338D01*
X71584327Y-55074327D01*
X71337338Y-55443973D01*
X71250607Y-55880000D01*
X70989393Y-55880000D01*
X70902662Y-55443973D01*
X70655673Y-55074327D01*
X70286027Y-54827338D01*
X69960064Y-54762500D01*
X69739936Y-54762500D01*
X69413973Y-54827338D01*
X69044327Y-55074327D01*
X68797338Y-55443973D01*
X68710607Y-55880000D01*
X68449393Y-55880000D01*
X68362662Y-55443973D01*
X68115673Y-55074327D01*
X67746027Y-54827338D01*
X67420064Y-54762500D01*
X67199936Y-54762500D01*
X66873973Y-54827338D01*
X66504327Y-55074327D01*
X66257338Y-55443973D01*
X66170607Y-55880000D01*
X65909393Y-55880000D01*
X65822662Y-55443973D01*
X65575673Y-55074327D01*
X65206027Y-54827338D01*
X64880064Y-54762500D01*
X64659936Y-54762500D01*
X64333973Y-54827338D01*
X63964327Y-55074327D01*
X63717338Y-55443973D01*
X63630607Y-55880000D01*
X63369393Y-55880000D01*
X63282662Y-55443973D01*
X63035673Y-55074327D01*
X62666027Y-54827338D01*
X62340064Y-54762500D01*
X62119936Y-54762500D01*
X61793973Y-54827338D01*
X61424327Y-55074327D01*
X61177338Y-55443973D01*
X61090607Y-55880000D01*
X60829393Y-55880000D01*
X60742662Y-55443973D01*
X60495673Y-55074327D01*
X60126027Y-54827338D01*
X59800064Y-54762500D01*
X59579936Y-54762500D01*
X59253973Y-54827338D01*
X58884327Y-55074327D01*
X58637338Y-55443973D01*
X58550607Y-55880000D01*
X58289393Y-55880000D01*
X58202662Y-55443973D01*
X57955673Y-55074327D01*
X57586027Y-54827338D01*
X57260064Y-54762500D01*
X57039936Y-54762500D01*
X56713973Y-54827338D01*
X56344327Y-55074327D01*
X56097338Y-55443973D01*
X56010607Y-55880000D01*
X55749393Y-55880000D01*
X55662662Y-55443973D01*
X55415673Y-55074327D01*
X55046027Y-54827338D01*
X54720064Y-54762500D01*
X54499936Y-54762500D01*
X54173973Y-54827338D01*
X53804327Y-55074327D01*
X53557338Y-55443973D01*
X53470607Y-55880000D01*
X50669393Y-55880000D01*
X50589704Y-55479373D01*
X50758302Y-55479373D01*
X50854654Y-55689500D01*
X51879500Y-55689500D01*
X51879500Y-54666233D01*
X52260500Y-54666233D01*
X52260500Y-55689500D01*
X53285346Y-55689500D01*
X53381698Y-55479373D01*
X53128538Y-55007904D01*
X52714225Y-54669203D01*
X52470625Y-54568318D01*
X52260500Y-54666233D01*
X51879500Y-54666233D01*
X51669375Y-54568318D01*
X51425775Y-54669203D01*
X51011462Y-55007904D01*
X50758302Y-55479373D01*
X50589704Y-55479373D01*
X50582662Y-55443973D01*
X50335673Y-55074327D01*
X49966027Y-54827338D01*
X49640064Y-54762500D01*
X49419936Y-54762500D01*
X49093973Y-54827338D01*
X48724327Y-55074327D01*
X48610287Y-55245000D01*
X29502241Y-55245000D01*
X29348940Y-55181500D01*
X29071060Y-55181500D01*
X28814332Y-55287841D01*
X28617841Y-55484332D01*
X28511500Y-55741060D01*
X25817500Y-55741060D01*
X25817500Y-51133375D01*
X27788500Y-51133375D01*
X27788500Y-51763679D01*
X27875506Y-51973729D01*
X28036272Y-52134494D01*
X28246322Y-52221500D01*
X28848676Y-52221500D01*
X28754464Y-52240240D01*
X28368280Y-52498280D01*
X28110240Y-52884464D01*
X28019628Y-53340000D01*
X28110240Y-53795536D01*
X28368280Y-54181720D01*
X28754464Y-54439760D01*
X29095015Y-54507500D01*
X29324985Y-54507500D01*
X29665536Y-54439760D01*
X30051720Y-54181720D01*
X30309760Y-53795536D01*
X30400372Y-53340000D01*
X30372736Y-53201060D01*
X39306500Y-53201060D01*
X39306500Y-53478940D01*
X39412841Y-53735668D01*
X39609332Y-53932159D01*
X39866060Y-54038500D01*
X40143940Y-54038500D01*
X40297241Y-53975000D01*
X55587759Y-53975000D01*
X55741060Y-54038500D01*
X56018940Y-54038500D01*
X56275668Y-53932159D01*
X56371767Y-53836060D01*
X69151500Y-53836060D01*
X69151500Y-54113940D01*
X69257841Y-54370668D01*
X69454332Y-54567159D01*
X69711060Y-54673500D01*
X69988940Y-54673500D01*
X70142241Y-54610000D01*
X89877759Y-54610000D01*
X90031060Y-54673500D01*
X90308940Y-54673500D01*
X90565668Y-54567159D01*
X90762159Y-54370668D01*
X90868500Y-54113940D01*
X90868500Y-53836060D01*
X90762159Y-53579332D01*
X90565668Y-53382841D01*
X90462241Y-53340000D01*
X91147759Y-53340000D01*
X91301060Y-53403500D01*
X91578940Y-53403500D01*
X91835668Y-53297159D01*
X92032159Y-53100668D01*
X92138500Y-52843940D01*
X92138500Y-52566060D01*
X92032159Y-52309332D01*
X91835668Y-52112841D01*
X91578940Y-52006500D01*
X91301060Y-52006500D01*
X91147759Y-52070000D01*
X90462241Y-52070000D01*
X90565668Y-52027159D01*
X90762159Y-51830668D01*
X90868500Y-51573940D01*
X90868500Y-51296060D01*
X90762159Y-51039332D01*
X90565668Y-50842841D01*
X90308940Y-50736500D01*
X90031060Y-50736500D01*
X89877759Y-50800000D01*
X87922241Y-50800000D01*
X87768940Y-50736500D01*
X87491060Y-50736500D01*
X87234332Y-50842841D01*
X87037841Y-51039332D01*
X86931500Y-51296060D01*
X86931500Y-51573940D01*
X87037841Y-51830668D01*
X87234332Y-52027159D01*
X87337759Y-52070000D01*
X85744453Y-52070000D01*
X85883617Y-51861727D01*
X85932500Y-51615976D01*
X85932500Y-51000024D01*
X85883617Y-50754273D01*
X85697408Y-50475592D01*
X85418726Y-50289383D01*
X85090000Y-50223995D01*
X84761273Y-50289383D01*
X84482592Y-50475592D01*
X84455000Y-50516886D01*
X84427408Y-50475592D01*
X84148726Y-50289383D01*
X83820000Y-50223995D01*
X83575391Y-50272651D01*
X83559494Y-50234271D01*
X83398728Y-50073506D01*
X83188678Y-49986500D01*
X82883375Y-49986500D01*
X82740500Y-50129375D01*
X82740500Y-51117500D01*
X82760500Y-51117500D01*
X82760500Y-51498500D01*
X82740500Y-51498500D01*
X82740500Y-52486625D01*
X82883375Y-52629500D01*
X83121500Y-52629500D01*
X83121500Y-52843940D01*
X83227841Y-53100668D01*
X83424332Y-53297159D01*
X83527759Y-53340000D01*
X70142241Y-53340000D01*
X69988940Y-53276500D01*
X69711060Y-53276500D01*
X69454332Y-53382841D01*
X69257841Y-53579332D01*
X69151500Y-53836060D01*
X56371767Y-53836060D01*
X56472159Y-53735668D01*
X56578500Y-53478940D01*
X56578500Y-53201060D01*
X56472159Y-52944332D01*
X56275668Y-52747841D01*
X56018940Y-52641500D01*
X55741060Y-52641500D01*
X55587759Y-52705000D01*
X40297241Y-52705000D01*
X40143940Y-52641500D01*
X39866060Y-52641500D01*
X39609332Y-52747841D01*
X39412841Y-52944332D01*
X39306500Y-53201060D01*
X30372736Y-53201060D01*
X30309760Y-52884464D01*
X30051720Y-52498280D01*
X29665536Y-52240240D01*
X29571324Y-52221500D01*
X30173678Y-52221500D01*
X30383728Y-52134494D01*
X30544494Y-51973729D01*
X30631500Y-51763679D01*
X30631500Y-51641375D01*
X39543500Y-51641375D01*
X39543500Y-52171679D01*
X39630506Y-52381729D01*
X39791272Y-52542494D01*
X40001322Y-52629500D01*
X40306625Y-52629500D01*
X40449500Y-52486625D01*
X40449500Y-51498500D01*
X39686375Y-51498500D01*
X39543500Y-51641375D01*
X30631500Y-51641375D01*
X30631500Y-51133375D01*
X30488625Y-50990500D01*
X29400500Y-50990500D01*
X29400500Y-51010500D01*
X29019500Y-51010500D01*
X29019500Y-50990500D01*
X27931375Y-50990500D01*
X27788500Y-51133375D01*
X25817500Y-51133375D01*
X25817500Y-49836321D01*
X27788500Y-49836321D01*
X27788500Y-50466625D01*
X27931375Y-50609500D01*
X29019500Y-50609500D01*
X29019500Y-49521375D01*
X29400500Y-49521375D01*
X29400500Y-50609500D01*
X30488625Y-50609500D01*
X30631500Y-50466625D01*
X30631500Y-49836321D01*
X30544494Y-49626271D01*
X30383728Y-49465506D01*
X30204001Y-49391060D01*
X38036500Y-49391060D01*
X38036500Y-49668940D01*
X38142841Y-49925668D01*
X38339332Y-50122159D01*
X38596060Y-50228500D01*
X38873940Y-50228500D01*
X39027241Y-50165000D01*
X39699777Y-50165000D01*
X39630506Y-50234271D01*
X39543500Y-50444321D01*
X39543500Y-50974625D01*
X39686375Y-51117500D01*
X40449500Y-51117500D01*
X40449500Y-51097500D01*
X40830500Y-51097500D01*
X40830500Y-51117500D01*
X40850500Y-51117500D01*
X40850500Y-51498500D01*
X40830500Y-51498500D01*
X40830500Y-52486625D01*
X40973375Y-52629500D01*
X41278678Y-52629500D01*
X41488728Y-52542494D01*
X41649494Y-52381729D01*
X41665392Y-52343349D01*
X41910000Y-52392005D01*
X42238727Y-52326617D01*
X42517408Y-52140408D01*
X42545000Y-52099113D01*
X42572593Y-52140408D01*
X42851274Y-52326617D01*
X43180000Y-52392005D01*
X43508727Y-52326617D01*
X43787408Y-52140408D01*
X43973617Y-51861727D01*
X44017447Y-51641375D01*
X53513500Y-51641375D01*
X53513500Y-52171679D01*
X53600506Y-52381729D01*
X53761272Y-52542494D01*
X53971322Y-52629500D01*
X54276625Y-52629500D01*
X54419500Y-52486625D01*
X54419500Y-51498500D01*
X53656375Y-51498500D01*
X53513500Y-51641375D01*
X44017447Y-51641375D01*
X44022500Y-51615976D01*
X44022500Y-51000024D01*
X43973617Y-50754273D01*
X43787408Y-50475592D01*
X43740608Y-50444321D01*
X53513500Y-50444321D01*
X53513500Y-50974625D01*
X53656375Y-51117500D01*
X54419500Y-51117500D01*
X54419500Y-50129375D01*
X54800500Y-50129375D01*
X54800500Y-51117500D01*
X54820500Y-51117500D01*
X54820500Y-51498500D01*
X54800500Y-51498500D01*
X54800500Y-52486625D01*
X54943375Y-52629500D01*
X55248678Y-52629500D01*
X55458728Y-52542494D01*
X55619494Y-52381729D01*
X55635392Y-52343349D01*
X55880000Y-52392005D01*
X56208727Y-52326617D01*
X56487408Y-52140408D01*
X56515000Y-52099113D01*
X56542593Y-52140408D01*
X56821274Y-52326617D01*
X57150000Y-52392005D01*
X57478727Y-52326617D01*
X57757408Y-52140408D01*
X57943617Y-51861727D01*
X57987447Y-51641375D01*
X67483500Y-51641375D01*
X67483500Y-52171679D01*
X67570506Y-52381729D01*
X67731272Y-52542494D01*
X67941322Y-52629500D01*
X68246625Y-52629500D01*
X68389500Y-52486625D01*
X68389500Y-51498500D01*
X67626375Y-51498500D01*
X67483500Y-51641375D01*
X57987447Y-51641375D01*
X57992500Y-51615976D01*
X57992500Y-51000024D01*
X57943617Y-50754273D01*
X57757408Y-50475592D01*
X57710608Y-50444321D01*
X67483500Y-50444321D01*
X67483500Y-50974625D01*
X67626375Y-51117500D01*
X68389500Y-51117500D01*
X68389500Y-50129375D01*
X68770500Y-50129375D01*
X68770500Y-51117500D01*
X68790500Y-51117500D01*
X68790500Y-51498500D01*
X68770500Y-51498500D01*
X68770500Y-52486625D01*
X68913375Y-52629500D01*
X69218678Y-52629500D01*
X69428728Y-52542494D01*
X69589494Y-52381729D01*
X69605392Y-52343349D01*
X69850000Y-52392005D01*
X70178727Y-52326617D01*
X70457408Y-52140408D01*
X70485000Y-52099113D01*
X70512593Y-52140408D01*
X70791274Y-52326617D01*
X71120000Y-52392005D01*
X71448727Y-52326617D01*
X71727408Y-52140408D01*
X71913617Y-51861727D01*
X71957447Y-51641375D01*
X81453500Y-51641375D01*
X81453500Y-52171679D01*
X81540506Y-52381729D01*
X81701272Y-52542494D01*
X81911322Y-52629500D01*
X82216625Y-52629500D01*
X82359500Y-52486625D01*
X82359500Y-51498500D01*
X81596375Y-51498500D01*
X81453500Y-51641375D01*
X71957447Y-51641375D01*
X71962500Y-51615976D01*
X71962500Y-51000024D01*
X71913617Y-50754273D01*
X71727408Y-50475592D01*
X71680608Y-50444321D01*
X81453500Y-50444321D01*
X81453500Y-50974625D01*
X81596375Y-51117500D01*
X82359500Y-51117500D01*
X82359500Y-50129375D01*
X82216625Y-49986500D01*
X81911322Y-49986500D01*
X81701272Y-50073506D01*
X81540506Y-50234271D01*
X81453500Y-50444321D01*
X71680608Y-50444321D01*
X71448726Y-50289383D01*
X71120000Y-50223995D01*
X70791273Y-50289383D01*
X70512592Y-50475592D01*
X70485000Y-50516886D01*
X70457408Y-50475592D01*
X70178726Y-50289383D01*
X69850000Y-50223995D01*
X69605391Y-50272651D01*
X69589494Y-50234271D01*
X69428728Y-50073506D01*
X69218678Y-49986500D01*
X68913375Y-49986500D01*
X68770500Y-50129375D01*
X68389500Y-50129375D01*
X68246625Y-49986500D01*
X67941322Y-49986500D01*
X67731272Y-50073506D01*
X67570506Y-50234271D01*
X67483500Y-50444321D01*
X57710608Y-50444321D01*
X57478726Y-50289383D01*
X57150000Y-50223995D01*
X56821273Y-50289383D01*
X56542592Y-50475592D01*
X56515000Y-50516886D01*
X56487408Y-50475592D01*
X56208726Y-50289383D01*
X55880000Y-50223995D01*
X55635391Y-50272651D01*
X55619494Y-50234271D01*
X55458728Y-50073506D01*
X55248678Y-49986500D01*
X54943375Y-49986500D01*
X54800500Y-50129375D01*
X54419500Y-50129375D01*
X54276625Y-49986500D01*
X53971322Y-49986500D01*
X53761272Y-50073506D01*
X53600506Y-50234271D01*
X53513500Y-50444321D01*
X43740608Y-50444321D01*
X43508726Y-50289383D01*
X43180000Y-50223995D01*
X42851273Y-50289383D01*
X42572592Y-50475592D01*
X42545000Y-50516886D01*
X42517408Y-50475592D01*
X42238726Y-50289383D01*
X41932648Y-50228500D01*
X42048940Y-50228500D01*
X42305668Y-50122159D01*
X42502159Y-49925668D01*
X42608500Y-49668940D01*
X42608500Y-49391060D01*
X86931500Y-49391060D01*
X86931500Y-49668940D01*
X87037841Y-49925668D01*
X87234332Y-50122159D01*
X87491060Y-50228500D01*
X87768940Y-50228500D01*
X87922241Y-50165000D01*
X92417759Y-50165000D01*
X92571060Y-50228500D01*
X92848940Y-50228500D01*
X93105668Y-50122159D01*
X93302159Y-49925668D01*
X93408500Y-49668940D01*
X93408500Y-49391060D01*
X93302159Y-49134332D01*
X93105668Y-48937841D01*
X92848940Y-48831500D01*
X92571060Y-48831500D01*
X92417759Y-48895000D01*
X87922241Y-48895000D01*
X87768940Y-48831500D01*
X87491060Y-48831500D01*
X87234332Y-48937841D01*
X87037841Y-49134332D01*
X86931500Y-49391060D01*
X42608500Y-49391060D01*
X42502159Y-49134332D01*
X42305668Y-48937841D01*
X42048940Y-48831500D01*
X41771060Y-48831500D01*
X41617759Y-48895000D01*
X39027241Y-48895000D01*
X38873940Y-48831500D01*
X38596060Y-48831500D01*
X38339332Y-48937841D01*
X38142841Y-49134332D01*
X38036500Y-49391060D01*
X30204001Y-49391060D01*
X30173678Y-49378500D01*
X29543375Y-49378500D01*
X29400500Y-49521375D01*
X29019500Y-49521375D01*
X28876625Y-49378500D01*
X28246322Y-49378500D01*
X28036272Y-49465506D01*
X27875506Y-49626271D01*
X27788500Y-49836321D01*
X25817500Y-49836321D01*
X25817500Y-44458000D01*
X37014280Y-44458000D01*
X37014280Y-46982000D01*
X37038922Y-47105882D01*
X37109095Y-47210905D01*
X37214118Y-47281078D01*
X37338000Y-47305720D01*
X38862000Y-47305720D01*
X38985882Y-47281078D01*
X39090905Y-47210905D01*
X39161078Y-47105882D01*
X39185720Y-46982000D01*
X39185720Y-45113683D01*
X39560500Y-45113683D01*
X39560500Y-46326318D01*
X39623135Y-46641200D01*
X39861725Y-46998276D01*
X40218801Y-47236866D01*
X40640000Y-47320648D01*
X41061200Y-47236866D01*
X41418276Y-46998276D01*
X41656866Y-46641200D01*
X41719500Y-46326318D01*
X41719500Y-45113683D01*
X42100500Y-45113683D01*
X42100500Y-46326318D01*
X42163135Y-46641200D01*
X42401725Y-46998276D01*
X42758801Y-47236866D01*
X43180000Y-47320648D01*
X43601200Y-47236866D01*
X43958276Y-46998276D01*
X44196866Y-46641200D01*
X44259500Y-46326318D01*
X44259500Y-45113683D01*
X44640500Y-45113683D01*
X44640500Y-46326318D01*
X44703135Y-46641200D01*
X44941725Y-46998276D01*
X45298801Y-47236866D01*
X45720000Y-47320648D01*
X46141200Y-47236866D01*
X46498276Y-46998276D01*
X46736866Y-46641200D01*
X46799500Y-46326318D01*
X46799500Y-45113683D01*
X47180500Y-45113683D01*
X47180500Y-46326318D01*
X47243135Y-46641200D01*
X47481725Y-46998276D01*
X47838801Y-47236866D01*
X48260000Y-47320648D01*
X48681200Y-47236866D01*
X49038276Y-46998276D01*
X49276866Y-46641200D01*
X49339500Y-46326318D01*
X49339500Y-45113682D01*
X49276866Y-44798800D01*
X49049152Y-44458000D01*
X50984280Y-44458000D01*
X50984280Y-46982000D01*
X51008922Y-47105882D01*
X51079095Y-47210905D01*
X51184118Y-47281078D01*
X51308000Y-47305720D01*
X52832000Y-47305720D01*
X52955882Y-47281078D01*
X53060905Y-47210905D01*
X53131078Y-47105882D01*
X53155720Y-46982000D01*
X53155720Y-45113683D01*
X53530500Y-45113683D01*
X53530500Y-46326318D01*
X53593135Y-46641200D01*
X53831725Y-46998276D01*
X54188801Y-47236866D01*
X54610000Y-47320648D01*
X55031200Y-47236866D01*
X55388276Y-46998276D01*
X55626866Y-46641200D01*
X55689500Y-46326318D01*
X55689500Y-45113683D01*
X56070500Y-45113683D01*
X56070500Y-46326318D01*
X56133135Y-46641200D01*
X56371725Y-46998276D01*
X56728801Y-47236866D01*
X57150000Y-47320648D01*
X57571200Y-47236866D01*
X57928276Y-46998276D01*
X58166866Y-46641200D01*
X58229500Y-46326318D01*
X58229500Y-45113683D01*
X58610500Y-45113683D01*
X58610500Y-46326318D01*
X58673135Y-46641200D01*
X58911725Y-46998276D01*
X59268801Y-47236866D01*
X59690000Y-47320648D01*
X60111200Y-47236866D01*
X60468276Y-46998276D01*
X60706866Y-46641200D01*
X60769500Y-46326318D01*
X60769500Y-45113683D01*
X61150500Y-45113683D01*
X61150500Y-46326318D01*
X61213135Y-46641200D01*
X61451725Y-46998276D01*
X61808801Y-47236866D01*
X62230000Y-47320648D01*
X62651200Y-47236866D01*
X63008276Y-46998276D01*
X63246866Y-46641200D01*
X63309500Y-46326318D01*
X63309500Y-45113682D01*
X63246866Y-44798800D01*
X63019152Y-44458000D01*
X64954280Y-44458000D01*
X64954280Y-46982000D01*
X64978922Y-47105882D01*
X65049095Y-47210905D01*
X65154118Y-47281078D01*
X65278000Y-47305720D01*
X66802000Y-47305720D01*
X66925882Y-47281078D01*
X67030905Y-47210905D01*
X67101078Y-47105882D01*
X67125720Y-46982000D01*
X67125720Y-45113683D01*
X67500500Y-45113683D01*
X67500500Y-46326318D01*
X67563135Y-46641200D01*
X67801725Y-46998276D01*
X68158801Y-47236866D01*
X68580000Y-47320648D01*
X69001200Y-47236866D01*
X69358276Y-46998276D01*
X69596866Y-46641200D01*
X69659500Y-46326318D01*
X69659500Y-45113683D01*
X70040500Y-45113683D01*
X70040500Y-46326318D01*
X70103135Y-46641200D01*
X70341725Y-46998276D01*
X70698801Y-47236866D01*
X71120000Y-47320648D01*
X71541200Y-47236866D01*
X71898276Y-46998276D01*
X72136866Y-46641200D01*
X72199500Y-46326318D01*
X72199500Y-45113683D01*
X72580500Y-45113683D01*
X72580500Y-46326318D01*
X72643135Y-46641200D01*
X72881725Y-46998276D01*
X73238801Y-47236866D01*
X73660000Y-47320648D01*
X74081200Y-47236866D01*
X74438276Y-46998276D01*
X74676866Y-46641200D01*
X74739500Y-46326318D01*
X74739500Y-45113683D01*
X75120500Y-45113683D01*
X75120500Y-46326318D01*
X75183135Y-46641200D01*
X75421725Y-46998276D01*
X75778801Y-47236866D01*
X76200000Y-47320648D01*
X76621200Y-47236866D01*
X76978276Y-46998276D01*
X77216866Y-46641200D01*
X77279500Y-46326318D01*
X77279500Y-45113682D01*
X77216866Y-44798800D01*
X76989152Y-44458000D01*
X78924280Y-44458000D01*
X78924280Y-46982000D01*
X78948922Y-47105882D01*
X79019095Y-47210905D01*
X79124118Y-47281078D01*
X79248000Y-47305720D01*
X80772000Y-47305720D01*
X80895882Y-47281078D01*
X81000905Y-47210905D01*
X81071078Y-47105882D01*
X81095720Y-46982000D01*
X81095720Y-45113683D01*
X81470500Y-45113683D01*
X81470500Y-46326318D01*
X81533135Y-46641200D01*
X81771725Y-46998276D01*
X82128801Y-47236866D01*
X82550000Y-47320648D01*
X82971200Y-47236866D01*
X83328276Y-46998276D01*
X83566866Y-46641200D01*
X83629500Y-46326318D01*
X83629500Y-45113683D01*
X84010500Y-45113683D01*
X84010500Y-46326318D01*
X84073135Y-46641200D01*
X84311725Y-46998276D01*
X84668801Y-47236866D01*
X85090000Y-47320648D01*
X85511200Y-47236866D01*
X85868276Y-46998276D01*
X86106866Y-46641200D01*
X86169500Y-46326318D01*
X86169500Y-45113683D01*
X86550500Y-45113683D01*
X86550500Y-46326318D01*
X86613135Y-46641200D01*
X86851725Y-46998276D01*
X87208801Y-47236866D01*
X87630000Y-47320648D01*
X88051200Y-47236866D01*
X88408276Y-46998276D01*
X88646866Y-46641200D01*
X88709500Y-46326318D01*
X88709500Y-45113683D01*
X89090500Y-45113683D01*
X89090500Y-46326318D01*
X89153135Y-46641200D01*
X89391725Y-46998276D01*
X89748801Y-47236866D01*
X90170000Y-47320648D01*
X90591200Y-47236866D01*
X90948276Y-46998276D01*
X91186866Y-46641200D01*
X91249500Y-46326318D01*
X91249500Y-45113682D01*
X91186866Y-44798800D01*
X90948276Y-44441724D01*
X90591199Y-44203134D01*
X90170000Y-44119352D01*
X89748800Y-44203134D01*
X89391724Y-44441724D01*
X89153134Y-44798801D01*
X89090500Y-45113683D01*
X88709500Y-45113683D01*
X88709500Y-45113682D01*
X88646866Y-44798800D01*
X88408276Y-44441724D01*
X88051199Y-44203134D01*
X87630000Y-44119352D01*
X87208800Y-44203134D01*
X86851724Y-44441724D01*
X86613134Y-44798801D01*
X86550500Y-45113683D01*
X86169500Y-45113683D01*
X86169500Y-45113682D01*
X86106866Y-44798800D01*
X85868276Y-44441724D01*
X85511199Y-44203134D01*
X85090000Y-44119352D01*
X84668800Y-44203134D01*
X84311724Y-44441724D01*
X84073134Y-44798801D01*
X84010500Y-45113683D01*
X83629500Y-45113683D01*
X83629500Y-45113682D01*
X83566866Y-44798800D01*
X83328276Y-44441724D01*
X82971199Y-44203134D01*
X82550000Y-44119352D01*
X82128800Y-44203134D01*
X81771724Y-44441724D01*
X81533134Y-44798801D01*
X81470500Y-45113683D01*
X81095720Y-45113683D01*
X81095720Y-44458000D01*
X81071078Y-44334118D01*
X81000905Y-44229095D01*
X80895882Y-44158922D01*
X80772000Y-44134280D01*
X79248000Y-44134280D01*
X79124118Y-44158922D01*
X79019095Y-44229095D01*
X78948922Y-44334118D01*
X78924280Y-44458000D01*
X76989152Y-44458000D01*
X76978276Y-44441724D01*
X76621199Y-44203134D01*
X76200000Y-44119352D01*
X75778800Y-44203134D01*
X75421724Y-44441724D01*
X75183134Y-44798801D01*
X75120500Y-45113683D01*
X74739500Y-45113683D01*
X74739500Y-45113682D01*
X74676866Y-44798800D01*
X74438276Y-44441724D01*
X74081199Y-44203134D01*
X73660000Y-44119352D01*
X73238800Y-44203134D01*
X72881724Y-44441724D01*
X72643134Y-44798801D01*
X72580500Y-45113683D01*
X72199500Y-45113683D01*
X72199500Y-45113682D01*
X72136866Y-44798800D01*
X71898276Y-44441724D01*
X71541199Y-44203134D01*
X71120000Y-44119352D01*
X70698800Y-44203134D01*
X70341724Y-44441724D01*
X70103134Y-44798801D01*
X70040500Y-45113683D01*
X69659500Y-45113683D01*
X69659500Y-45113682D01*
X69596866Y-44798800D01*
X69358276Y-44441724D01*
X69001199Y-44203134D01*
X68580000Y-44119352D01*
X68158800Y-44203134D01*
X67801724Y-44441724D01*
X67563134Y-44798801D01*
X67500500Y-45113683D01*
X67125720Y-45113683D01*
X67125720Y-44458000D01*
X67101078Y-44334118D01*
X67030905Y-44229095D01*
X66925882Y-44158922D01*
X66802000Y-44134280D01*
X65278000Y-44134280D01*
X65154118Y-44158922D01*
X65049095Y-44229095D01*
X64978922Y-44334118D01*
X64954280Y-44458000D01*
X63019152Y-44458000D01*
X63008276Y-44441724D01*
X62651199Y-44203134D01*
X62230000Y-44119352D01*
X61808800Y-44203134D01*
X61451724Y-44441724D01*
X61213134Y-44798801D01*
X61150500Y-45113683D01*
X60769500Y-45113683D01*
X60769500Y-45113682D01*
X60706866Y-44798800D01*
X60468276Y-44441724D01*
X60111199Y-44203134D01*
X59690000Y-44119352D01*
X59268800Y-44203134D01*
X58911724Y-44441724D01*
X58673134Y-44798801D01*
X58610500Y-45113683D01*
X58229500Y-45113683D01*
X58229500Y-45113682D01*
X58166866Y-44798800D01*
X57928276Y-44441724D01*
X57571199Y-44203134D01*
X57150000Y-44119352D01*
X56728800Y-44203134D01*
X56371724Y-44441724D01*
X56133134Y-44798801D01*
X56070500Y-45113683D01*
X55689500Y-45113683D01*
X55689500Y-45113682D01*
X55626866Y-44798800D01*
X55388276Y-44441724D01*
X55031199Y-44203134D01*
X54610000Y-44119352D01*
X54188800Y-44203134D01*
X53831724Y-44441724D01*
X53593134Y-44798801D01*
X53530500Y-45113683D01*
X53155720Y-45113683D01*
X53155720Y-44458000D01*
X53131078Y-44334118D01*
X53060905Y-44229095D01*
X52955882Y-44158922D01*
X52832000Y-44134280D01*
X51308000Y-44134280D01*
X51184118Y-44158922D01*
X51079095Y-44229095D01*
X51008922Y-44334118D01*
X50984280Y-44458000D01*
X49049152Y-44458000D01*
X49038276Y-44441724D01*
X48681199Y-44203134D01*
X48260000Y-44119352D01*
X47838800Y-44203134D01*
X47481724Y-44441724D01*
X47243134Y-44798801D01*
X47180500Y-45113683D01*
X46799500Y-45113683D01*
X46799500Y-45113682D01*
X46736866Y-44798800D01*
X46498276Y-44441724D01*
X46141199Y-44203134D01*
X45720000Y-44119352D01*
X45298800Y-44203134D01*
X44941724Y-44441724D01*
X44703134Y-44798801D01*
X44640500Y-45113683D01*
X44259500Y-45113683D01*
X44259500Y-45113682D01*
X44196866Y-44798800D01*
X43958276Y-44441724D01*
X43601199Y-44203134D01*
X43180000Y-44119352D01*
X42758800Y-44203134D01*
X42401724Y-44441724D01*
X42163134Y-44798801D01*
X42100500Y-45113683D01*
X41719500Y-45113683D01*
X41719500Y-45113682D01*
X41656866Y-44798800D01*
X41418276Y-44441724D01*
X41061199Y-44203134D01*
X40640000Y-44119352D01*
X40218800Y-44203134D01*
X39861724Y-44441724D01*
X39623134Y-44798801D01*
X39560500Y-45113683D01*
X39185720Y-45113683D01*
X39185720Y-44458000D01*
X39161078Y-44334118D01*
X39090905Y-44229095D01*
X38985882Y-44158922D01*
X38862000Y-44134280D01*
X37338000Y-44134280D01*
X37214118Y-44158922D01*
X37109095Y-44229095D01*
X37038922Y-44334118D01*
X37014280Y-44458000D01*
X25817500Y-44458000D01*
X25817500Y-36056060D01*
X32321500Y-36056060D01*
X32321500Y-36333940D01*
X32427841Y-36590668D01*
X32624332Y-36787159D01*
X32881060Y-36893500D01*
X33158940Y-36893500D01*
X33312241Y-36830000D01*
X37807759Y-36830000D01*
X37704332Y-36872841D01*
X37507841Y-37069332D01*
X37401500Y-37326060D01*
X37401500Y-37603940D01*
X37507841Y-37860668D01*
X37704332Y-38057159D01*
X37807759Y-38100000D01*
X34582241Y-38100000D01*
X34428940Y-38036500D01*
X34151060Y-38036500D01*
X33894332Y-38142841D01*
X33697841Y-38339332D01*
X33591500Y-38596060D01*
X33591500Y-38873940D01*
X33697841Y-39130668D01*
X33894332Y-39327159D01*
X34151060Y-39433500D01*
X34428940Y-39433500D01*
X34582241Y-39370000D01*
X35267759Y-39370000D01*
X35164332Y-39412841D01*
X34967841Y-39609332D01*
X34861500Y-39866060D01*
X34861500Y-40143940D01*
X34967841Y-40400668D01*
X35164332Y-40597159D01*
X35421060Y-40703500D01*
X35698940Y-40703500D01*
X35852241Y-40640000D01*
X40347759Y-40640000D01*
X40501060Y-40703500D01*
X40778940Y-40703500D01*
X40932241Y-40640000D01*
X45427759Y-40640000D01*
X45324332Y-40682841D01*
X45127841Y-40879332D01*
X45021500Y-41136060D01*
X45021500Y-41413940D01*
X45127841Y-41670668D01*
X45324332Y-41867159D01*
X45581060Y-41973500D01*
X45858940Y-41973500D01*
X46012241Y-41910000D01*
X47967759Y-41910000D01*
X47864332Y-41952841D01*
X47667841Y-42149332D01*
X47561500Y-42406060D01*
X47561500Y-42683940D01*
X47667841Y-42940668D01*
X47864332Y-43137159D01*
X48121060Y-43243500D01*
X48398940Y-43243500D01*
X48552241Y-43180000D01*
X61937759Y-43180000D01*
X62091060Y-43243500D01*
X62368940Y-43243500D01*
X62522241Y-43180000D01*
X75907759Y-43180000D01*
X76061060Y-43243500D01*
X76338940Y-43243500D01*
X76492241Y-43180000D01*
X89877759Y-43180000D01*
X90031060Y-43243500D01*
X90308940Y-43243500D01*
X90565668Y-43137159D01*
X90762159Y-42940668D01*
X90868500Y-42683940D01*
X90868500Y-42406060D01*
X90762159Y-42149332D01*
X90565668Y-41952841D01*
X90308940Y-41846500D01*
X90031060Y-41846500D01*
X89877759Y-41910000D01*
X87922241Y-41910000D01*
X88025668Y-41867159D01*
X88222159Y-41670668D01*
X88328500Y-41413940D01*
X88328500Y-41136060D01*
X88222159Y-40879332D01*
X88025668Y-40682841D01*
X87768940Y-40576500D01*
X87491060Y-40576500D01*
X87337759Y-40640000D01*
X82842241Y-40640000D01*
X82945668Y-40597159D01*
X83142159Y-40400668D01*
X83248500Y-40143940D01*
X83248500Y-39866060D01*
X83142159Y-39609332D01*
X82945668Y-39412841D01*
X82688940Y-39306500D01*
X82411060Y-39306500D01*
X82257759Y-39370000D01*
X80302241Y-39370000D01*
X80405668Y-39327159D01*
X80602159Y-39130668D01*
X80708500Y-38873940D01*
X80708500Y-38596060D01*
X80602159Y-38339332D01*
X80405668Y-38142841D01*
X80302241Y-38100000D01*
X96227759Y-38100000D01*
X96381060Y-38163500D01*
X96658940Y-38163500D01*
X96915668Y-38057159D01*
X97112159Y-37860668D01*
X97218500Y-37603940D01*
X97218500Y-37326060D01*
X97112159Y-37069332D01*
X96915668Y-36872841D01*
X96658940Y-36766500D01*
X96381060Y-36766500D01*
X96227759Y-36830000D01*
X82842241Y-36830000D01*
X82945668Y-36787159D01*
X83142159Y-36590668D01*
X83248500Y-36333940D01*
X83248500Y-36056060D01*
X83142159Y-35799332D01*
X82945668Y-35602841D01*
X82842241Y-35560000D01*
X87337759Y-35560000D01*
X87491060Y-35623500D01*
X87768940Y-35623500D01*
X87922241Y-35560000D01*
X94957759Y-35560000D01*
X95111060Y-35623500D01*
X95388940Y-35623500D01*
X95645668Y-35517159D01*
X95842159Y-35320668D01*
X95948500Y-35063940D01*
X95948500Y-34786060D01*
X95842159Y-34529332D01*
X95645668Y-34332841D01*
X95388940Y-34226500D01*
X95111060Y-34226500D01*
X94957759Y-34290000D01*
X94272241Y-34290000D01*
X94375668Y-34247159D01*
X94572159Y-34050668D01*
X94678500Y-33793940D01*
X94678500Y-33524541D01*
X95820326Y-33997500D01*
X97219674Y-33997500D01*
X98512504Y-33461993D01*
X99501993Y-32472504D01*
X100037500Y-31179674D01*
X100037500Y-29780326D01*
X99501993Y-28487496D01*
X98512504Y-27498007D01*
X97219674Y-26962500D01*
X95820326Y-26962500D01*
X94527496Y-27498007D01*
X93538007Y-28487496D01*
X93002500Y-29780326D01*
X93002500Y-31179674D01*
X93538007Y-32472504D01*
X94022003Y-32956500D01*
X93841060Y-32956500D01*
X93687759Y-33020000D01*
X90462241Y-33020000D01*
X90308940Y-32956500D01*
X90031060Y-32956500D01*
X89877759Y-33020000D01*
X76492241Y-33020000D01*
X76338940Y-32956500D01*
X76061060Y-32956500D01*
X75907759Y-33020000D01*
X62522241Y-33020000D01*
X62368940Y-32956500D01*
X62091060Y-32956500D01*
X61937759Y-33020000D01*
X48552241Y-33020000D01*
X48398940Y-32956500D01*
X48121060Y-32956500D01*
X47864332Y-33062841D01*
X47667841Y-33259332D01*
X47561500Y-33516060D01*
X47561500Y-33793940D01*
X47667841Y-34050668D01*
X47864332Y-34247159D01*
X47967759Y-34290000D01*
X46012241Y-34290000D01*
X45858940Y-34226500D01*
X45581060Y-34226500D01*
X45324332Y-34332841D01*
X45127841Y-34529332D01*
X45021500Y-34786060D01*
X45021500Y-35063940D01*
X45127841Y-35320668D01*
X45324332Y-35517159D01*
X45427759Y-35560000D01*
X40932241Y-35560000D01*
X40778940Y-35496500D01*
X40501060Y-35496500D01*
X40347759Y-35560000D01*
X33312241Y-35560000D01*
X33158940Y-35496500D01*
X32881060Y-35496500D01*
X32624332Y-35602841D01*
X32427841Y-35799332D01*
X32321500Y-36056060D01*
X25817500Y-36056060D01*
X25817500Y-30498591D01*
X25881602Y-29780326D01*
X26962500Y-29780326D01*
X26962500Y-31179674D01*
X27498007Y-32472504D01*
X28487496Y-33461993D01*
X29780326Y-33997500D01*
X31179674Y-33997500D01*
X32472504Y-33461993D01*
X33461993Y-32472504D01*
X33997500Y-31179674D01*
X33997500Y-29873683D01*
X37020500Y-29873683D01*
X37020500Y-31086318D01*
X37083135Y-31401200D01*
X37321725Y-31758276D01*
X37678801Y-31996866D01*
X38100000Y-32080648D01*
X38521200Y-31996866D01*
X38878276Y-31758276D01*
X39116866Y-31401200D01*
X39179500Y-31086318D01*
X39179500Y-29873683D01*
X39560500Y-29873683D01*
X39560500Y-31086318D01*
X39623135Y-31401200D01*
X39861725Y-31758276D01*
X40218801Y-31996866D01*
X40640000Y-32080648D01*
X41061200Y-31996866D01*
X41418276Y-31758276D01*
X41656866Y-31401200D01*
X41719500Y-31086318D01*
X41719500Y-29873683D01*
X42100500Y-29873683D01*
X42100500Y-31086318D01*
X42163135Y-31401200D01*
X42401725Y-31758276D01*
X42758801Y-31996866D01*
X43180000Y-32080648D01*
X43601200Y-31996866D01*
X43958276Y-31758276D01*
X44196866Y-31401200D01*
X44259500Y-31086318D01*
X44259500Y-29873683D01*
X44640500Y-29873683D01*
X44640500Y-31086318D01*
X44703135Y-31401200D01*
X44941725Y-31758276D01*
X45298801Y-31996866D01*
X45720000Y-32080648D01*
X46141200Y-31996866D01*
X46498276Y-31758276D01*
X46736866Y-31401200D01*
X46799500Y-31086318D01*
X46799500Y-29873683D01*
X47180500Y-29873683D01*
X47180500Y-31086318D01*
X47243135Y-31401200D01*
X47481725Y-31758276D01*
X47838801Y-31996866D01*
X48260000Y-32080648D01*
X48681200Y-31996866D01*
X49038276Y-31758276D01*
X49276866Y-31401200D01*
X49339500Y-31086318D01*
X49339500Y-29873683D01*
X50990500Y-29873683D01*
X50990500Y-31086318D01*
X51053135Y-31401200D01*
X51291725Y-31758276D01*
X51648801Y-31996866D01*
X52070000Y-32080648D01*
X52491200Y-31996866D01*
X52848276Y-31758276D01*
X53086866Y-31401200D01*
X53149500Y-31086318D01*
X53149500Y-29873683D01*
X53530500Y-29873683D01*
X53530500Y-31086318D01*
X53593135Y-31401200D01*
X53831725Y-31758276D01*
X54188801Y-31996866D01*
X54610000Y-32080648D01*
X55031200Y-31996866D01*
X55388276Y-31758276D01*
X55626866Y-31401200D01*
X55689500Y-31086318D01*
X55689500Y-29873683D01*
X56070500Y-29873683D01*
X56070500Y-31086318D01*
X56133135Y-31401200D01*
X56371725Y-31758276D01*
X56728801Y-31996866D01*
X57150000Y-32080648D01*
X57571200Y-31996866D01*
X57928276Y-31758276D01*
X58166866Y-31401200D01*
X58229500Y-31086318D01*
X58229500Y-29873683D01*
X58610500Y-29873683D01*
X58610500Y-31086318D01*
X58673135Y-31401200D01*
X58911725Y-31758276D01*
X59268801Y-31996866D01*
X59690000Y-32080648D01*
X60111200Y-31996866D01*
X60468276Y-31758276D01*
X60706866Y-31401200D01*
X60769500Y-31086318D01*
X60769500Y-29873683D01*
X61150500Y-29873683D01*
X61150500Y-31086318D01*
X61213135Y-31401200D01*
X61451725Y-31758276D01*
X61808801Y-31996866D01*
X62230000Y-32080648D01*
X62651200Y-31996866D01*
X63008276Y-31758276D01*
X63246866Y-31401200D01*
X63309500Y-31086318D01*
X63309500Y-29873683D01*
X64960500Y-29873683D01*
X64960500Y-31086318D01*
X65023135Y-31401200D01*
X65261725Y-31758276D01*
X65618801Y-31996866D01*
X66040000Y-32080648D01*
X66461200Y-31996866D01*
X66818276Y-31758276D01*
X67056866Y-31401200D01*
X67119500Y-31086318D01*
X67119500Y-29873683D01*
X67500500Y-29873683D01*
X67500500Y-31086318D01*
X67563135Y-31401200D01*
X67801725Y-31758276D01*
X68158801Y-31996866D01*
X68580000Y-32080648D01*
X69001200Y-31996866D01*
X69358276Y-31758276D01*
X69596866Y-31401200D01*
X69659500Y-31086318D01*
X69659500Y-29873683D01*
X70040500Y-29873683D01*
X70040500Y-31086318D01*
X70103135Y-31401200D01*
X70341725Y-31758276D01*
X70698801Y-31996866D01*
X71120000Y-32080648D01*
X71541200Y-31996866D01*
X71898276Y-31758276D01*
X72136866Y-31401200D01*
X72199500Y-31086318D01*
X72199500Y-29873683D01*
X72580500Y-29873683D01*
X72580500Y-31086318D01*
X72643135Y-31401200D01*
X72881725Y-31758276D01*
X73238801Y-31996866D01*
X73660000Y-32080648D01*
X74081200Y-31996866D01*
X74438276Y-31758276D01*
X74676866Y-31401200D01*
X74739500Y-31086318D01*
X74739500Y-29873683D01*
X75120500Y-29873683D01*
X75120500Y-31086318D01*
X75183135Y-31401200D01*
X75421725Y-31758276D01*
X75778801Y-31996866D01*
X76200000Y-32080648D01*
X76621200Y-31996866D01*
X76978276Y-31758276D01*
X77216866Y-31401200D01*
X77279500Y-31086318D01*
X77279500Y-29873683D01*
X78930500Y-29873683D01*
X78930500Y-31086318D01*
X78993135Y-31401200D01*
X79231725Y-31758276D01*
X79588801Y-31996866D01*
X80010000Y-32080648D01*
X80431200Y-31996866D01*
X80788276Y-31758276D01*
X81026866Y-31401200D01*
X81089500Y-31086318D01*
X81089500Y-29873683D01*
X81470500Y-29873683D01*
X81470500Y-31086318D01*
X81533135Y-31401200D01*
X81771725Y-31758276D01*
X82128801Y-31996866D01*
X82550000Y-32080648D01*
X82971200Y-31996866D01*
X83328276Y-31758276D01*
X83566866Y-31401200D01*
X83629500Y-31086318D01*
X83629500Y-29873683D01*
X84010500Y-29873683D01*
X84010500Y-31086318D01*
X84073135Y-31401200D01*
X84311725Y-31758276D01*
X84668801Y-31996866D01*
X85090000Y-32080648D01*
X85511200Y-31996866D01*
X85868276Y-31758276D01*
X86106866Y-31401200D01*
X86169500Y-31086318D01*
X86169500Y-29873683D01*
X86550500Y-29873683D01*
X86550500Y-31086318D01*
X86613135Y-31401200D01*
X86851725Y-31758276D01*
X87208801Y-31996866D01*
X87630000Y-32080648D01*
X88051200Y-31996866D01*
X88408276Y-31758276D01*
X88646866Y-31401200D01*
X88709500Y-31086318D01*
X88709500Y-29873683D01*
X89090500Y-29873683D01*
X89090500Y-31086318D01*
X89153135Y-31401200D01*
X89391725Y-31758276D01*
X89748801Y-31996866D01*
X90170000Y-32080648D01*
X90591200Y-31996866D01*
X90948276Y-31758276D01*
X91186866Y-31401200D01*
X91249500Y-31086318D01*
X91249500Y-29873682D01*
X91186866Y-29558800D01*
X90948276Y-29201724D01*
X90591199Y-28963134D01*
X90170000Y-28879352D01*
X89748800Y-28963134D01*
X89391724Y-29201724D01*
X89153134Y-29558801D01*
X89090500Y-29873683D01*
X88709500Y-29873683D01*
X88709500Y-29873682D01*
X88646866Y-29558800D01*
X88408276Y-29201724D01*
X88051199Y-28963134D01*
X87630000Y-28879352D01*
X87208800Y-28963134D01*
X86851724Y-29201724D01*
X86613134Y-29558801D01*
X86550500Y-29873683D01*
X86169500Y-29873683D01*
X86169500Y-29873682D01*
X86106866Y-29558800D01*
X85868276Y-29201724D01*
X85511199Y-28963134D01*
X85090000Y-28879352D01*
X84668800Y-28963134D01*
X84311724Y-29201724D01*
X84073134Y-29558801D01*
X84010500Y-29873683D01*
X83629500Y-29873683D01*
X83629500Y-29873682D01*
X83566866Y-29558800D01*
X83328276Y-29201724D01*
X82971199Y-28963134D01*
X82550000Y-28879352D01*
X82128800Y-28963134D01*
X81771724Y-29201724D01*
X81533134Y-29558801D01*
X81470500Y-29873683D01*
X81089500Y-29873683D01*
X81089500Y-29873682D01*
X81026866Y-29558800D01*
X80788276Y-29201724D01*
X80431199Y-28963134D01*
X80010000Y-28879352D01*
X79588800Y-28963134D01*
X79231724Y-29201724D01*
X78993134Y-29558801D01*
X78930500Y-29873683D01*
X77279500Y-29873683D01*
X77279500Y-29873682D01*
X77216866Y-29558800D01*
X76978276Y-29201724D01*
X76621199Y-28963134D01*
X76200000Y-28879352D01*
X75778800Y-28963134D01*
X75421724Y-29201724D01*
X75183134Y-29558801D01*
X75120500Y-29873683D01*
X74739500Y-29873683D01*
X74739500Y-29873682D01*
X74676866Y-29558800D01*
X74438276Y-29201724D01*
X74081199Y-28963134D01*
X73660000Y-28879352D01*
X73238800Y-28963134D01*
X72881724Y-29201724D01*
X72643134Y-29558801D01*
X72580500Y-29873683D01*
X72199500Y-29873683D01*
X72199500Y-29873682D01*
X72136866Y-29558800D01*
X71898276Y-29201724D01*
X71541199Y-28963134D01*
X71120000Y-28879352D01*
X70698800Y-28963134D01*
X70341724Y-29201724D01*
X70103134Y-29558801D01*
X70040500Y-29873683D01*
X69659500Y-29873683D01*
X69659500Y-29873682D01*
X69596866Y-29558800D01*
X69358276Y-29201724D01*
X69001199Y-28963134D01*
X68580000Y-28879352D01*
X68158800Y-28963134D01*
X67801724Y-29201724D01*
X67563134Y-29558801D01*
X67500500Y-29873683D01*
X67119500Y-29873683D01*
X67119500Y-29873682D01*
X67056866Y-29558800D01*
X66818276Y-29201724D01*
X66461199Y-28963134D01*
X66040000Y-28879352D01*
X65618800Y-28963134D01*
X65261724Y-29201724D01*
X65023134Y-29558801D01*
X64960500Y-29873683D01*
X63309500Y-29873683D01*
X63309500Y-29873682D01*
X63246866Y-29558800D01*
X63008276Y-29201724D01*
X62651199Y-28963134D01*
X62230000Y-28879352D01*
X61808800Y-28963134D01*
X61451724Y-29201724D01*
X61213134Y-29558801D01*
X61150500Y-29873683D01*
X60769500Y-29873683D01*
X60769500Y-29873682D01*
X60706866Y-29558800D01*
X60468276Y-29201724D01*
X60111199Y-28963134D01*
X59690000Y-28879352D01*
X59268800Y-28963134D01*
X58911724Y-29201724D01*
X58673134Y-29558801D01*
X58610500Y-29873683D01*
X58229500Y-29873683D01*
X58229500Y-29873682D01*
X58166866Y-29558800D01*
X57928276Y-29201724D01*
X57571199Y-28963134D01*
X57150000Y-28879352D01*
X56728800Y-28963134D01*
X56371724Y-29201724D01*
X56133134Y-29558801D01*
X56070500Y-29873683D01*
X55689500Y-29873683D01*
X55689500Y-29873682D01*
X55626866Y-29558800D01*
X55388276Y-29201724D01*
X55031199Y-28963134D01*
X54610000Y-28879352D01*
X54188800Y-28963134D01*
X53831724Y-29201724D01*
X53593134Y-29558801D01*
X53530500Y-29873683D01*
X53149500Y-29873683D01*
X53149500Y-29873682D01*
X53086866Y-29558800D01*
X52848276Y-29201724D01*
X52491199Y-28963134D01*
X52070000Y-28879352D01*
X51648800Y-28963134D01*
X51291724Y-29201724D01*
X51053134Y-29558801D01*
X50990500Y-29873683D01*
X49339500Y-29873683D01*
X49339500Y-29873682D01*
X49276866Y-29558800D01*
X49038276Y-29201724D01*
X48681199Y-28963134D01*
X48260000Y-28879352D01*
X47838800Y-28963134D01*
X47481724Y-29201724D01*
X47243134Y-29558801D01*
X47180500Y-29873683D01*
X46799500Y-29873683D01*
X46799500Y-29873682D01*
X46736866Y-29558800D01*
X46498276Y-29201724D01*
X46141199Y-28963134D01*
X45720000Y-28879352D01*
X45298800Y-28963134D01*
X44941724Y-29201724D01*
X44703134Y-29558801D01*
X44640500Y-29873683D01*
X44259500Y-29873683D01*
X44259500Y-29873682D01*
X44196866Y-29558800D01*
X43958276Y-29201724D01*
X43601199Y-28963134D01*
X43180000Y-28879352D01*
X42758800Y-28963134D01*
X42401724Y-29201724D01*
X42163134Y-29558801D01*
X42100500Y-29873683D01*
X41719500Y-29873683D01*
X41719500Y-29873682D01*
X41656866Y-29558800D01*
X41418276Y-29201724D01*
X41061199Y-28963134D01*
X40640000Y-28879352D01*
X40218800Y-28963134D01*
X39861724Y-29201724D01*
X39623134Y-29558801D01*
X39560500Y-29873683D01*
X39179500Y-29873683D01*
X39179500Y-29873682D01*
X39116866Y-29558800D01*
X38878276Y-29201724D01*
X38521199Y-28963134D01*
X38100000Y-28879352D01*
X37678800Y-28963134D01*
X37321724Y-29201724D01*
X37083134Y-29558801D01*
X37020500Y-29873683D01*
X33997500Y-29873683D01*
X33997500Y-29780326D01*
X33461993Y-28487496D01*
X32472504Y-27498007D01*
X31179674Y-26962500D01*
X29780326Y-26962500D01*
X28487496Y-27498007D01*
X27498007Y-28487496D01*
X26962500Y-29780326D01*
X25881602Y-29780326D01*
X25892820Y-29654639D01*
X26111478Y-28855360D01*
X26468219Y-28107439D01*
X26951767Y-27434510D01*
X27546836Y-26857848D01*
X28234622Y-26395674D01*
X28993378Y-26062603D01*
X29802343Y-25868389D01*
X30495312Y-25817500D01*
X96501409Y-25817500D01*
X97345361Y-25892820D01*
X97345361Y-25892820D01*
G37*
X97345361Y-25892820D02*
X98144640Y-26111478D01*
X98892561Y-26468219D01*
X99565490Y-26951767D01*
X100142152Y-27546836D01*
X100604326Y-28234622D01*
X100937397Y-28993378D01*
X101131611Y-29802343D01*
X101182500Y-30495312D01*
X101182501Y-71101396D01*
X101107179Y-71945362D01*
X100888522Y-72744640D01*
X100531781Y-73492561D01*
X100048235Y-74165487D01*
X99453164Y-74742152D01*
X98765376Y-75204327D01*
X98006617Y-75537399D01*
X97197658Y-75731611D01*
X96504688Y-75782500D01*
X30498592Y-75782500D01*
X29654638Y-75707179D01*
X28855360Y-75488522D01*
X28107439Y-75131781D01*
X27434513Y-74648235D01*
X26857848Y-74053164D01*
X26395673Y-73365376D01*
X26062601Y-72606617D01*
X25868389Y-71797658D01*
X25817500Y-71104688D01*
X25817500Y-70420326D01*
X26962500Y-70420326D01*
X26962500Y-71819674D01*
X27498007Y-73112504D01*
X28487496Y-74101993D01*
X29780326Y-74637500D01*
X31179674Y-74637500D01*
X32341974Y-74156060D01*
X38036500Y-74156060D01*
X38036500Y-74433940D01*
X38142841Y-74690668D01*
X38339332Y-74887159D01*
X38596060Y-74993500D01*
X38873940Y-74993500D01*
X39027241Y-74930000D01*
X67017759Y-74930000D01*
X67171060Y-74993500D01*
X67448940Y-74993500D01*
X67705668Y-74887159D01*
X67902159Y-74690668D01*
X68008500Y-74433940D01*
X68008500Y-74156060D01*
X69151500Y-74156060D01*
X69151500Y-74433940D01*
X69257841Y-74690668D01*
X69454332Y-74887159D01*
X69711060Y-74993500D01*
X69988940Y-74993500D01*
X70142241Y-74930000D01*
X91147759Y-74930000D01*
X91301060Y-74993500D01*
X91578940Y-74993500D01*
X91835668Y-74887159D01*
X92032159Y-74690668D01*
X92138500Y-74433940D01*
X92138500Y-74156060D01*
X92032159Y-73899332D01*
X91835668Y-73702841D01*
X91578940Y-73596500D01*
X91301060Y-73596500D01*
X91147759Y-73660000D01*
X90462267Y-73660000D01*
X90565694Y-73617159D01*
X90762185Y-73420668D01*
X90868526Y-73163940D01*
X90868526Y-72886060D01*
X90762185Y-72629332D01*
X90565694Y-72432841D01*
X90308966Y-72326500D01*
X90031086Y-72326500D01*
X89877785Y-72390000D01*
X72682287Y-72390000D01*
X72528986Y-72326500D01*
X72251106Y-72326500D01*
X71994378Y-72432841D01*
X71797887Y-72629332D01*
X71691546Y-72886060D01*
X71691546Y-73163940D01*
X71797887Y-73420668D01*
X71994378Y-73617159D01*
X72097805Y-73660000D01*
X70142241Y-73660000D01*
X69988940Y-73596500D01*
X69711060Y-73596500D01*
X69454332Y-73702841D01*
X69257841Y-73899332D01*
X69151500Y-74156060D01*
X68008500Y-74156060D01*
X67902159Y-73899332D01*
X67705668Y-73702841D01*
X67448940Y-73596500D01*
X67171060Y-73596500D01*
X67017759Y-73660000D01*
X65062241Y-73660000D01*
X65165668Y-73617159D01*
X65362159Y-73420668D01*
X65468500Y-73163940D01*
X65468500Y-72886060D01*
X65362159Y-72629332D01*
X65165668Y-72432841D01*
X64908940Y-72326500D01*
X64631060Y-72326500D01*
X64477759Y-72390000D01*
X57651272Y-72390000D01*
X57794225Y-72330797D01*
X58208538Y-71992096D01*
X58461698Y-71520627D01*
X58365346Y-71310500D01*
X57340500Y-71310500D01*
X57340500Y-71330500D01*
X56959500Y-71330500D01*
X56959500Y-71310500D01*
X55934654Y-71310500D01*
X55838302Y-71520627D01*
X56091462Y-71992096D01*
X56505775Y-72330797D01*
X56648728Y-72390000D01*
X40297241Y-72390000D01*
X40143940Y-72326500D01*
X39866060Y-72326500D01*
X39609332Y-72432841D01*
X39412841Y-72629332D01*
X39306500Y-72886060D01*
X39306500Y-73163940D01*
X39412841Y-73420668D01*
X39609332Y-73617159D01*
X39712759Y-73660000D01*
X39027241Y-73660000D01*
X38873940Y-73596500D01*
X38596060Y-73596500D01*
X38339332Y-73702841D01*
X38142841Y-73899332D01*
X38036500Y-74156060D01*
X32341974Y-74156060D01*
X32472504Y-74101993D01*
X33461993Y-73112504D01*
X33997500Y-71819674D01*
X33997500Y-70420326D01*
X33955944Y-70320000D01*
X48406280Y-70320000D01*
X48406280Y-71920000D01*
X48430922Y-72043882D01*
X48501095Y-72148905D01*
X48606118Y-72219078D01*
X48730000Y-72243720D01*
X50330000Y-72243720D01*
X50453882Y-72219078D01*
X50558905Y-72148905D01*
X50629078Y-72043882D01*
X50653720Y-71920000D01*
X50653720Y-71120000D01*
X50930607Y-71120000D01*
X51017338Y-71556027D01*
X51264327Y-71925673D01*
X51633973Y-72172662D01*
X51959936Y-72237500D01*
X52180064Y-72237500D01*
X52506027Y-72172662D01*
X52875673Y-71925673D01*
X53122662Y-71556027D01*
X53209393Y-71120000D01*
X53470607Y-71120000D01*
X53557338Y-71556027D01*
X53804327Y-71925673D01*
X54173973Y-72172662D01*
X54499936Y-72237500D01*
X54720064Y-72237500D01*
X55046027Y-72172662D01*
X55415673Y-71925673D01*
X55662662Y-71556027D01*
X55749393Y-71120000D01*
X58550607Y-71120000D01*
X58637338Y-71556027D01*
X58884327Y-71925673D01*
X59253973Y-72172662D01*
X59579936Y-72237500D01*
X59800064Y-72237500D01*
X60126027Y-72172662D01*
X60495673Y-71925673D01*
X60742662Y-71556027D01*
X60829393Y-71120000D01*
X61090607Y-71120000D01*
X61177338Y-71556027D01*
X61424327Y-71925673D01*
X61793973Y-72172662D01*
X62119936Y-72237500D01*
X62340064Y-72237500D01*
X62666027Y-72172662D01*
X63035673Y-71925673D01*
X63282662Y-71556027D01*
X63369393Y-71120000D01*
X63630607Y-71120000D01*
X63717338Y-71556027D01*
X63964327Y-71925673D01*
X64333973Y-72172662D01*
X64659936Y-72237500D01*
X64880064Y-72237500D01*
X65206027Y-72172662D01*
X65575673Y-71925673D01*
X65822662Y-71556027D01*
X65909393Y-71120000D01*
X66170607Y-71120000D01*
X66257338Y-71556027D01*
X66504327Y-71925673D01*
X66873973Y-72172662D01*
X67199936Y-72237500D01*
X67420064Y-72237500D01*
X67746027Y-72172662D01*
X68115673Y-71925673D01*
X68362662Y-71556027D01*
X68449393Y-71120000D01*
X68710607Y-71120000D01*
X68797338Y-71556027D01*
X69044327Y-71925673D01*
X69413973Y-72172662D01*
X69739936Y-72237500D01*
X69960064Y-72237500D01*
X70286027Y-72172662D01*
X70655673Y-71925673D01*
X70902662Y-71556027D01*
X70989393Y-71120000D01*
X71250607Y-71120000D01*
X71337338Y-71556027D01*
X71584327Y-71925673D01*
X71953973Y-72172662D01*
X72279936Y-72237500D01*
X72500064Y-72237500D01*
X72826027Y-72172662D01*
X73195673Y-71925673D01*
X73442662Y-71556027D01*
X73529393Y-71120000D01*
X73790607Y-71120000D01*
X73877338Y-71556027D01*
X74124327Y-71925673D01*
X74493973Y-72172662D01*
X74819936Y-72237500D01*
X75040064Y-72237500D01*
X75366027Y-72172662D01*
X75735673Y-71925673D01*
X75982662Y-71556027D01*
X76069393Y-71120000D01*
X76330607Y-71120000D01*
X76417338Y-71556027D01*
X76664327Y-71925673D01*
X77033973Y-72172662D01*
X77359936Y-72237500D01*
X77580064Y-72237500D01*
X77906027Y-72172662D01*
X78275673Y-71925673D01*
X78522662Y-71556027D01*
X78609393Y-71120000D01*
X78870607Y-71120000D01*
X78957338Y-71556027D01*
X79204327Y-71925673D01*
X79573973Y-72172662D01*
X79899936Y-72237500D01*
X80120064Y-72237500D01*
X80446027Y-72172662D01*
X80815673Y-71925673D01*
X81062662Y-71556027D01*
X81149393Y-71120000D01*
X81410607Y-71120000D01*
X81497338Y-71556027D01*
X81744327Y-71925673D01*
X82113973Y-72172662D01*
X82439936Y-72237500D01*
X82660064Y-72237500D01*
X82986027Y-72172662D01*
X83355673Y-71925673D01*
X83602662Y-71556027D01*
X83689393Y-71120000D01*
X83950607Y-71120000D01*
X84037338Y-71556027D01*
X84284327Y-71925673D01*
X84653973Y-72172662D01*
X84979936Y-72237500D01*
X85200064Y-72237500D01*
X85526027Y-72172662D01*
X85895673Y-71925673D01*
X86009713Y-71755000D01*
X87337759Y-71755000D01*
X87491060Y-71818500D01*
X87768940Y-71818500D01*
X88025668Y-71712159D01*
X88222159Y-71515668D01*
X88328500Y-71258940D01*
X88328500Y-70981060D01*
X88222159Y-70724332D01*
X88025668Y-70527841D01*
X87768940Y-70421500D01*
X87491060Y-70421500D01*
X87337759Y-70485000D01*
X86009713Y-70485000D01*
X85966500Y-70420326D01*
X93002500Y-70420326D01*
X93002500Y-71819674D01*
X93538007Y-73112504D01*
X94527496Y-74101993D01*
X95820326Y-74637500D01*
X97219674Y-74637500D01*
X98512504Y-74101993D01*
X99501993Y-73112504D01*
X100037500Y-71819674D01*
X100037500Y-70420326D01*
X99501993Y-69127496D01*
X98512504Y-68138007D01*
X97219674Y-67602500D01*
X95820326Y-67602500D01*
X94527496Y-68138007D01*
X93538007Y-69127496D01*
X93002500Y-70420326D01*
X85966500Y-70420326D01*
X85895673Y-70314327D01*
X85526027Y-70067338D01*
X85200064Y-70002500D01*
X84979936Y-70002500D01*
X84653973Y-70067338D01*
X84284327Y-70314327D01*
X84037338Y-70683973D01*
X83950607Y-71120000D01*
X83689393Y-71120000D01*
X83602662Y-70683973D01*
X83355673Y-70314327D01*
X82986027Y-70067338D01*
X82660064Y-70002500D01*
X82439936Y-70002500D01*
X82113973Y-70067338D01*
X81744327Y-70314327D01*
X81497338Y-70683973D01*
X81410607Y-71120000D01*
X81149393Y-71120000D01*
X81062662Y-70683973D01*
X80815673Y-70314327D01*
X80446027Y-70067338D01*
X80120064Y-70002500D01*
X79899936Y-70002500D01*
X79573973Y-70067338D01*
X79204327Y-70314327D01*
X78957338Y-70683973D01*
X78870607Y-71120000D01*
X78609393Y-71120000D01*
X78522662Y-70683973D01*
X78275673Y-70314327D01*
X77906027Y-70067338D01*
X77580064Y-70002500D01*
X77359936Y-70002500D01*
X77033973Y-70067338D01*
X76664327Y-70314327D01*
X76417338Y-70683973D01*
X76330607Y-71120000D01*
X76069393Y-71120000D01*
X75982662Y-70683973D01*
X75735673Y-70314327D01*
X75366027Y-70067338D01*
X75040064Y-70002500D01*
X74819936Y-70002500D01*
X74493973Y-70067338D01*
X74124327Y-70314327D01*
X73877338Y-70683973D01*
X73790607Y-71120000D01*
X73529393Y-71120000D01*
X73442662Y-70683973D01*
X73195673Y-70314327D01*
X72826027Y-70067338D01*
X72500064Y-70002500D01*
X72279936Y-70002500D01*
X71953973Y-70067338D01*
X71584327Y-70314327D01*
X71337338Y-70683973D01*
X71250607Y-71120000D01*
X70989393Y-71120000D01*
X70902662Y-70683973D01*
X70655673Y-70314327D01*
X70286027Y-70067338D01*
X69960064Y-70002500D01*
X69739936Y-70002500D01*
X69413973Y-70067338D01*
X69044327Y-70314327D01*
X68797338Y-70683973D01*
X68710607Y-71120000D01*
X68449393Y-71120000D01*
X68362662Y-70683973D01*
X68115673Y-70314327D01*
X67746027Y-70067338D01*
X67420064Y-70002500D01*
X67199936Y-70002500D01*
X66873973Y-70067338D01*
X66504327Y-70314327D01*
X66257338Y-70683973D01*
X66170607Y-71120000D01*
X65909393Y-71120000D01*
X65822662Y-70683973D01*
X65575673Y-70314327D01*
X65206027Y-70067338D01*
X64880064Y-70002500D01*
X64659936Y-70002500D01*
X64333973Y-70067338D01*
X63964327Y-70314327D01*
X63717338Y-70683973D01*
X63630607Y-71120000D01*
X63369393Y-71120000D01*
X63282662Y-70683973D01*
X63035673Y-70314327D01*
X62666027Y-70067338D01*
X62340064Y-70002500D01*
X62119936Y-70002500D01*
X61793973Y-70067338D01*
X61424327Y-70314327D01*
X61177338Y-70683973D01*
X61090607Y-71120000D01*
X60829393Y-71120000D01*
X60742662Y-70683973D01*
X60495673Y-70314327D01*
X60126027Y-70067338D01*
X59800064Y-70002500D01*
X59579936Y-70002500D01*
X59253973Y-70067338D01*
X58884327Y-70314327D01*
X58637338Y-70683973D01*
X58550607Y-71120000D01*
X55749393Y-71120000D01*
X55669704Y-70719373D01*
X55838302Y-70719373D01*
X55934654Y-70929500D01*
X56959500Y-70929500D01*
X56959500Y-69906233D01*
X57340500Y-69906233D01*
X57340500Y-70929500D01*
X58365346Y-70929500D01*
X58461698Y-70719373D01*
X58208538Y-70247904D01*
X57794225Y-69909203D01*
X57550625Y-69808318D01*
X57340500Y-69906233D01*
X56959500Y-69906233D01*
X56749375Y-69808318D01*
X56505775Y-69909203D01*
X56091462Y-70247904D01*
X55838302Y-70719373D01*
X55669704Y-70719373D01*
X55662662Y-70683973D01*
X55415673Y-70314327D01*
X55046027Y-70067338D01*
X54720064Y-70002500D01*
X54499936Y-70002500D01*
X54173973Y-70067338D01*
X53804327Y-70314327D01*
X53557338Y-70683973D01*
X53470607Y-71120000D01*
X53209393Y-71120000D01*
X53122662Y-70683973D01*
X52875673Y-70314327D01*
X52506027Y-70067338D01*
X52180064Y-70002500D01*
X51959936Y-70002500D01*
X51633973Y-70067338D01*
X51264327Y-70314327D01*
X51017338Y-70683973D01*
X50930607Y-71120000D01*
X50653720Y-71120000D01*
X50653720Y-70320000D01*
X50629078Y-70196118D01*
X50558905Y-70091095D01*
X50453882Y-70020922D01*
X50330000Y-69996280D01*
X48730000Y-69996280D01*
X48606118Y-70020922D01*
X48501095Y-70091095D01*
X48430922Y-70196118D01*
X48406280Y-70320000D01*
X33955944Y-70320000D01*
X33461993Y-69127496D01*
X32472504Y-68138007D01*
X31671112Y-67806060D01*
X71691500Y-67806060D01*
X71691500Y-68083940D01*
X71797841Y-68340668D01*
X71994332Y-68537159D01*
X72251060Y-68643500D01*
X72528940Y-68643500D01*
X72682241Y-68580000D01*
X92417759Y-68580000D01*
X92571060Y-68643500D01*
X92848940Y-68643500D01*
X93105668Y-68537159D01*
X93302159Y-68340668D01*
X93408500Y-68083940D01*
X93408500Y-67806060D01*
X93302159Y-67549332D01*
X93105668Y-67352841D01*
X93002241Y-67310000D01*
X93687759Y-67310000D01*
X93841060Y-67373500D01*
X94118940Y-67373500D01*
X94375668Y-67267159D01*
X94572159Y-67070668D01*
X94678500Y-66813940D01*
X94678500Y-66536060D01*
X94572159Y-66279332D01*
X94375668Y-66082841D01*
X94272241Y-66040000D01*
X94957759Y-66040000D01*
X95111060Y-66103500D01*
X95388940Y-66103500D01*
X95645668Y-65997159D01*
X95842159Y-65800668D01*
X95948500Y-65543940D01*
X95948500Y-65266060D01*
X95842159Y-65009332D01*
X95645668Y-64812841D01*
X95542241Y-64770000D01*
X96227759Y-64770000D01*
X96381060Y-64833500D01*
X96658940Y-64833500D01*
X96915668Y-64727159D01*
X97112159Y-64530668D01*
X97218500Y-64273940D01*
X97218500Y-63996060D01*
X97112159Y-63739332D01*
X96915668Y-63542841D01*
X96658940Y-63436500D01*
X96381060Y-63436500D01*
X96227759Y-63500000D01*
X85382241Y-63500000D01*
X85228940Y-63436500D01*
X84951060Y-63436500D01*
X84694332Y-63542841D01*
X84497841Y-63739332D01*
X84391500Y-63996060D01*
X84391500Y-64273940D01*
X84497841Y-64530668D01*
X84694332Y-64727159D01*
X84797759Y-64770000D01*
X77762231Y-64770000D01*
X77608930Y-64706500D01*
X77331050Y-64706500D01*
X77074322Y-64812841D01*
X76877831Y-65009332D01*
X76771490Y-65266060D01*
X76771490Y-65543940D01*
X76877831Y-65800668D01*
X77074322Y-65997159D01*
X77177749Y-66040000D01*
X75222241Y-66040000D01*
X75068940Y-65976500D01*
X74791060Y-65976500D01*
X74534332Y-66082841D01*
X74337841Y-66279332D01*
X74231500Y-66536060D01*
X74231500Y-66813940D01*
X74337841Y-67070668D01*
X74534332Y-67267159D01*
X74637759Y-67310000D01*
X72682241Y-67310000D01*
X72528940Y-67246500D01*
X72251060Y-67246500D01*
X71994332Y-67352841D01*
X71797841Y-67549332D01*
X71691500Y-67806060D01*
X31671112Y-67806060D01*
X31179674Y-67602500D01*
X29780326Y-67602500D01*
X28487496Y-68138007D01*
X27498007Y-69127496D01*
X26962500Y-70420326D01*
X25817500Y-70420326D01*
X25817500Y-65901060D01*
X28511500Y-65901060D01*
X28511500Y-66178940D01*
X28617841Y-66435668D01*
X28814332Y-66632159D01*
X29071060Y-66738500D01*
X29348940Y-66738500D01*
X29502241Y-66675000D01*
X49237759Y-66675000D01*
X49391060Y-66738500D01*
X49668940Y-66738500D01*
X49822241Y-66675000D01*
X59397759Y-66675000D01*
X59551060Y-66738500D01*
X59828940Y-66738500D01*
X60085668Y-66632159D01*
X60282159Y-66435668D01*
X60388500Y-66178940D01*
X60388500Y-65901060D01*
X60282159Y-65644332D01*
X60085668Y-65447841D01*
X59982241Y-65405000D01*
X69557759Y-65405000D01*
X69711060Y-65468500D01*
X69988940Y-65468500D01*
X70245668Y-65362159D01*
X70442159Y-65165668D01*
X70548500Y-64908940D01*
X70548500Y-64631060D01*
X70442159Y-64374332D01*
X70245668Y-64177841D01*
X69988940Y-64071500D01*
X69711060Y-64071500D01*
X69557759Y-64135000D01*
X67602270Y-64135000D01*
X67705668Y-64092171D01*
X67902159Y-63895680D01*
X68008500Y-63638952D01*
X68008500Y-63361072D01*
X67902159Y-63104344D01*
X67705668Y-62907853D01*
X67448940Y-62801512D01*
X67171060Y-62801512D01*
X67017788Y-62865000D01*
X65062241Y-62865000D01*
X65165668Y-62822159D01*
X65362159Y-62625668D01*
X65468500Y-62368940D01*
X65468500Y-62091060D01*
X65362159Y-61834332D01*
X65165668Y-61637841D01*
X64908940Y-61531500D01*
X64631060Y-61531500D01*
X64477759Y-61595000D01*
X62493026Y-61595000D01*
X60818238Y-59920214D01*
X60782809Y-59867191D01*
X60572765Y-59726843D01*
X60387541Y-59690000D01*
X60387537Y-59690000D01*
X60325000Y-59677561D01*
X60262463Y-59690000D01*
X58712241Y-59690000D01*
X58815668Y-59647159D01*
X59012159Y-59450668D01*
X59118500Y-59193940D01*
X59118500Y-58916060D01*
X59012159Y-58659332D01*
X58815668Y-58462841D01*
X58558940Y-58356500D01*
X58281060Y-58356500D01*
X58127759Y-58420000D01*
X57442241Y-58420000D01*
X57545668Y-58377159D01*
X57742159Y-58180668D01*
X57848500Y-57923940D01*
X57848500Y-57646060D01*
X57742159Y-57389332D01*
X57545668Y-57192841D01*
X57288940Y-57086500D01*
X57011060Y-57086500D01*
X56857759Y-57150000D01*
X52571272Y-57150000D01*
X52714225Y-57090797D01*
X53128538Y-56752096D01*
X53381698Y-56280627D01*
X53285346Y-56070500D01*
X52260500Y-56070500D01*
X52260500Y-56090500D01*
X51879500Y-56090500D01*
X51879500Y-56070500D01*
X50854654Y-56070500D01*
X50758302Y-56280627D01*
X51011462Y-56752096D01*
X51425775Y-57090797D01*
X51568728Y-57150000D01*
X35852241Y-57150000D01*
X35698940Y-57086500D01*
X35421060Y-57086500D01*
X35164332Y-57192841D01*
X34967841Y-57389332D01*
X34861500Y-57646060D01*
X34861500Y-57923940D01*
X34967841Y-58180668D01*
X35164332Y-58377159D01*
X35267759Y-58420000D01*
X34582241Y-58420000D01*
X34428940Y-58356500D01*
X34151060Y-58356500D01*
X33894332Y-58462841D01*
X33697841Y-58659332D01*
X33591500Y-58916060D01*
X33591500Y-59193940D01*
X33697841Y-59450668D01*
X33894332Y-59647159D01*
X33997759Y-59690000D01*
X33312241Y-59690000D01*
X33158940Y-59626500D01*
X32881060Y-59626500D01*
X32624332Y-59732841D01*
X32427841Y-59929332D01*
X32321500Y-60186060D01*
X32321500Y-60463940D01*
X32427841Y-60720668D01*
X32624332Y-60917159D01*
X32881060Y-61023500D01*
X33158940Y-61023500D01*
X33312241Y-60960000D01*
X60061976Y-60960000D01*
X61736766Y-62634791D01*
X61772191Y-62687809D01*
X61825208Y-62723234D01*
X61825210Y-62723236D01*
X61942340Y-62801500D01*
X61982235Y-62828157D01*
X62167459Y-62865000D01*
X58712241Y-62865000D01*
X58558940Y-62801500D01*
X58281060Y-62801500D01*
X58024332Y-62907841D01*
X57827841Y-63104332D01*
X57721500Y-63361060D01*
X57721500Y-63638940D01*
X57827841Y-63895668D01*
X58024332Y-64092159D01*
X58127759Y-64135000D01*
X57442241Y-64135000D01*
X57288940Y-64071500D01*
X57011060Y-64071500D01*
X56754332Y-64177841D01*
X56557841Y-64374332D01*
X56451500Y-64631060D01*
X56451500Y-64908940D01*
X56557841Y-65165668D01*
X56754332Y-65362159D01*
X56857759Y-65405000D01*
X49822241Y-65405000D01*
X49668940Y-65341500D01*
X49391060Y-65341500D01*
X49237759Y-65405000D01*
X29502241Y-65405000D01*
X29348940Y-65341500D01*
X29071060Y-65341500D01*
X28814332Y-65447841D01*
X28617841Y-65644332D01*
X28511500Y-65901060D01*
X25817500Y-65901060D01*
X25817500Y-60678104D01*
X27948353Y-60678104D01*
X28123849Y-61006046D01*
X28282611Y-61137325D01*
X28189933Y-61276028D01*
X28126485Y-61595000D01*
X28189933Y-61913972D01*
X28370616Y-62184384D01*
X28641028Y-62365067D01*
X28879488Y-62412500D01*
X29540512Y-62412500D01*
X29778972Y-62365067D01*
X30049384Y-62184384D01*
X30230067Y-61913972D01*
X30293515Y-61595000D01*
X30230067Y-61276028D01*
X30137389Y-61137325D01*
X30296151Y-61006046D01*
X30471647Y-60678104D01*
X30368875Y-60515500D01*
X29400500Y-60515500D01*
X29400500Y-60535500D01*
X29019500Y-60535500D01*
X29019500Y-60515500D01*
X28051125Y-60515500D01*
X27948353Y-60678104D01*
X25817500Y-60678104D01*
X25817500Y-59971896D01*
X27948353Y-59971896D01*
X28051125Y-60134500D01*
X29019500Y-60134500D01*
X29019500Y-60114500D01*
X29400500Y-60114500D01*
X29400500Y-60134500D01*
X30368875Y-60134500D01*
X30471647Y-59971896D01*
X30296151Y-59643954D01*
X30270281Y-59622562D01*
X30283720Y-59555000D01*
X30283720Y-58555000D01*
X30259078Y-58431118D01*
X30188905Y-58326095D01*
X30083882Y-58255922D01*
X29960000Y-58231280D01*
X28460000Y-58231280D01*
X28336118Y-58255922D01*
X28231095Y-58326095D01*
X28160922Y-58431118D01*
X28136280Y-58555000D01*
X28136280Y-59555000D01*
X28149719Y-59622562D01*
X28123849Y-59643954D01*
X27948353Y-59971896D01*
X25817500Y-59971896D01*
X25817500Y-55741060D01*
X28511500Y-55741060D01*
X28511500Y-56018940D01*
X28617841Y-56275668D01*
X28814332Y-56472159D01*
X29071060Y-56578500D01*
X29348940Y-56578500D01*
X29502241Y-56515000D01*
X48610287Y-56515000D01*
X48724327Y-56685673D01*
X49093973Y-56932662D01*
X49419936Y-56997500D01*
X49640064Y-56997500D01*
X49966027Y-56932662D01*
X50335673Y-56685673D01*
X50582662Y-56316027D01*
X50669393Y-55880000D01*
X53470607Y-55880000D01*
X53557338Y-56316027D01*
X53804327Y-56685673D01*
X54173973Y-56932662D01*
X54499936Y-56997500D01*
X54720064Y-56997500D01*
X55046027Y-56932662D01*
X55415673Y-56685673D01*
X55662662Y-56316027D01*
X55749393Y-55880000D01*
X56010607Y-55880000D01*
X56097338Y-56316027D01*
X56344327Y-56685673D01*
X56713973Y-56932662D01*
X57039936Y-56997500D01*
X57260064Y-56997500D01*
X57586027Y-56932662D01*
X57955673Y-56685673D01*
X58202662Y-56316027D01*
X58289393Y-55880000D01*
X58550607Y-55880000D01*
X58637338Y-56316027D01*
X58884327Y-56685673D01*
X59253973Y-56932662D01*
X59579936Y-56997500D01*
X59800064Y-56997500D01*
X60126027Y-56932662D01*
X60495673Y-56685673D01*
X60742662Y-56316027D01*
X60829393Y-55880000D01*
X61090607Y-55880000D01*
X61177338Y-56316027D01*
X61424327Y-56685673D01*
X61793973Y-56932662D01*
X62119936Y-56997500D01*
X62340064Y-56997500D01*
X62666027Y-56932662D01*
X63035673Y-56685673D01*
X63282662Y-56316027D01*
X63369393Y-55880000D01*
X63630607Y-55880000D01*
X63717338Y-56316027D01*
X63964327Y-56685673D01*
X64333973Y-56932662D01*
X64659936Y-56997500D01*
X64880064Y-56997500D01*
X65206027Y-56932662D01*
X65575673Y-56685673D01*
X65822662Y-56316027D01*
X65909393Y-55880000D01*
X66170607Y-55880000D01*
X66257338Y-56316027D01*
X66504327Y-56685673D01*
X66873973Y-56932662D01*
X67199936Y-56997500D01*
X67420064Y-56997500D01*
X67746027Y-56932662D01*
X68115673Y-56685673D01*
X68362662Y-56316027D01*
X68449393Y-55880000D01*
X68710607Y-55880000D01*
X68797338Y-56316027D01*
X69044327Y-56685673D01*
X69413973Y-56932662D01*
X69739936Y-56997500D01*
X69960064Y-56997500D01*
X70286027Y-56932662D01*
X70655673Y-56685673D01*
X70902662Y-56316027D01*
X70989393Y-55880000D01*
X71250607Y-55880000D01*
X71337338Y-56316027D01*
X71584327Y-56685673D01*
X71953973Y-56932662D01*
X72279936Y-56997500D01*
X72500064Y-56997500D01*
X72826027Y-56932662D01*
X73195673Y-56685673D01*
X73442662Y-56316027D01*
X73529393Y-55880000D01*
X73790607Y-55880000D01*
X73877338Y-56316027D01*
X74124327Y-56685673D01*
X74493973Y-56932662D01*
X74819936Y-56997500D01*
X75040064Y-56997500D01*
X75366027Y-56932662D01*
X75735673Y-56685673D01*
X75982662Y-56316027D01*
X76069393Y-55880000D01*
X76330607Y-55880000D01*
X76417338Y-56316027D01*
X76664327Y-56685673D01*
X77033973Y-56932662D01*
X77359936Y-56997500D01*
X77580064Y-56997500D01*
X77906027Y-56932662D01*
X78275673Y-56685673D01*
X78522662Y-56316027D01*
X78609393Y-55880000D01*
X78870607Y-55880000D01*
X78957338Y-56316027D01*
X79204327Y-56685673D01*
X79573973Y-56932662D01*
X79899936Y-56997500D01*
X80120064Y-56997500D01*
X80446027Y-56932662D01*
X80815673Y-56685673D01*
X81062662Y-56316027D01*
X81149393Y-55880000D01*
X81410607Y-55880000D01*
X81497338Y-56316027D01*
X81744327Y-56685673D01*
X82113973Y-56932662D01*
X82439936Y-56997500D01*
X82660064Y-56997500D01*
X82986027Y-56932662D01*
X83355673Y-56685673D01*
X83602662Y-56316027D01*
X83689393Y-55880000D01*
X83950607Y-55880000D01*
X84037338Y-56316027D01*
X84284327Y-56685673D01*
X84653973Y-56932662D01*
X84979936Y-56997500D01*
X85200064Y-56997500D01*
X85526027Y-56932662D01*
X85895673Y-56685673D01*
X86142662Y-56316027D01*
X86229393Y-55880000D01*
X86142662Y-55443973D01*
X85895673Y-55074327D01*
X85526027Y-54827338D01*
X85200064Y-54762500D01*
X84979936Y-54762500D01*
X84653973Y-54827338D01*
X84284327Y-55074327D01*
X84037338Y-55443973D01*
X83950607Y-55880000D01*
X83689393Y-55880000D01*
X83602662Y-55443973D01*
X83355673Y-55074327D01*
X82986027Y-54827338D01*
X82660064Y-54762500D01*
X82439936Y-54762500D01*
X82113973Y-54827338D01*
X81744327Y-55074327D01*
X81497338Y-55443973D01*
X81410607Y-55880000D01*
X81149393Y-55880000D01*
X81062662Y-55443973D01*
X80815673Y-55074327D01*
X80446027Y-54827338D01*
X80120064Y-54762500D01*
X79899936Y-54762500D01*
X79573973Y-54827338D01*
X79204327Y-55074327D01*
X78957338Y-55443973D01*
X78870607Y-55880000D01*
X78609393Y-55880000D01*
X78522662Y-55443973D01*
X78275673Y-55074327D01*
X77906027Y-54827338D01*
X77580064Y-54762500D01*
X77359936Y-54762500D01*
X77033973Y-54827338D01*
X76664327Y-55074327D01*
X76417338Y-55443973D01*
X76330607Y-55880000D01*
X76069393Y-55880000D01*
X75982662Y-55443973D01*
X75735673Y-55074327D01*
X75366027Y-54827338D01*
X75040064Y-54762500D01*
X74819936Y-54762500D01*
X74493973Y-54827338D01*
X74124327Y-55074327D01*
X73877338Y-55443973D01*
X73790607Y-55880000D01*
X73529393Y-55880000D01*
X73442662Y-55443973D01*
X73195673Y-55074327D01*
X72826027Y-54827338D01*
X72500064Y-54762500D01*
X72279936Y-54762500D01*
X71953973Y-54827338D01*
X71584327Y-55074327D01*
X71337338Y-55443973D01*
X71250607Y-55880000D01*
X70989393Y-55880000D01*
X70902662Y-55443973D01*
X70655673Y-55074327D01*
X70286027Y-54827338D01*
X69960064Y-54762500D01*
X69739936Y-54762500D01*
X69413973Y-54827338D01*
X69044327Y-55074327D01*
X68797338Y-55443973D01*
X68710607Y-55880000D01*
X68449393Y-55880000D01*
X68362662Y-55443973D01*
X68115673Y-55074327D01*
X67746027Y-54827338D01*
X67420064Y-54762500D01*
X67199936Y-54762500D01*
X66873973Y-54827338D01*
X66504327Y-55074327D01*
X66257338Y-55443973D01*
X66170607Y-55880000D01*
X65909393Y-55880000D01*
X65822662Y-55443973D01*
X65575673Y-55074327D01*
X65206027Y-54827338D01*
X64880064Y-54762500D01*
X64659936Y-54762500D01*
X64333973Y-54827338D01*
X63964327Y-55074327D01*
X63717338Y-55443973D01*
X63630607Y-55880000D01*
X63369393Y-55880000D01*
X63282662Y-55443973D01*
X63035673Y-55074327D01*
X62666027Y-54827338D01*
X62340064Y-54762500D01*
X62119936Y-54762500D01*
X61793973Y-54827338D01*
X61424327Y-55074327D01*
X61177338Y-55443973D01*
X61090607Y-55880000D01*
X60829393Y-55880000D01*
X60742662Y-55443973D01*
X60495673Y-55074327D01*
X60126027Y-54827338D01*
X59800064Y-54762500D01*
X59579936Y-54762500D01*
X59253973Y-54827338D01*
X58884327Y-55074327D01*
X58637338Y-55443973D01*
X58550607Y-55880000D01*
X58289393Y-55880000D01*
X58202662Y-55443973D01*
X57955673Y-55074327D01*
X57586027Y-54827338D01*
X57260064Y-54762500D01*
X57039936Y-54762500D01*
X56713973Y-54827338D01*
X56344327Y-55074327D01*
X56097338Y-55443973D01*
X56010607Y-55880000D01*
X55749393Y-55880000D01*
X55662662Y-55443973D01*
X55415673Y-55074327D01*
X55046027Y-54827338D01*
X54720064Y-54762500D01*
X54499936Y-54762500D01*
X54173973Y-54827338D01*
X53804327Y-55074327D01*
X53557338Y-55443973D01*
X53470607Y-55880000D01*
X50669393Y-55880000D01*
X50589704Y-55479373D01*
X50758302Y-55479373D01*
X50854654Y-55689500D01*
X51879500Y-55689500D01*
X51879500Y-54666233D01*
X52260500Y-54666233D01*
X52260500Y-55689500D01*
X53285346Y-55689500D01*
X53381698Y-55479373D01*
X53128538Y-55007904D01*
X52714225Y-54669203D01*
X52470625Y-54568318D01*
X52260500Y-54666233D01*
X51879500Y-54666233D01*
X51669375Y-54568318D01*
X51425775Y-54669203D01*
X51011462Y-55007904D01*
X50758302Y-55479373D01*
X50589704Y-55479373D01*
X50582662Y-55443973D01*
X50335673Y-55074327D01*
X49966027Y-54827338D01*
X49640064Y-54762500D01*
X49419936Y-54762500D01*
X49093973Y-54827338D01*
X48724327Y-55074327D01*
X48610287Y-55245000D01*
X29502241Y-55245000D01*
X29348940Y-55181500D01*
X29071060Y-55181500D01*
X28814332Y-55287841D01*
X28617841Y-55484332D01*
X28511500Y-55741060D01*
X25817500Y-55741060D01*
X25817500Y-51133375D01*
X27788500Y-51133375D01*
X27788500Y-51763679D01*
X27875506Y-51973729D01*
X28036272Y-52134494D01*
X28246322Y-52221500D01*
X28848676Y-52221500D01*
X28754464Y-52240240D01*
X28368280Y-52498280D01*
X28110240Y-52884464D01*
X28019628Y-53340000D01*
X28110240Y-53795536D01*
X28368280Y-54181720D01*
X28754464Y-54439760D01*
X29095015Y-54507500D01*
X29324985Y-54507500D01*
X29665536Y-54439760D01*
X30051720Y-54181720D01*
X30309760Y-53795536D01*
X30400372Y-53340000D01*
X30372736Y-53201060D01*
X39306500Y-53201060D01*
X39306500Y-53478940D01*
X39412841Y-53735668D01*
X39609332Y-53932159D01*
X39866060Y-54038500D01*
X40143940Y-54038500D01*
X40297241Y-53975000D01*
X55587759Y-53975000D01*
X55741060Y-54038500D01*
X56018940Y-54038500D01*
X56275668Y-53932159D01*
X56371767Y-53836060D01*
X69151500Y-53836060D01*
X69151500Y-54113940D01*
X69257841Y-54370668D01*
X69454332Y-54567159D01*
X69711060Y-54673500D01*
X69988940Y-54673500D01*
X70142241Y-54610000D01*
X89877759Y-54610000D01*
X90031060Y-54673500D01*
X90308940Y-54673500D01*
X90565668Y-54567159D01*
X90762159Y-54370668D01*
X90868500Y-54113940D01*
X90868500Y-53836060D01*
X90762159Y-53579332D01*
X90565668Y-53382841D01*
X90462241Y-53340000D01*
X91147759Y-53340000D01*
X91301060Y-53403500D01*
X91578940Y-53403500D01*
X91835668Y-53297159D01*
X92032159Y-53100668D01*
X92138500Y-52843940D01*
X92138500Y-52566060D01*
X92032159Y-52309332D01*
X91835668Y-52112841D01*
X91578940Y-52006500D01*
X91301060Y-52006500D01*
X91147759Y-52070000D01*
X90462241Y-52070000D01*
X90565668Y-52027159D01*
X90762159Y-51830668D01*
X90868500Y-51573940D01*
X90868500Y-51296060D01*
X90762159Y-51039332D01*
X90565668Y-50842841D01*
X90308940Y-50736500D01*
X90031060Y-50736500D01*
X89877759Y-50800000D01*
X87922241Y-50800000D01*
X87768940Y-50736500D01*
X87491060Y-50736500D01*
X87234332Y-50842841D01*
X87037841Y-51039332D01*
X86931500Y-51296060D01*
X86931500Y-51573940D01*
X87037841Y-51830668D01*
X87234332Y-52027159D01*
X87337759Y-52070000D01*
X85744453Y-52070000D01*
X85883617Y-51861727D01*
X85932500Y-51615976D01*
X85932500Y-51000024D01*
X85883617Y-50754273D01*
X85697408Y-50475592D01*
X85418726Y-50289383D01*
X85090000Y-50223995D01*
X84761273Y-50289383D01*
X84482592Y-50475592D01*
X84455000Y-50516886D01*
X84427408Y-50475592D01*
X84148726Y-50289383D01*
X83820000Y-50223995D01*
X83575391Y-50272651D01*
X83559494Y-50234271D01*
X83398728Y-50073506D01*
X83188678Y-49986500D01*
X82883375Y-49986500D01*
X82740500Y-50129375D01*
X82740500Y-51117500D01*
X82760500Y-51117500D01*
X82760500Y-51498500D01*
X82740500Y-51498500D01*
X82740500Y-52486625D01*
X82883375Y-52629500D01*
X83121500Y-52629500D01*
X83121500Y-52843940D01*
X83227841Y-53100668D01*
X83424332Y-53297159D01*
X83527759Y-53340000D01*
X70142241Y-53340000D01*
X69988940Y-53276500D01*
X69711060Y-53276500D01*
X69454332Y-53382841D01*
X69257841Y-53579332D01*
X69151500Y-53836060D01*
X56371767Y-53836060D01*
X56472159Y-53735668D01*
X56578500Y-53478940D01*
X56578500Y-53201060D01*
X56472159Y-52944332D01*
X56275668Y-52747841D01*
X56018940Y-52641500D01*
X55741060Y-52641500D01*
X55587759Y-52705000D01*
X40297241Y-52705000D01*
X40143940Y-52641500D01*
X39866060Y-52641500D01*
X39609332Y-52747841D01*
X39412841Y-52944332D01*
X39306500Y-53201060D01*
X30372736Y-53201060D01*
X30309760Y-52884464D01*
X30051720Y-52498280D01*
X29665536Y-52240240D01*
X29571324Y-52221500D01*
X30173678Y-52221500D01*
X30383728Y-52134494D01*
X30544494Y-51973729D01*
X30631500Y-51763679D01*
X30631500Y-51641375D01*
X39543500Y-51641375D01*
X39543500Y-52171679D01*
X39630506Y-52381729D01*
X39791272Y-52542494D01*
X40001322Y-52629500D01*
X40306625Y-52629500D01*
X40449500Y-52486625D01*
X40449500Y-51498500D01*
X39686375Y-51498500D01*
X39543500Y-51641375D01*
X30631500Y-51641375D01*
X30631500Y-51133375D01*
X30488625Y-50990500D01*
X29400500Y-50990500D01*
X29400500Y-51010500D01*
X29019500Y-51010500D01*
X29019500Y-50990500D01*
X27931375Y-50990500D01*
X27788500Y-51133375D01*
X25817500Y-51133375D01*
X25817500Y-49836321D01*
X27788500Y-49836321D01*
X27788500Y-50466625D01*
X27931375Y-50609500D01*
X29019500Y-50609500D01*
X29019500Y-49521375D01*
X29400500Y-49521375D01*
X29400500Y-50609500D01*
X30488625Y-50609500D01*
X30631500Y-50466625D01*
X30631500Y-49836321D01*
X30544494Y-49626271D01*
X30383728Y-49465506D01*
X30204001Y-49391060D01*
X38036500Y-49391060D01*
X38036500Y-49668940D01*
X38142841Y-49925668D01*
X38339332Y-50122159D01*
X38596060Y-50228500D01*
X38873940Y-50228500D01*
X39027241Y-50165000D01*
X39699777Y-50165000D01*
X39630506Y-50234271D01*
X39543500Y-50444321D01*
X39543500Y-50974625D01*
X39686375Y-51117500D01*
X40449500Y-51117500D01*
X40449500Y-51097500D01*
X40830500Y-51097500D01*
X40830500Y-51117500D01*
X40850500Y-51117500D01*
X40850500Y-51498500D01*
X40830500Y-51498500D01*
X40830500Y-52486625D01*
X40973375Y-52629500D01*
X41278678Y-52629500D01*
X41488728Y-52542494D01*
X41649494Y-52381729D01*
X41665392Y-52343349D01*
X41910000Y-52392005D01*
X42238727Y-52326617D01*
X42517408Y-52140408D01*
X42545000Y-52099113D01*
X42572593Y-52140408D01*
X42851274Y-52326617D01*
X43180000Y-52392005D01*
X43508727Y-52326617D01*
X43787408Y-52140408D01*
X43973617Y-51861727D01*
X44017447Y-51641375D01*
X53513500Y-51641375D01*
X53513500Y-52171679D01*
X53600506Y-52381729D01*
X53761272Y-52542494D01*
X53971322Y-52629500D01*
X54276625Y-52629500D01*
X54419500Y-52486625D01*
X54419500Y-51498500D01*
X53656375Y-51498500D01*
X53513500Y-51641375D01*
X44017447Y-51641375D01*
X44022500Y-51615976D01*
X44022500Y-51000024D01*
X43973617Y-50754273D01*
X43787408Y-50475592D01*
X43740608Y-50444321D01*
X53513500Y-50444321D01*
X53513500Y-50974625D01*
X53656375Y-51117500D01*
X54419500Y-51117500D01*
X54419500Y-50129375D01*
X54800500Y-50129375D01*
X54800500Y-51117500D01*
X54820500Y-51117500D01*
X54820500Y-51498500D01*
X54800500Y-51498500D01*
X54800500Y-52486625D01*
X54943375Y-52629500D01*
X55248678Y-52629500D01*
X55458728Y-52542494D01*
X55619494Y-52381729D01*
X55635392Y-52343349D01*
X55880000Y-52392005D01*
X56208727Y-52326617D01*
X56487408Y-52140408D01*
X56515000Y-52099113D01*
X56542593Y-52140408D01*
X56821274Y-52326617D01*
X57150000Y-52392005D01*
X57478727Y-52326617D01*
X57757408Y-52140408D01*
X57943617Y-51861727D01*
X57987447Y-51641375D01*
X67483500Y-51641375D01*
X67483500Y-52171679D01*
X67570506Y-52381729D01*
X67731272Y-52542494D01*
X67941322Y-52629500D01*
X68246625Y-52629500D01*
X68389500Y-52486625D01*
X68389500Y-51498500D01*
X67626375Y-51498500D01*
X67483500Y-51641375D01*
X57987447Y-51641375D01*
X57992500Y-51615976D01*
X57992500Y-51000024D01*
X57943617Y-50754273D01*
X57757408Y-50475592D01*
X57710608Y-50444321D01*
X67483500Y-50444321D01*
X67483500Y-50974625D01*
X67626375Y-51117500D01*
X68389500Y-51117500D01*
X68389500Y-50129375D01*
X68770500Y-50129375D01*
X68770500Y-51117500D01*
X68790500Y-51117500D01*
X68790500Y-51498500D01*
X68770500Y-51498500D01*
X68770500Y-52486625D01*
X68913375Y-52629500D01*
X69218678Y-52629500D01*
X69428728Y-52542494D01*
X69589494Y-52381729D01*
X69605392Y-52343349D01*
X69850000Y-52392005D01*
X70178727Y-52326617D01*
X70457408Y-52140408D01*
X70485000Y-52099113D01*
X70512593Y-52140408D01*
X70791274Y-52326617D01*
X71120000Y-52392005D01*
X71448727Y-52326617D01*
X71727408Y-52140408D01*
X71913617Y-51861727D01*
X71957447Y-51641375D01*
X81453500Y-51641375D01*
X81453500Y-52171679D01*
X81540506Y-52381729D01*
X81701272Y-52542494D01*
X81911322Y-52629500D01*
X82216625Y-52629500D01*
X82359500Y-52486625D01*
X82359500Y-51498500D01*
X81596375Y-51498500D01*
X81453500Y-51641375D01*
X71957447Y-51641375D01*
X71962500Y-51615976D01*
X71962500Y-51000024D01*
X71913617Y-50754273D01*
X71727408Y-50475592D01*
X71680608Y-50444321D01*
X81453500Y-50444321D01*
X81453500Y-50974625D01*
X81596375Y-51117500D01*
X82359500Y-51117500D01*
X82359500Y-50129375D01*
X82216625Y-49986500D01*
X81911322Y-49986500D01*
X81701272Y-50073506D01*
X81540506Y-50234271D01*
X81453500Y-50444321D01*
X71680608Y-50444321D01*
X71448726Y-50289383D01*
X71120000Y-50223995D01*
X70791273Y-50289383D01*
X70512592Y-50475592D01*
X70485000Y-50516886D01*
X70457408Y-50475592D01*
X70178726Y-50289383D01*
X69850000Y-50223995D01*
X69605391Y-50272651D01*
X69589494Y-50234271D01*
X69428728Y-50073506D01*
X69218678Y-49986500D01*
X68913375Y-49986500D01*
X68770500Y-50129375D01*
X68389500Y-50129375D01*
X68246625Y-49986500D01*
X67941322Y-49986500D01*
X67731272Y-50073506D01*
X67570506Y-50234271D01*
X67483500Y-50444321D01*
X57710608Y-50444321D01*
X57478726Y-50289383D01*
X57150000Y-50223995D01*
X56821273Y-50289383D01*
X56542592Y-50475592D01*
X56515000Y-50516886D01*
X56487408Y-50475592D01*
X56208726Y-50289383D01*
X55880000Y-50223995D01*
X55635391Y-50272651D01*
X55619494Y-50234271D01*
X55458728Y-50073506D01*
X55248678Y-49986500D01*
X54943375Y-49986500D01*
X54800500Y-50129375D01*
X54419500Y-50129375D01*
X54276625Y-49986500D01*
X53971322Y-49986500D01*
X53761272Y-50073506D01*
X53600506Y-50234271D01*
X53513500Y-50444321D01*
X43740608Y-50444321D01*
X43508726Y-50289383D01*
X43180000Y-50223995D01*
X42851273Y-50289383D01*
X42572592Y-50475592D01*
X42545000Y-50516886D01*
X42517408Y-50475592D01*
X42238726Y-50289383D01*
X41932648Y-50228500D01*
X42048940Y-50228500D01*
X42305668Y-50122159D01*
X42502159Y-49925668D01*
X42608500Y-49668940D01*
X42608500Y-49391060D01*
X86931500Y-49391060D01*
X86931500Y-49668940D01*
X87037841Y-49925668D01*
X87234332Y-50122159D01*
X87491060Y-50228500D01*
X87768940Y-50228500D01*
X87922241Y-50165000D01*
X92417759Y-50165000D01*
X92571060Y-50228500D01*
X92848940Y-50228500D01*
X93105668Y-50122159D01*
X93302159Y-49925668D01*
X93408500Y-49668940D01*
X93408500Y-49391060D01*
X93302159Y-49134332D01*
X93105668Y-48937841D01*
X92848940Y-48831500D01*
X92571060Y-48831500D01*
X92417759Y-48895000D01*
X87922241Y-48895000D01*
X87768940Y-48831500D01*
X87491060Y-48831500D01*
X87234332Y-48937841D01*
X87037841Y-49134332D01*
X86931500Y-49391060D01*
X42608500Y-49391060D01*
X42502159Y-49134332D01*
X42305668Y-48937841D01*
X42048940Y-48831500D01*
X41771060Y-48831500D01*
X41617759Y-48895000D01*
X39027241Y-48895000D01*
X38873940Y-48831500D01*
X38596060Y-48831500D01*
X38339332Y-48937841D01*
X38142841Y-49134332D01*
X38036500Y-49391060D01*
X30204001Y-49391060D01*
X30173678Y-49378500D01*
X29543375Y-49378500D01*
X29400500Y-49521375D01*
X29019500Y-49521375D01*
X28876625Y-49378500D01*
X28246322Y-49378500D01*
X28036272Y-49465506D01*
X27875506Y-49626271D01*
X27788500Y-49836321D01*
X25817500Y-49836321D01*
X25817500Y-44458000D01*
X37014280Y-44458000D01*
X37014280Y-46982000D01*
X37038922Y-47105882D01*
X37109095Y-47210905D01*
X37214118Y-47281078D01*
X37338000Y-47305720D01*
X38862000Y-47305720D01*
X38985882Y-47281078D01*
X39090905Y-47210905D01*
X39161078Y-47105882D01*
X39185720Y-46982000D01*
X39185720Y-45113683D01*
X39560500Y-45113683D01*
X39560500Y-46326318D01*
X39623135Y-46641200D01*
X39861725Y-46998276D01*
X40218801Y-47236866D01*
X40640000Y-47320648D01*
X41061200Y-47236866D01*
X41418276Y-46998276D01*
X41656866Y-46641200D01*
X41719500Y-46326318D01*
X41719500Y-45113683D01*
X42100500Y-45113683D01*
X42100500Y-46326318D01*
X42163135Y-46641200D01*
X42401725Y-46998276D01*
X42758801Y-47236866D01*
X43180000Y-47320648D01*
X43601200Y-47236866D01*
X43958276Y-46998276D01*
X44196866Y-46641200D01*
X44259500Y-46326318D01*
X44259500Y-45113683D01*
X44640500Y-45113683D01*
X44640500Y-46326318D01*
X44703135Y-46641200D01*
X44941725Y-46998276D01*
X45298801Y-47236866D01*
X45720000Y-47320648D01*
X46141200Y-47236866D01*
X46498276Y-46998276D01*
X46736866Y-46641200D01*
X46799500Y-46326318D01*
X46799500Y-45113683D01*
X47180500Y-45113683D01*
X47180500Y-46326318D01*
X47243135Y-46641200D01*
X47481725Y-46998276D01*
X47838801Y-47236866D01*
X48260000Y-47320648D01*
X48681200Y-47236866D01*
X49038276Y-46998276D01*
X49276866Y-46641200D01*
X49339500Y-46326318D01*
X49339500Y-45113682D01*
X49276866Y-44798800D01*
X49049152Y-44458000D01*
X50984280Y-44458000D01*
X50984280Y-46982000D01*
X51008922Y-47105882D01*
X51079095Y-47210905D01*
X51184118Y-47281078D01*
X51308000Y-47305720D01*
X52832000Y-47305720D01*
X52955882Y-47281078D01*
X53060905Y-47210905D01*
X53131078Y-47105882D01*
X53155720Y-46982000D01*
X53155720Y-45113683D01*
X53530500Y-45113683D01*
X53530500Y-46326318D01*
X53593135Y-46641200D01*
X53831725Y-46998276D01*
X54188801Y-47236866D01*
X54610000Y-47320648D01*
X55031200Y-47236866D01*
X55388276Y-46998276D01*
X55626866Y-46641200D01*
X55689500Y-46326318D01*
X55689500Y-45113683D01*
X56070500Y-45113683D01*
X56070500Y-46326318D01*
X56133135Y-46641200D01*
X56371725Y-46998276D01*
X56728801Y-47236866D01*
X57150000Y-47320648D01*
X57571200Y-47236866D01*
X57928276Y-46998276D01*
X58166866Y-46641200D01*
X58229500Y-46326318D01*
X58229500Y-45113683D01*
X58610500Y-45113683D01*
X58610500Y-46326318D01*
X58673135Y-46641200D01*
X58911725Y-46998276D01*
X59268801Y-47236866D01*
X59690000Y-47320648D01*
X60111200Y-47236866D01*
X60468276Y-46998276D01*
X60706866Y-46641200D01*
X60769500Y-46326318D01*
X60769500Y-45113683D01*
X61150500Y-45113683D01*
X61150500Y-46326318D01*
X61213135Y-46641200D01*
X61451725Y-46998276D01*
X61808801Y-47236866D01*
X62230000Y-47320648D01*
X62651200Y-47236866D01*
X63008276Y-46998276D01*
X63246866Y-46641200D01*
X63309500Y-46326318D01*
X63309500Y-45113682D01*
X63246866Y-44798800D01*
X63019152Y-44458000D01*
X64954280Y-44458000D01*
X64954280Y-46982000D01*
X64978922Y-47105882D01*
X65049095Y-47210905D01*
X65154118Y-47281078D01*
X65278000Y-47305720D01*
X66802000Y-47305720D01*
X66925882Y-47281078D01*
X67030905Y-47210905D01*
X67101078Y-47105882D01*
X67125720Y-46982000D01*
X67125720Y-45113683D01*
X67500500Y-45113683D01*
X67500500Y-46326318D01*
X67563135Y-46641200D01*
X67801725Y-46998276D01*
X68158801Y-47236866D01*
X68580000Y-47320648D01*
X69001200Y-47236866D01*
X69358276Y-46998276D01*
X69596866Y-46641200D01*
X69659500Y-46326318D01*
X69659500Y-45113683D01*
X70040500Y-45113683D01*
X70040500Y-46326318D01*
X70103135Y-46641200D01*
X70341725Y-46998276D01*
X70698801Y-47236866D01*
X71120000Y-47320648D01*
X71541200Y-47236866D01*
X71898276Y-46998276D01*
X72136866Y-46641200D01*
X72199500Y-46326318D01*
X72199500Y-45113683D01*
X72580500Y-45113683D01*
X72580500Y-46326318D01*
X72643135Y-46641200D01*
X72881725Y-46998276D01*
X73238801Y-47236866D01*
X73660000Y-47320648D01*
X74081200Y-47236866D01*
X74438276Y-46998276D01*
X74676866Y-46641200D01*
X74739500Y-46326318D01*
X74739500Y-45113683D01*
X75120500Y-45113683D01*
X75120500Y-46326318D01*
X75183135Y-46641200D01*
X75421725Y-46998276D01*
X75778801Y-47236866D01*
X76200000Y-47320648D01*
X76621200Y-47236866D01*
X76978276Y-46998276D01*
X77216866Y-46641200D01*
X77279500Y-46326318D01*
X77279500Y-45113682D01*
X77216866Y-44798800D01*
X76989152Y-44458000D01*
X78924280Y-44458000D01*
X78924280Y-46982000D01*
X78948922Y-47105882D01*
X79019095Y-47210905D01*
X79124118Y-47281078D01*
X79248000Y-47305720D01*
X80772000Y-47305720D01*
X80895882Y-47281078D01*
X81000905Y-47210905D01*
X81071078Y-47105882D01*
X81095720Y-46982000D01*
X81095720Y-45113683D01*
X81470500Y-45113683D01*
X81470500Y-46326318D01*
X81533135Y-46641200D01*
X81771725Y-46998276D01*
X82128801Y-47236866D01*
X82550000Y-47320648D01*
X82971200Y-47236866D01*
X83328276Y-46998276D01*
X83566866Y-46641200D01*
X83629500Y-46326318D01*
X83629500Y-45113683D01*
X84010500Y-45113683D01*
X84010500Y-46326318D01*
X84073135Y-46641200D01*
X84311725Y-46998276D01*
X84668801Y-47236866D01*
X85090000Y-47320648D01*
X85511200Y-47236866D01*
X85868276Y-46998276D01*
X86106866Y-46641200D01*
X86169500Y-46326318D01*
X86169500Y-45113683D01*
X86550500Y-45113683D01*
X86550500Y-46326318D01*
X86613135Y-46641200D01*
X86851725Y-46998276D01*
X87208801Y-47236866D01*
X87630000Y-47320648D01*
X88051200Y-47236866D01*
X88408276Y-46998276D01*
X88646866Y-46641200D01*
X88709500Y-46326318D01*
X88709500Y-45113683D01*
X89090500Y-45113683D01*
X89090500Y-46326318D01*
X89153135Y-46641200D01*
X89391725Y-46998276D01*
X89748801Y-47236866D01*
X90170000Y-47320648D01*
X90591200Y-47236866D01*
X90948276Y-46998276D01*
X91186866Y-46641200D01*
X91249500Y-46326318D01*
X91249500Y-45113682D01*
X91186866Y-44798800D01*
X90948276Y-44441724D01*
X90591199Y-44203134D01*
X90170000Y-44119352D01*
X89748800Y-44203134D01*
X89391724Y-44441724D01*
X89153134Y-44798801D01*
X89090500Y-45113683D01*
X88709500Y-45113683D01*
X88709500Y-45113682D01*
X88646866Y-44798800D01*
X88408276Y-44441724D01*
X88051199Y-44203134D01*
X87630000Y-44119352D01*
X87208800Y-44203134D01*
X86851724Y-44441724D01*
X86613134Y-44798801D01*
X86550500Y-45113683D01*
X86169500Y-45113683D01*
X86169500Y-45113682D01*
X86106866Y-44798800D01*
X85868276Y-44441724D01*
X85511199Y-44203134D01*
X85090000Y-44119352D01*
X84668800Y-44203134D01*
X84311724Y-44441724D01*
X84073134Y-44798801D01*
X84010500Y-45113683D01*
X83629500Y-45113683D01*
X83629500Y-45113682D01*
X83566866Y-44798800D01*
X83328276Y-44441724D01*
X82971199Y-44203134D01*
X82550000Y-44119352D01*
X82128800Y-44203134D01*
X81771724Y-44441724D01*
X81533134Y-44798801D01*
X81470500Y-45113683D01*
X81095720Y-45113683D01*
X81095720Y-44458000D01*
X81071078Y-44334118D01*
X81000905Y-44229095D01*
X80895882Y-44158922D01*
X80772000Y-44134280D01*
X79248000Y-44134280D01*
X79124118Y-44158922D01*
X79019095Y-44229095D01*
X78948922Y-44334118D01*
X78924280Y-44458000D01*
X76989152Y-44458000D01*
X76978276Y-44441724D01*
X76621199Y-44203134D01*
X76200000Y-44119352D01*
X75778800Y-44203134D01*
X75421724Y-44441724D01*
X75183134Y-44798801D01*
X75120500Y-45113683D01*
X74739500Y-45113683D01*
X74739500Y-45113682D01*
X74676866Y-44798800D01*
X74438276Y-44441724D01*
X74081199Y-44203134D01*
X73660000Y-44119352D01*
X73238800Y-44203134D01*
X72881724Y-44441724D01*
X72643134Y-44798801D01*
X72580500Y-45113683D01*
X72199500Y-45113683D01*
X72199500Y-45113682D01*
X72136866Y-44798800D01*
X71898276Y-44441724D01*
X71541199Y-44203134D01*
X71120000Y-44119352D01*
X70698800Y-44203134D01*
X70341724Y-44441724D01*
X70103134Y-44798801D01*
X70040500Y-45113683D01*
X69659500Y-45113683D01*
X69659500Y-45113682D01*
X69596866Y-44798800D01*
X69358276Y-44441724D01*
X69001199Y-44203134D01*
X68580000Y-44119352D01*
X68158800Y-44203134D01*
X67801724Y-44441724D01*
X67563134Y-44798801D01*
X67500500Y-45113683D01*
X67125720Y-45113683D01*
X67125720Y-44458000D01*
X67101078Y-44334118D01*
X67030905Y-44229095D01*
X66925882Y-44158922D01*
X66802000Y-44134280D01*
X65278000Y-44134280D01*
X65154118Y-44158922D01*
X65049095Y-44229095D01*
X64978922Y-44334118D01*
X64954280Y-44458000D01*
X63019152Y-44458000D01*
X63008276Y-44441724D01*
X62651199Y-44203134D01*
X62230000Y-44119352D01*
X61808800Y-44203134D01*
X61451724Y-44441724D01*
X61213134Y-44798801D01*
X61150500Y-45113683D01*
X60769500Y-45113683D01*
X60769500Y-45113682D01*
X60706866Y-44798800D01*
X60468276Y-44441724D01*
X60111199Y-44203134D01*
X59690000Y-44119352D01*
X59268800Y-44203134D01*
X58911724Y-44441724D01*
X58673134Y-44798801D01*
X58610500Y-45113683D01*
X58229500Y-45113683D01*
X58229500Y-45113682D01*
X58166866Y-44798800D01*
X57928276Y-44441724D01*
X57571199Y-44203134D01*
X57150000Y-44119352D01*
X56728800Y-44203134D01*
X56371724Y-44441724D01*
X56133134Y-44798801D01*
X56070500Y-45113683D01*
X55689500Y-45113683D01*
X55689500Y-45113682D01*
X55626866Y-44798800D01*
X55388276Y-44441724D01*
X55031199Y-44203134D01*
X54610000Y-44119352D01*
X54188800Y-44203134D01*
X53831724Y-44441724D01*
X53593134Y-44798801D01*
X53530500Y-45113683D01*
X53155720Y-45113683D01*
X53155720Y-44458000D01*
X53131078Y-44334118D01*
X53060905Y-44229095D01*
X52955882Y-44158922D01*
X52832000Y-44134280D01*
X51308000Y-44134280D01*
X51184118Y-44158922D01*
X51079095Y-44229095D01*
X51008922Y-44334118D01*
X50984280Y-44458000D01*
X49049152Y-44458000D01*
X49038276Y-44441724D01*
X48681199Y-44203134D01*
X48260000Y-44119352D01*
X47838800Y-44203134D01*
X47481724Y-44441724D01*
X47243134Y-44798801D01*
X47180500Y-45113683D01*
X46799500Y-45113683D01*
X46799500Y-45113682D01*
X46736866Y-44798800D01*
X46498276Y-44441724D01*
X46141199Y-44203134D01*
X45720000Y-44119352D01*
X45298800Y-44203134D01*
X44941724Y-44441724D01*
X44703134Y-44798801D01*
X44640500Y-45113683D01*
X44259500Y-45113683D01*
X44259500Y-45113682D01*
X44196866Y-44798800D01*
X43958276Y-44441724D01*
X43601199Y-44203134D01*
X43180000Y-44119352D01*
X42758800Y-44203134D01*
X42401724Y-44441724D01*
X42163134Y-44798801D01*
X42100500Y-45113683D01*
X41719500Y-45113683D01*
X41719500Y-45113682D01*
X41656866Y-44798800D01*
X41418276Y-44441724D01*
X41061199Y-44203134D01*
X40640000Y-44119352D01*
X40218800Y-44203134D01*
X39861724Y-44441724D01*
X39623134Y-44798801D01*
X39560500Y-45113683D01*
X39185720Y-45113683D01*
X39185720Y-44458000D01*
X39161078Y-44334118D01*
X39090905Y-44229095D01*
X38985882Y-44158922D01*
X38862000Y-44134280D01*
X37338000Y-44134280D01*
X37214118Y-44158922D01*
X37109095Y-44229095D01*
X37038922Y-44334118D01*
X37014280Y-44458000D01*
X25817500Y-44458000D01*
X25817500Y-36056060D01*
X32321500Y-36056060D01*
X32321500Y-36333940D01*
X32427841Y-36590668D01*
X32624332Y-36787159D01*
X32881060Y-36893500D01*
X33158940Y-36893500D01*
X33312241Y-36830000D01*
X37807759Y-36830000D01*
X37704332Y-36872841D01*
X37507841Y-37069332D01*
X37401500Y-37326060D01*
X37401500Y-37603940D01*
X37507841Y-37860668D01*
X37704332Y-38057159D01*
X37807759Y-38100000D01*
X34582241Y-38100000D01*
X34428940Y-38036500D01*
X34151060Y-38036500D01*
X33894332Y-38142841D01*
X33697841Y-38339332D01*
X33591500Y-38596060D01*
X33591500Y-38873940D01*
X33697841Y-39130668D01*
X33894332Y-39327159D01*
X34151060Y-39433500D01*
X34428940Y-39433500D01*
X34582241Y-39370000D01*
X35267759Y-39370000D01*
X35164332Y-39412841D01*
X34967841Y-39609332D01*
X34861500Y-39866060D01*
X34861500Y-40143940D01*
X34967841Y-40400668D01*
X35164332Y-40597159D01*
X35421060Y-40703500D01*
X35698940Y-40703500D01*
X35852241Y-40640000D01*
X40347759Y-40640000D01*
X40501060Y-40703500D01*
X40778940Y-40703500D01*
X40932241Y-40640000D01*
X45427759Y-40640000D01*
X45324332Y-40682841D01*
X45127841Y-40879332D01*
X45021500Y-41136060D01*
X45021500Y-41413940D01*
X45127841Y-41670668D01*
X45324332Y-41867159D01*
X45581060Y-41973500D01*
X45858940Y-41973500D01*
X46012241Y-41910000D01*
X47967759Y-41910000D01*
X47864332Y-41952841D01*
X47667841Y-42149332D01*
X47561500Y-42406060D01*
X47561500Y-42683940D01*
X47667841Y-42940668D01*
X47864332Y-43137159D01*
X48121060Y-43243500D01*
X48398940Y-43243500D01*
X48552241Y-43180000D01*
X61937759Y-43180000D01*
X62091060Y-43243500D01*
X62368940Y-43243500D01*
X62522241Y-43180000D01*
X75907759Y-43180000D01*
X76061060Y-43243500D01*
X76338940Y-43243500D01*
X76492241Y-43180000D01*
X89877759Y-43180000D01*
X90031060Y-43243500D01*
X90308940Y-43243500D01*
X90565668Y-43137159D01*
X90762159Y-42940668D01*
X90868500Y-42683940D01*
X90868500Y-42406060D01*
X90762159Y-42149332D01*
X90565668Y-41952841D01*
X90308940Y-41846500D01*
X90031060Y-41846500D01*
X89877759Y-41910000D01*
X87922241Y-41910000D01*
X88025668Y-41867159D01*
X88222159Y-41670668D01*
X88328500Y-41413940D01*
X88328500Y-41136060D01*
X88222159Y-40879332D01*
X88025668Y-40682841D01*
X87768940Y-40576500D01*
X87491060Y-40576500D01*
X87337759Y-40640000D01*
X82842241Y-40640000D01*
X82945668Y-40597159D01*
X83142159Y-40400668D01*
X83248500Y-40143940D01*
X83248500Y-39866060D01*
X83142159Y-39609332D01*
X82945668Y-39412841D01*
X82688940Y-39306500D01*
X82411060Y-39306500D01*
X82257759Y-39370000D01*
X80302241Y-39370000D01*
X80405668Y-39327159D01*
X80602159Y-39130668D01*
X80708500Y-38873940D01*
X80708500Y-38596060D01*
X80602159Y-38339332D01*
X80405668Y-38142841D01*
X80302241Y-38100000D01*
X96227759Y-38100000D01*
X96381060Y-38163500D01*
X96658940Y-38163500D01*
X96915668Y-38057159D01*
X97112159Y-37860668D01*
X97218500Y-37603940D01*
X97218500Y-37326060D01*
X97112159Y-37069332D01*
X96915668Y-36872841D01*
X96658940Y-36766500D01*
X96381060Y-36766500D01*
X96227759Y-36830000D01*
X82842241Y-36830000D01*
X82945668Y-36787159D01*
X83142159Y-36590668D01*
X83248500Y-36333940D01*
X83248500Y-36056060D01*
X83142159Y-35799332D01*
X82945668Y-35602841D01*
X82842241Y-35560000D01*
X87337759Y-35560000D01*
X87491060Y-35623500D01*
X87768940Y-35623500D01*
X87922241Y-35560000D01*
X94957759Y-35560000D01*
X95111060Y-35623500D01*
X95388940Y-35623500D01*
X95645668Y-35517159D01*
X95842159Y-35320668D01*
X95948500Y-35063940D01*
X95948500Y-34786060D01*
X95842159Y-34529332D01*
X95645668Y-34332841D01*
X95388940Y-34226500D01*
X95111060Y-34226500D01*
X94957759Y-34290000D01*
X94272241Y-34290000D01*
X94375668Y-34247159D01*
X94572159Y-34050668D01*
X94678500Y-33793940D01*
X94678500Y-33524541D01*
X95820326Y-33997500D01*
X97219674Y-33997500D01*
X98512504Y-33461993D01*
X99501993Y-32472504D01*
X100037500Y-31179674D01*
X100037500Y-29780326D01*
X99501993Y-28487496D01*
X98512504Y-27498007D01*
X97219674Y-26962500D01*
X95820326Y-26962500D01*
X94527496Y-27498007D01*
X93538007Y-28487496D01*
X93002500Y-29780326D01*
X93002500Y-31179674D01*
X93538007Y-32472504D01*
X94022003Y-32956500D01*
X93841060Y-32956500D01*
X93687759Y-33020000D01*
X90462241Y-33020000D01*
X90308940Y-32956500D01*
X90031060Y-32956500D01*
X89877759Y-33020000D01*
X76492241Y-33020000D01*
X76338940Y-32956500D01*
X76061060Y-32956500D01*
X75907759Y-33020000D01*
X62522241Y-33020000D01*
X62368940Y-32956500D01*
X62091060Y-32956500D01*
X61937759Y-33020000D01*
X48552241Y-33020000D01*
X48398940Y-32956500D01*
X48121060Y-32956500D01*
X47864332Y-33062841D01*
X47667841Y-33259332D01*
X47561500Y-33516060D01*
X47561500Y-33793940D01*
X47667841Y-34050668D01*
X47864332Y-34247159D01*
X47967759Y-34290000D01*
X46012241Y-34290000D01*
X45858940Y-34226500D01*
X45581060Y-34226500D01*
X45324332Y-34332841D01*
X45127841Y-34529332D01*
X45021500Y-34786060D01*
X45021500Y-35063940D01*
X45127841Y-35320668D01*
X45324332Y-35517159D01*
X45427759Y-35560000D01*
X40932241Y-35560000D01*
X40778940Y-35496500D01*
X40501060Y-35496500D01*
X40347759Y-35560000D01*
X33312241Y-35560000D01*
X33158940Y-35496500D01*
X32881060Y-35496500D01*
X32624332Y-35602841D01*
X32427841Y-35799332D01*
X32321500Y-36056060D01*
X25817500Y-36056060D01*
X25817500Y-30498591D01*
X25881602Y-29780326D01*
X26962500Y-29780326D01*
X26962500Y-31179674D01*
X27498007Y-32472504D01*
X28487496Y-33461993D01*
X29780326Y-33997500D01*
X31179674Y-33997500D01*
X32472504Y-33461993D01*
X33461993Y-32472504D01*
X33997500Y-31179674D01*
X33997500Y-29873683D01*
X37020500Y-29873683D01*
X37020500Y-31086318D01*
X37083135Y-31401200D01*
X37321725Y-31758276D01*
X37678801Y-31996866D01*
X38100000Y-32080648D01*
X38521200Y-31996866D01*
X38878276Y-31758276D01*
X39116866Y-31401200D01*
X39179500Y-31086318D01*
X39179500Y-29873683D01*
X39560500Y-29873683D01*
X39560500Y-31086318D01*
X39623135Y-31401200D01*
X39861725Y-31758276D01*
X40218801Y-31996866D01*
X40640000Y-32080648D01*
X41061200Y-31996866D01*
X41418276Y-31758276D01*
X41656866Y-31401200D01*
X41719500Y-31086318D01*
X41719500Y-29873683D01*
X42100500Y-29873683D01*
X42100500Y-31086318D01*
X42163135Y-31401200D01*
X42401725Y-31758276D01*
X42758801Y-31996866D01*
X43180000Y-32080648D01*
X43601200Y-31996866D01*
X43958276Y-31758276D01*
X44196866Y-31401200D01*
X44259500Y-31086318D01*
X44259500Y-29873683D01*
X44640500Y-29873683D01*
X44640500Y-31086318D01*
X44703135Y-31401200D01*
X44941725Y-31758276D01*
X45298801Y-31996866D01*
X45720000Y-32080648D01*
X46141200Y-31996866D01*
X46498276Y-31758276D01*
X46736866Y-31401200D01*
X46799500Y-31086318D01*
X46799500Y-29873683D01*
X47180500Y-29873683D01*
X47180500Y-31086318D01*
X47243135Y-31401200D01*
X47481725Y-31758276D01*
X47838801Y-31996866D01*
X48260000Y-32080648D01*
X48681200Y-31996866D01*
X49038276Y-31758276D01*
X49276866Y-31401200D01*
X49339500Y-31086318D01*
X49339500Y-29873683D01*
X50990500Y-29873683D01*
X50990500Y-31086318D01*
X51053135Y-31401200D01*
X51291725Y-31758276D01*
X51648801Y-31996866D01*
X52070000Y-32080648D01*
X52491200Y-31996866D01*
X52848276Y-31758276D01*
X53086866Y-31401200D01*
X53149500Y-31086318D01*
X53149500Y-29873683D01*
X53530500Y-29873683D01*
X53530500Y-31086318D01*
X53593135Y-31401200D01*
X53831725Y-31758276D01*
X54188801Y-31996866D01*
X54610000Y-32080648D01*
X55031200Y-31996866D01*
X55388276Y-31758276D01*
X55626866Y-31401200D01*
X55689500Y-31086318D01*
X55689500Y-29873683D01*
X56070500Y-29873683D01*
X56070500Y-31086318D01*
X56133135Y-31401200D01*
X56371725Y-31758276D01*
X56728801Y-31996866D01*
X57150000Y-32080648D01*
X57571200Y-31996866D01*
X57928276Y-31758276D01*
X58166866Y-31401200D01*
X58229500Y-31086318D01*
X58229500Y-29873683D01*
X58610500Y-29873683D01*
X58610500Y-31086318D01*
X58673135Y-31401200D01*
X58911725Y-31758276D01*
X59268801Y-31996866D01*
X59690000Y-32080648D01*
X60111200Y-31996866D01*
X60468276Y-31758276D01*
X60706866Y-31401200D01*
X60769500Y-31086318D01*
X60769500Y-29873683D01*
X61150500Y-29873683D01*
X61150500Y-31086318D01*
X61213135Y-31401200D01*
X61451725Y-31758276D01*
X61808801Y-31996866D01*
X62230000Y-32080648D01*
X62651200Y-31996866D01*
X63008276Y-31758276D01*
X63246866Y-31401200D01*
X63309500Y-31086318D01*
X63309500Y-29873683D01*
X64960500Y-29873683D01*
X64960500Y-31086318D01*
X65023135Y-31401200D01*
X65261725Y-31758276D01*
X65618801Y-31996866D01*
X66040000Y-32080648D01*
X66461200Y-31996866D01*
X66818276Y-31758276D01*
X67056866Y-31401200D01*
X67119500Y-31086318D01*
X67119500Y-29873683D01*
X67500500Y-29873683D01*
X67500500Y-31086318D01*
X67563135Y-31401200D01*
X67801725Y-31758276D01*
X68158801Y-31996866D01*
X68580000Y-32080648D01*
X69001200Y-31996866D01*
X69358276Y-31758276D01*
X69596866Y-31401200D01*
X69659500Y-31086318D01*
X69659500Y-29873683D01*
X70040500Y-29873683D01*
X70040500Y-31086318D01*
X70103135Y-31401200D01*
X70341725Y-31758276D01*
X70698801Y-31996866D01*
X71120000Y-32080648D01*
X71541200Y-31996866D01*
X71898276Y-31758276D01*
X72136866Y-31401200D01*
X72199500Y-31086318D01*
X72199500Y-29873683D01*
X72580500Y-29873683D01*
X72580500Y-31086318D01*
X72643135Y-31401200D01*
X72881725Y-31758276D01*
X73238801Y-31996866D01*
X73660000Y-32080648D01*
X74081200Y-31996866D01*
X74438276Y-31758276D01*
X74676866Y-31401200D01*
X74739500Y-31086318D01*
X74739500Y-29873683D01*
X75120500Y-29873683D01*
X75120500Y-31086318D01*
X75183135Y-31401200D01*
X75421725Y-31758276D01*
X75778801Y-31996866D01*
X76200000Y-32080648D01*
X76621200Y-31996866D01*
X76978276Y-31758276D01*
X77216866Y-31401200D01*
X77279500Y-31086318D01*
X77279500Y-29873683D01*
X78930500Y-29873683D01*
X78930500Y-31086318D01*
X78993135Y-31401200D01*
X79231725Y-31758276D01*
X79588801Y-31996866D01*
X80010000Y-32080648D01*
X80431200Y-31996866D01*
X80788276Y-31758276D01*
X81026866Y-31401200D01*
X81089500Y-31086318D01*
X81089500Y-29873683D01*
X81470500Y-29873683D01*
X81470500Y-31086318D01*
X81533135Y-31401200D01*
X81771725Y-31758276D01*
X82128801Y-31996866D01*
X82550000Y-32080648D01*
X82971200Y-31996866D01*
X83328276Y-31758276D01*
X83566866Y-31401200D01*
X83629500Y-31086318D01*
X83629500Y-29873683D01*
X84010500Y-29873683D01*
X84010500Y-31086318D01*
X84073135Y-31401200D01*
X84311725Y-31758276D01*
X84668801Y-31996866D01*
X85090000Y-32080648D01*
X85511200Y-31996866D01*
X85868276Y-31758276D01*
X86106866Y-31401200D01*
X86169500Y-31086318D01*
X86169500Y-29873683D01*
X86550500Y-29873683D01*
X86550500Y-31086318D01*
X86613135Y-31401200D01*
X86851725Y-31758276D01*
X87208801Y-31996866D01*
X87630000Y-32080648D01*
X88051200Y-31996866D01*
X88408276Y-31758276D01*
X88646866Y-31401200D01*
X88709500Y-31086318D01*
X88709500Y-29873683D01*
X89090500Y-29873683D01*
X89090500Y-31086318D01*
X89153135Y-31401200D01*
X89391725Y-31758276D01*
X89748801Y-31996866D01*
X90170000Y-32080648D01*
X90591200Y-31996866D01*
X90948276Y-31758276D01*
X91186866Y-31401200D01*
X91249500Y-31086318D01*
X91249500Y-29873682D01*
X91186866Y-29558800D01*
X90948276Y-29201724D01*
X90591199Y-28963134D01*
X90170000Y-28879352D01*
X89748800Y-28963134D01*
X89391724Y-29201724D01*
X89153134Y-29558801D01*
X89090500Y-29873683D01*
X88709500Y-29873683D01*
X88709500Y-29873682D01*
X88646866Y-29558800D01*
X88408276Y-29201724D01*
X88051199Y-28963134D01*
X87630000Y-28879352D01*
X87208800Y-28963134D01*
X86851724Y-29201724D01*
X86613134Y-29558801D01*
X86550500Y-29873683D01*
X86169500Y-29873683D01*
X86169500Y-29873682D01*
X86106866Y-29558800D01*
X85868276Y-29201724D01*
X85511199Y-28963134D01*
X85090000Y-28879352D01*
X84668800Y-28963134D01*
X84311724Y-29201724D01*
X84073134Y-29558801D01*
X84010500Y-29873683D01*
X83629500Y-29873683D01*
X83629500Y-29873682D01*
X83566866Y-29558800D01*
X83328276Y-29201724D01*
X82971199Y-28963134D01*
X82550000Y-28879352D01*
X82128800Y-28963134D01*
X81771724Y-29201724D01*
X81533134Y-29558801D01*
X81470500Y-29873683D01*
X81089500Y-29873683D01*
X81089500Y-29873682D01*
X81026866Y-29558800D01*
X80788276Y-29201724D01*
X80431199Y-28963134D01*
X80010000Y-28879352D01*
X79588800Y-28963134D01*
X79231724Y-29201724D01*
X78993134Y-29558801D01*
X78930500Y-29873683D01*
X77279500Y-29873683D01*
X77279500Y-29873682D01*
X77216866Y-29558800D01*
X76978276Y-29201724D01*
X76621199Y-28963134D01*
X76200000Y-28879352D01*
X75778800Y-28963134D01*
X75421724Y-29201724D01*
X75183134Y-29558801D01*
X75120500Y-29873683D01*
X74739500Y-29873683D01*
X74739500Y-29873682D01*
X74676866Y-29558800D01*
X74438276Y-29201724D01*
X74081199Y-28963134D01*
X73660000Y-28879352D01*
X73238800Y-28963134D01*
X72881724Y-29201724D01*
X72643134Y-29558801D01*
X72580500Y-29873683D01*
X72199500Y-29873683D01*
X72199500Y-29873682D01*
X72136866Y-29558800D01*
X71898276Y-29201724D01*
X71541199Y-28963134D01*
X71120000Y-28879352D01*
X70698800Y-28963134D01*
X70341724Y-29201724D01*
X70103134Y-29558801D01*
X70040500Y-29873683D01*
X69659500Y-29873683D01*
X69659500Y-29873682D01*
X69596866Y-29558800D01*
X69358276Y-29201724D01*
X69001199Y-28963134D01*
X68580000Y-28879352D01*
X68158800Y-28963134D01*
X67801724Y-29201724D01*
X67563134Y-29558801D01*
X67500500Y-29873683D01*
X67119500Y-29873683D01*
X67119500Y-29873682D01*
X67056866Y-29558800D01*
X66818276Y-29201724D01*
X66461199Y-28963134D01*
X66040000Y-28879352D01*
X65618800Y-28963134D01*
X65261724Y-29201724D01*
X65023134Y-29558801D01*
X64960500Y-29873683D01*
X63309500Y-29873683D01*
X63309500Y-29873682D01*
X63246866Y-29558800D01*
X63008276Y-29201724D01*
X62651199Y-28963134D01*
X62230000Y-28879352D01*
X61808800Y-28963134D01*
X61451724Y-29201724D01*
X61213134Y-29558801D01*
X61150500Y-29873683D01*
X60769500Y-29873683D01*
X60769500Y-29873682D01*
X60706866Y-29558800D01*
X60468276Y-29201724D01*
X60111199Y-28963134D01*
X59690000Y-28879352D01*
X59268800Y-28963134D01*
X58911724Y-29201724D01*
X58673134Y-29558801D01*
X58610500Y-29873683D01*
X58229500Y-29873683D01*
X58229500Y-29873682D01*
X58166866Y-29558800D01*
X57928276Y-29201724D01*
X57571199Y-28963134D01*
X57150000Y-28879352D01*
X56728800Y-28963134D01*
X56371724Y-29201724D01*
X56133134Y-29558801D01*
X56070500Y-29873683D01*
X55689500Y-29873683D01*
X55689500Y-29873682D01*
X55626866Y-29558800D01*
X55388276Y-29201724D01*
X55031199Y-28963134D01*
X54610000Y-28879352D01*
X54188800Y-28963134D01*
X53831724Y-29201724D01*
X53593134Y-29558801D01*
X53530500Y-29873683D01*
X53149500Y-29873683D01*
X53149500Y-29873682D01*
X53086866Y-29558800D01*
X52848276Y-29201724D01*
X52491199Y-28963134D01*
X52070000Y-28879352D01*
X51648800Y-28963134D01*
X51291724Y-29201724D01*
X51053134Y-29558801D01*
X50990500Y-29873683D01*
X49339500Y-29873683D01*
X49339500Y-29873682D01*
X49276866Y-29558800D01*
X49038276Y-29201724D01*
X48681199Y-28963134D01*
X48260000Y-28879352D01*
X47838800Y-28963134D01*
X47481724Y-29201724D01*
X47243134Y-29558801D01*
X47180500Y-29873683D01*
X46799500Y-29873683D01*
X46799500Y-29873682D01*
X46736866Y-29558800D01*
X46498276Y-29201724D01*
X46141199Y-28963134D01*
X45720000Y-28879352D01*
X45298800Y-28963134D01*
X44941724Y-29201724D01*
X44703134Y-29558801D01*
X44640500Y-29873683D01*
X44259500Y-29873683D01*
X44259500Y-29873682D01*
X44196866Y-29558800D01*
X43958276Y-29201724D01*
X43601199Y-28963134D01*
X43180000Y-28879352D01*
X42758800Y-28963134D01*
X42401724Y-29201724D01*
X42163134Y-29558801D01*
X42100500Y-29873683D01*
X41719500Y-29873683D01*
X41719500Y-29873682D01*
X41656866Y-29558800D01*
X41418276Y-29201724D01*
X41061199Y-28963134D01*
X40640000Y-28879352D01*
X40218800Y-28963134D01*
X39861724Y-29201724D01*
X39623134Y-29558801D01*
X39560500Y-29873683D01*
X39179500Y-29873683D01*
X39179500Y-29873682D01*
X39116866Y-29558800D01*
X38878276Y-29201724D01*
X38521199Y-28963134D01*
X38100000Y-28879352D01*
X37678800Y-28963134D01*
X37321724Y-29201724D01*
X37083134Y-29558801D01*
X37020500Y-29873683D01*
X33997500Y-29873683D01*
X33997500Y-29780326D01*
X33461993Y-28487496D01*
X32472504Y-27498007D01*
X31179674Y-26962500D01*
X29780326Y-26962500D01*
X28487496Y-27498007D01*
X27498007Y-28487496D01*
X26962500Y-29780326D01*
X25881602Y-29780326D01*
X25892820Y-29654639D01*
X26111478Y-28855360D01*
X26468219Y-28107439D01*
X26951767Y-27434510D01*
X27546836Y-26857848D01*
X28234622Y-26395674D01*
X28993378Y-26062603D01*
X29802343Y-25868389D01*
X30495312Y-25817500D01*
X96501409Y-25817500D01*
X97345361Y-25892820D01*
G04 #@! TD*
M02*
