M48
;DRILL file {KiCad (5.0.0)} date 01/05/20 19:49:00
;FORMAT={-:-/ absolute / inch / decimal}
FMAT,2
INCH,TZ
T1C0.0150
T2C0.0217
T3C0.0295
T4C0.0315
T5C0.0394
T6C0.1260
%
G90
G05
M72
T1
X1.15Y-2.2
X1.15Y-2.6
X1.3Y-1.425
X1.3Y-2.375
X1.35Y-1.525
X1.35Y-2.325
X1.4Y-1.575
X1.4Y-2.275
X1.5Y-1.475
X1.5Y-1.525
X1.525Y-1.95
X1.525Y-2.925
X1.575Y-2.1
X1.575Y-2.875
X1.6Y-1.425
X1.6Y-1.575
X1.65Y-1.95
X1.8Y-1.375
X1.8Y-1.625
X1.9Y-1.325
X1.9Y-1.675
X1.95Y-2.6
X2.05Y-1.475
X2.05Y-1.525
X2.15Y-1.425
X2.15Y-1.575
X2.2Y-2.1
X2.25Y-2.275
X2.25Y-2.55
X2.3Y-2.325
X2.3Y-2.5
X2.35Y-1.375
X2.35Y-1.625
X2.35Y-2.6
X2.45Y-1.325
X2.45Y-1.675
X2.55Y-2.45
X2.55Y-2.875
X2.6Y-1.475
X2.6Y-1.525
X2.65Y-2.5
X2.65Y-2.925
X2.7Y-1.425
X2.7Y-1.575
X2.75Y-2.125
X2.75Y-2.55
X2.75Y-2.925
X2.85Y-2.675
X2.85Y-2.875
X2.9Y-1.375
X2.9Y-1.625
X2.95Y-2.625
X3.Y-1.325
X3.Y-1.675
X3.05Y-2.575
X3.15Y-1.475
X3.15Y-1.525
X3.25Y-1.425
X3.25Y-1.575
X3.3Y-2.075
X3.35Y-2.525
X3.45Y-1.375
X3.45Y-1.625
X3.45Y-1.95
X3.45Y-2.025
X3.45Y-2.8
X3.55Y-1.325
X3.55Y-1.675
X3.55Y-2.025
X3.55Y-2.125
X3.55Y-2.875
X3.6Y-2.075
X3.6Y-2.925
X3.65Y-1.95
X3.65Y-2.675
X3.7Y-1.325
X3.7Y-2.625
X3.75Y-1.375
X3.75Y-2.575
X3.8Y-1.475
X3.8Y-2.525
T2
X1.15Y-2.325
X1.15Y-2.375
X1.15Y-2.425
T3
X3.25Y-2.02
X3.3Y-2.02
X3.35Y-2.02
X2.7Y-2.02
X2.75Y-2.02
X2.8Y-2.02
X2.15Y-2.02
X2.2Y-2.02
X2.25Y-2.02
X1.6Y-2.02
X1.65Y-2.02
X1.7Y-2.02
T4
X1.95Y-2.2
X1.95Y-2.8
X2.05Y-2.2
X2.05Y-2.8
X2.15Y-2.2
X2.15Y-2.8
X2.25Y-2.2
X2.25Y-2.8
X2.35Y-2.2
X2.35Y-2.8
X2.45Y-2.2
X2.45Y-2.8
X2.55Y-2.2
X2.55Y-2.8
X2.65Y-2.2
X2.65Y-2.8
X2.75Y-2.2
X2.75Y-2.8
X2.85Y-2.2
X2.85Y-2.8
X2.95Y-2.2
X2.95Y-2.8
X3.05Y-2.2
X3.05Y-2.8
X3.15Y-2.2
X3.15Y-2.8
X3.25Y-2.2
X3.25Y-2.8
X3.35Y-2.2
X3.35Y-2.8
X2.05Y-1.2
X2.05Y-1.8
X2.15Y-1.2
X2.15Y-1.8
X2.25Y-1.2
X2.25Y-1.8
X2.35Y-1.2
X2.35Y-1.8
X2.45Y-1.2
X2.45Y-1.8
X1.5Y-1.2
X1.5Y-1.8
X1.6Y-1.2
X1.6Y-1.8
X1.7Y-1.2
X1.7Y-1.8
X1.8Y-1.2
X1.8Y-1.8
X1.9Y-1.2
X1.9Y-1.8
X2.6Y-1.2
X2.6Y-1.8
X2.7Y-1.2
X2.7Y-1.8
X2.8Y-1.2
X2.8Y-1.8
X2.9Y-1.2
X2.9Y-1.8
X3.Y-1.2
X3.Y-1.8
X3.15Y-1.2
X3.15Y-1.8
X3.25Y-1.2
X3.25Y-1.8
X3.35Y-1.2
X3.35Y-1.8
X3.45Y-1.2
X3.45Y-1.8
X3.55Y-1.2
X3.55Y-1.8
T5
X1.15Y-2.
X1.15Y-2.1
T6
X1.2Y-1.2
X3.8Y-1.2
X1.2Y-2.8
X3.8Y-2.8
T0
M30
