G04 #@! TF.GenerationSoftware,KiCad,Pcbnew,(5.0.0)*
G04 #@! TF.CreationDate,2020-01-05T19:48:47-05:00*
G04 #@! TF.ProjectId,Lathe RPM Display,4C617468652052504D20446973706C61,A*
G04 #@! TF.SameCoordinates,Original*
G04 #@! TF.FileFunction,Soldermask,Bot*
G04 #@! TF.FilePolarity,Negative*
%FSLAX46Y46*%
G04 Gerber Fmt 4.6, Leading zero omitted, Abs format (unit mm)*
G04 Created by KiCad (PCBNEW (5.0.0)) date 01/05/20 19:48:47*
%MOMM*%
%LPD*%
G01*
G04 APERTURE LIST*
%ADD10R,1.924000X2.924000*%
%ADD11O,1.924000X2.924000*%
%ADD12C,6.800000*%
%ADD13R,1.450000X1.900000*%
%ADD14O,1.450000X1.900000*%
%ADD15R,2.000000X2.000000*%
%ADD16O,2.000000X2.000000*%
%ADD17O,1.900000X1.400000*%
%ADD18R,1.900000X1.400000*%
%ADD19C,0.100000*%
%ADD20C,1.550000*%
%ADD21R,2.100000X2.100000*%
%ADD22O,2.100000X2.100000*%
G04 APERTURE END LIST*
D10*
G04 #@! TO.C,U3*
X66040000Y-45720000D03*
D11*
X68580000Y-45720000D03*
X71120000Y-45720000D03*
X73660000Y-45720000D03*
X76200000Y-45720000D03*
X76200000Y-30480000D03*
X73660000Y-30480000D03*
X71120000Y-30480000D03*
X68580000Y-30480000D03*
X66040000Y-30480000D03*
G04 #@! TD*
G04 #@! TO.C,U2*
X52070000Y-30480000D03*
X54610000Y-30480000D03*
X57150000Y-30480000D03*
X59690000Y-30480000D03*
X62230000Y-30480000D03*
X62230000Y-45720000D03*
X59690000Y-45720000D03*
X57150000Y-45720000D03*
X54610000Y-45720000D03*
D10*
X52070000Y-45720000D03*
G04 #@! TD*
D12*
G04 #@! TO.C,REF\002A\002A*
X96520000Y-30480000D03*
G04 #@! TD*
G04 #@! TO.C,REF\002A\002A*
X96520000Y-71120000D03*
G04 #@! TD*
G04 #@! TO.C,REF\002A\002A*
X30480000Y-71120000D03*
G04 #@! TD*
G04 #@! TO.C,REF\002A\002A*
X30480000Y-30480000D03*
G04 #@! TD*
D13*
G04 #@! TO.C,Q2*
X40640000Y-51308000D03*
D14*
X43180000Y-51308000D03*
X41910000Y-51308000D03*
G04 #@! TD*
D15*
G04 #@! TO.C,A1*
X49530000Y-71120000D03*
D16*
X82550000Y-55880000D03*
X52070000Y-71120000D03*
X80010000Y-55880000D03*
X54610000Y-71120000D03*
X77470000Y-55880000D03*
X57150000Y-71120000D03*
X74930000Y-55880000D03*
X59690000Y-71120000D03*
X72390000Y-55880000D03*
X62230000Y-71120000D03*
X69850000Y-55880000D03*
X64770000Y-71120000D03*
X67310000Y-55880000D03*
X67310000Y-71120000D03*
X64770000Y-55880000D03*
X69850000Y-71120000D03*
X62230000Y-55880000D03*
X72390000Y-71120000D03*
X59690000Y-55880000D03*
X74930000Y-71120000D03*
X57150000Y-55880000D03*
X77470000Y-71120000D03*
X54610000Y-55880000D03*
X80010000Y-71120000D03*
X52070000Y-55880000D03*
X82550000Y-71120000D03*
X49530000Y-55880000D03*
X85090000Y-71120000D03*
X85090000Y-55880000D03*
G04 #@! TD*
D17*
G04 #@! TO.C,Q1*
X29210000Y-60325000D03*
X29210000Y-61595000D03*
D18*
X29210000Y-59055000D03*
G04 #@! TD*
D14*
G04 #@! TO.C,Q3*
X55880000Y-51308000D03*
X57150000Y-51308000D03*
D13*
X54610000Y-51308000D03*
G04 #@! TD*
G04 #@! TO.C,Q4*
X68580000Y-51308000D03*
D14*
X71120000Y-51308000D03*
X69850000Y-51308000D03*
G04 #@! TD*
G04 #@! TO.C,Q5*
X83820000Y-51308000D03*
X85090000Y-51308000D03*
D13*
X82550000Y-51308000D03*
G04 #@! TD*
D19*
G04 #@! TO.C,R1*
G36*
X78066071Y-59950623D02*
X78098781Y-59955475D01*
X78130857Y-59963509D01*
X78161991Y-59974649D01*
X78191884Y-59988787D01*
X78220247Y-60005787D01*
X78246807Y-60025485D01*
X78271308Y-60047692D01*
X78293515Y-60072193D01*
X78313213Y-60098753D01*
X78330213Y-60127116D01*
X78344351Y-60157009D01*
X78355491Y-60188143D01*
X78363525Y-60220219D01*
X78368377Y-60252929D01*
X78370000Y-60285956D01*
X78370000Y-61162044D01*
X78368377Y-61195071D01*
X78363525Y-61227781D01*
X78355491Y-61259857D01*
X78344351Y-61290991D01*
X78330213Y-61320884D01*
X78313213Y-61349247D01*
X78293515Y-61375807D01*
X78271308Y-61400308D01*
X78246807Y-61422515D01*
X78220247Y-61442213D01*
X78191884Y-61459213D01*
X78161991Y-61473351D01*
X78130857Y-61484491D01*
X78098781Y-61492525D01*
X78066071Y-61497377D01*
X78033044Y-61499000D01*
X76906956Y-61499000D01*
X76873929Y-61497377D01*
X76841219Y-61492525D01*
X76809143Y-61484491D01*
X76778009Y-61473351D01*
X76748116Y-61459213D01*
X76719753Y-61442213D01*
X76693193Y-61422515D01*
X76668692Y-61400308D01*
X76646485Y-61375807D01*
X76626787Y-61349247D01*
X76609787Y-61320884D01*
X76595649Y-61290991D01*
X76584509Y-61259857D01*
X76576475Y-61227781D01*
X76571623Y-61195071D01*
X76570000Y-61162044D01*
X76570000Y-60285956D01*
X76571623Y-60252929D01*
X76576475Y-60220219D01*
X76584509Y-60188143D01*
X76595649Y-60157009D01*
X76609787Y-60127116D01*
X76626787Y-60098753D01*
X76646485Y-60072193D01*
X76668692Y-60047692D01*
X76693193Y-60025485D01*
X76719753Y-60005787D01*
X76748116Y-59988787D01*
X76778009Y-59974649D01*
X76809143Y-59963509D01*
X76841219Y-59955475D01*
X76873929Y-59950623D01*
X76906956Y-59949000D01*
X78033044Y-59949000D01*
X78066071Y-59950623D01*
X78066071Y-59950623D01*
G37*
D20*
X77470000Y-60724000D03*
D19*
G36*
X78066071Y-57900623D02*
X78098781Y-57905475D01*
X78130857Y-57913509D01*
X78161991Y-57924649D01*
X78191884Y-57938787D01*
X78220247Y-57955787D01*
X78246807Y-57975485D01*
X78271308Y-57997692D01*
X78293515Y-58022193D01*
X78313213Y-58048753D01*
X78330213Y-58077116D01*
X78344351Y-58107009D01*
X78355491Y-58138143D01*
X78363525Y-58170219D01*
X78368377Y-58202929D01*
X78370000Y-58235956D01*
X78370000Y-59112044D01*
X78368377Y-59145071D01*
X78363525Y-59177781D01*
X78355491Y-59209857D01*
X78344351Y-59240991D01*
X78330213Y-59270884D01*
X78313213Y-59299247D01*
X78293515Y-59325807D01*
X78271308Y-59350308D01*
X78246807Y-59372515D01*
X78220247Y-59392213D01*
X78191884Y-59409213D01*
X78161991Y-59423351D01*
X78130857Y-59434491D01*
X78098781Y-59442525D01*
X78066071Y-59447377D01*
X78033044Y-59449000D01*
X76906956Y-59449000D01*
X76873929Y-59447377D01*
X76841219Y-59442525D01*
X76809143Y-59434491D01*
X76778009Y-59423351D01*
X76748116Y-59409213D01*
X76719753Y-59392213D01*
X76693193Y-59372515D01*
X76668692Y-59350308D01*
X76646485Y-59325807D01*
X76626787Y-59299247D01*
X76609787Y-59270884D01*
X76595649Y-59240991D01*
X76584509Y-59209857D01*
X76576475Y-59177781D01*
X76571623Y-59145071D01*
X76570000Y-59112044D01*
X76570000Y-58235956D01*
X76571623Y-58202929D01*
X76576475Y-58170219D01*
X76584509Y-58138143D01*
X76595649Y-58107009D01*
X76609787Y-58077116D01*
X76626787Y-58048753D01*
X76646485Y-58022193D01*
X76668692Y-57997692D01*
X76693193Y-57975485D01*
X76719753Y-57955787D01*
X76748116Y-57938787D01*
X76778009Y-57924649D01*
X76809143Y-57913509D01*
X76841219Y-57905475D01*
X76873929Y-57900623D01*
X76906956Y-57899000D01*
X78033044Y-57899000D01*
X78066071Y-57900623D01*
X78066071Y-57900623D01*
G37*
D20*
X77470000Y-58674000D03*
G04 #@! TD*
D19*
G04 #@! TO.C,R2*
G36*
X75526071Y-57900623D02*
X75558781Y-57905475D01*
X75590857Y-57913509D01*
X75621991Y-57924649D01*
X75651884Y-57938787D01*
X75680247Y-57955787D01*
X75706807Y-57975485D01*
X75731308Y-57997692D01*
X75753515Y-58022193D01*
X75773213Y-58048753D01*
X75790213Y-58077116D01*
X75804351Y-58107009D01*
X75815491Y-58138143D01*
X75823525Y-58170219D01*
X75828377Y-58202929D01*
X75830000Y-58235956D01*
X75830000Y-59112044D01*
X75828377Y-59145071D01*
X75823525Y-59177781D01*
X75815491Y-59209857D01*
X75804351Y-59240991D01*
X75790213Y-59270884D01*
X75773213Y-59299247D01*
X75753515Y-59325807D01*
X75731308Y-59350308D01*
X75706807Y-59372515D01*
X75680247Y-59392213D01*
X75651884Y-59409213D01*
X75621991Y-59423351D01*
X75590857Y-59434491D01*
X75558781Y-59442525D01*
X75526071Y-59447377D01*
X75493044Y-59449000D01*
X74366956Y-59449000D01*
X74333929Y-59447377D01*
X74301219Y-59442525D01*
X74269143Y-59434491D01*
X74238009Y-59423351D01*
X74208116Y-59409213D01*
X74179753Y-59392213D01*
X74153193Y-59372515D01*
X74128692Y-59350308D01*
X74106485Y-59325807D01*
X74086787Y-59299247D01*
X74069787Y-59270884D01*
X74055649Y-59240991D01*
X74044509Y-59209857D01*
X74036475Y-59177781D01*
X74031623Y-59145071D01*
X74030000Y-59112044D01*
X74030000Y-58235956D01*
X74031623Y-58202929D01*
X74036475Y-58170219D01*
X74044509Y-58138143D01*
X74055649Y-58107009D01*
X74069787Y-58077116D01*
X74086787Y-58048753D01*
X74106485Y-58022193D01*
X74128692Y-57997692D01*
X74153193Y-57975485D01*
X74179753Y-57955787D01*
X74208116Y-57938787D01*
X74238009Y-57924649D01*
X74269143Y-57913509D01*
X74301219Y-57905475D01*
X74333929Y-57900623D01*
X74366956Y-57899000D01*
X75493044Y-57899000D01*
X75526071Y-57900623D01*
X75526071Y-57900623D01*
G37*
D20*
X74930000Y-58674000D03*
D19*
G36*
X75526071Y-59950623D02*
X75558781Y-59955475D01*
X75590857Y-59963509D01*
X75621991Y-59974649D01*
X75651884Y-59988787D01*
X75680247Y-60005787D01*
X75706807Y-60025485D01*
X75731308Y-60047692D01*
X75753515Y-60072193D01*
X75773213Y-60098753D01*
X75790213Y-60127116D01*
X75804351Y-60157009D01*
X75815491Y-60188143D01*
X75823525Y-60220219D01*
X75828377Y-60252929D01*
X75830000Y-60285956D01*
X75830000Y-61162044D01*
X75828377Y-61195071D01*
X75823525Y-61227781D01*
X75815491Y-61259857D01*
X75804351Y-61290991D01*
X75790213Y-61320884D01*
X75773213Y-61349247D01*
X75753515Y-61375807D01*
X75731308Y-61400308D01*
X75706807Y-61422515D01*
X75680247Y-61442213D01*
X75651884Y-61459213D01*
X75621991Y-61473351D01*
X75590857Y-61484491D01*
X75558781Y-61492525D01*
X75526071Y-61497377D01*
X75493044Y-61499000D01*
X74366956Y-61499000D01*
X74333929Y-61497377D01*
X74301219Y-61492525D01*
X74269143Y-61484491D01*
X74238009Y-61473351D01*
X74208116Y-61459213D01*
X74179753Y-61442213D01*
X74153193Y-61422515D01*
X74128692Y-61400308D01*
X74106485Y-61375807D01*
X74086787Y-61349247D01*
X74069787Y-61320884D01*
X74055649Y-61290991D01*
X74044509Y-61259857D01*
X74036475Y-61227781D01*
X74031623Y-61195071D01*
X74030000Y-61162044D01*
X74030000Y-60285956D01*
X74031623Y-60252929D01*
X74036475Y-60220219D01*
X74044509Y-60188143D01*
X74055649Y-60157009D01*
X74069787Y-60127116D01*
X74086787Y-60098753D01*
X74106485Y-60072193D01*
X74128692Y-60047692D01*
X74153193Y-60025485D01*
X74179753Y-60005787D01*
X74208116Y-59988787D01*
X74238009Y-59974649D01*
X74269143Y-59963509D01*
X74301219Y-59955475D01*
X74333929Y-59950623D01*
X74366956Y-59949000D01*
X75493044Y-59949000D01*
X75526071Y-59950623D01*
X75526071Y-59950623D01*
G37*
D20*
X74930000Y-60724000D03*
G04 #@! TD*
D19*
G04 #@! TO.C,R3*
G36*
X72986071Y-59950623D02*
X73018781Y-59955475D01*
X73050857Y-59963509D01*
X73081991Y-59974649D01*
X73111884Y-59988787D01*
X73140247Y-60005787D01*
X73166807Y-60025485D01*
X73191308Y-60047692D01*
X73213515Y-60072193D01*
X73233213Y-60098753D01*
X73250213Y-60127116D01*
X73264351Y-60157009D01*
X73275491Y-60188143D01*
X73283525Y-60220219D01*
X73288377Y-60252929D01*
X73290000Y-60285956D01*
X73290000Y-61162044D01*
X73288377Y-61195071D01*
X73283525Y-61227781D01*
X73275491Y-61259857D01*
X73264351Y-61290991D01*
X73250213Y-61320884D01*
X73233213Y-61349247D01*
X73213515Y-61375807D01*
X73191308Y-61400308D01*
X73166807Y-61422515D01*
X73140247Y-61442213D01*
X73111884Y-61459213D01*
X73081991Y-61473351D01*
X73050857Y-61484491D01*
X73018781Y-61492525D01*
X72986071Y-61497377D01*
X72953044Y-61499000D01*
X71826956Y-61499000D01*
X71793929Y-61497377D01*
X71761219Y-61492525D01*
X71729143Y-61484491D01*
X71698009Y-61473351D01*
X71668116Y-61459213D01*
X71639753Y-61442213D01*
X71613193Y-61422515D01*
X71588692Y-61400308D01*
X71566485Y-61375807D01*
X71546787Y-61349247D01*
X71529787Y-61320884D01*
X71515649Y-61290991D01*
X71504509Y-61259857D01*
X71496475Y-61227781D01*
X71491623Y-61195071D01*
X71490000Y-61162044D01*
X71490000Y-60285956D01*
X71491623Y-60252929D01*
X71496475Y-60220219D01*
X71504509Y-60188143D01*
X71515649Y-60157009D01*
X71529787Y-60127116D01*
X71546787Y-60098753D01*
X71566485Y-60072193D01*
X71588692Y-60047692D01*
X71613193Y-60025485D01*
X71639753Y-60005787D01*
X71668116Y-59988787D01*
X71698009Y-59974649D01*
X71729143Y-59963509D01*
X71761219Y-59955475D01*
X71793929Y-59950623D01*
X71826956Y-59949000D01*
X72953044Y-59949000D01*
X72986071Y-59950623D01*
X72986071Y-59950623D01*
G37*
D20*
X72390000Y-60724000D03*
D19*
G36*
X72986071Y-57900623D02*
X73018781Y-57905475D01*
X73050857Y-57913509D01*
X73081991Y-57924649D01*
X73111884Y-57938787D01*
X73140247Y-57955787D01*
X73166807Y-57975485D01*
X73191308Y-57997692D01*
X73213515Y-58022193D01*
X73233213Y-58048753D01*
X73250213Y-58077116D01*
X73264351Y-58107009D01*
X73275491Y-58138143D01*
X73283525Y-58170219D01*
X73288377Y-58202929D01*
X73290000Y-58235956D01*
X73290000Y-59112044D01*
X73288377Y-59145071D01*
X73283525Y-59177781D01*
X73275491Y-59209857D01*
X73264351Y-59240991D01*
X73250213Y-59270884D01*
X73233213Y-59299247D01*
X73213515Y-59325807D01*
X73191308Y-59350308D01*
X73166807Y-59372515D01*
X73140247Y-59392213D01*
X73111884Y-59409213D01*
X73081991Y-59423351D01*
X73050857Y-59434491D01*
X73018781Y-59442525D01*
X72986071Y-59447377D01*
X72953044Y-59449000D01*
X71826956Y-59449000D01*
X71793929Y-59447377D01*
X71761219Y-59442525D01*
X71729143Y-59434491D01*
X71698009Y-59423351D01*
X71668116Y-59409213D01*
X71639753Y-59392213D01*
X71613193Y-59372515D01*
X71588692Y-59350308D01*
X71566485Y-59325807D01*
X71546787Y-59299247D01*
X71529787Y-59270884D01*
X71515649Y-59240991D01*
X71504509Y-59209857D01*
X71496475Y-59177781D01*
X71491623Y-59145071D01*
X71490000Y-59112044D01*
X71490000Y-58235956D01*
X71491623Y-58202929D01*
X71496475Y-58170219D01*
X71504509Y-58138143D01*
X71515649Y-58107009D01*
X71529787Y-58077116D01*
X71546787Y-58048753D01*
X71566485Y-58022193D01*
X71588692Y-57997692D01*
X71613193Y-57975485D01*
X71639753Y-57955787D01*
X71668116Y-57938787D01*
X71698009Y-57924649D01*
X71729143Y-57913509D01*
X71761219Y-57905475D01*
X71793929Y-57900623D01*
X71826956Y-57899000D01*
X72953044Y-57899000D01*
X72986071Y-57900623D01*
X72986071Y-57900623D01*
G37*
D20*
X72390000Y-58674000D03*
G04 #@! TD*
D19*
G04 #@! TO.C,R4*
G36*
X70446071Y-57891623D02*
X70478781Y-57896475D01*
X70510857Y-57904509D01*
X70541991Y-57915649D01*
X70571884Y-57929787D01*
X70600247Y-57946787D01*
X70626807Y-57966485D01*
X70651308Y-57988692D01*
X70673515Y-58013193D01*
X70693213Y-58039753D01*
X70710213Y-58068116D01*
X70724351Y-58098009D01*
X70735491Y-58129143D01*
X70743525Y-58161219D01*
X70748377Y-58193929D01*
X70750000Y-58226956D01*
X70750000Y-59103044D01*
X70748377Y-59136071D01*
X70743525Y-59168781D01*
X70735491Y-59200857D01*
X70724351Y-59231991D01*
X70710213Y-59261884D01*
X70693213Y-59290247D01*
X70673515Y-59316807D01*
X70651308Y-59341308D01*
X70626807Y-59363515D01*
X70600247Y-59383213D01*
X70571884Y-59400213D01*
X70541991Y-59414351D01*
X70510857Y-59425491D01*
X70478781Y-59433525D01*
X70446071Y-59438377D01*
X70413044Y-59440000D01*
X69286956Y-59440000D01*
X69253929Y-59438377D01*
X69221219Y-59433525D01*
X69189143Y-59425491D01*
X69158009Y-59414351D01*
X69128116Y-59400213D01*
X69099753Y-59383213D01*
X69073193Y-59363515D01*
X69048692Y-59341308D01*
X69026485Y-59316807D01*
X69006787Y-59290247D01*
X68989787Y-59261884D01*
X68975649Y-59231991D01*
X68964509Y-59200857D01*
X68956475Y-59168781D01*
X68951623Y-59136071D01*
X68950000Y-59103044D01*
X68950000Y-58226956D01*
X68951623Y-58193929D01*
X68956475Y-58161219D01*
X68964509Y-58129143D01*
X68975649Y-58098009D01*
X68989787Y-58068116D01*
X69006787Y-58039753D01*
X69026485Y-58013193D01*
X69048692Y-57988692D01*
X69073193Y-57966485D01*
X69099753Y-57946787D01*
X69128116Y-57929787D01*
X69158009Y-57915649D01*
X69189143Y-57904509D01*
X69221219Y-57896475D01*
X69253929Y-57891623D01*
X69286956Y-57890000D01*
X70413044Y-57890000D01*
X70446071Y-57891623D01*
X70446071Y-57891623D01*
G37*
D20*
X69850000Y-58665000D03*
D19*
G36*
X70446071Y-59941623D02*
X70478781Y-59946475D01*
X70510857Y-59954509D01*
X70541991Y-59965649D01*
X70571884Y-59979787D01*
X70600247Y-59996787D01*
X70626807Y-60016485D01*
X70651308Y-60038692D01*
X70673515Y-60063193D01*
X70693213Y-60089753D01*
X70710213Y-60118116D01*
X70724351Y-60148009D01*
X70735491Y-60179143D01*
X70743525Y-60211219D01*
X70748377Y-60243929D01*
X70750000Y-60276956D01*
X70750000Y-61153044D01*
X70748377Y-61186071D01*
X70743525Y-61218781D01*
X70735491Y-61250857D01*
X70724351Y-61281991D01*
X70710213Y-61311884D01*
X70693213Y-61340247D01*
X70673515Y-61366807D01*
X70651308Y-61391308D01*
X70626807Y-61413515D01*
X70600247Y-61433213D01*
X70571884Y-61450213D01*
X70541991Y-61464351D01*
X70510857Y-61475491D01*
X70478781Y-61483525D01*
X70446071Y-61488377D01*
X70413044Y-61490000D01*
X69286956Y-61490000D01*
X69253929Y-61488377D01*
X69221219Y-61483525D01*
X69189143Y-61475491D01*
X69158009Y-61464351D01*
X69128116Y-61450213D01*
X69099753Y-61433213D01*
X69073193Y-61413515D01*
X69048692Y-61391308D01*
X69026485Y-61366807D01*
X69006787Y-61340247D01*
X68989787Y-61311884D01*
X68975649Y-61281991D01*
X68964509Y-61250857D01*
X68956475Y-61218781D01*
X68951623Y-61186071D01*
X68950000Y-61153044D01*
X68950000Y-60276956D01*
X68951623Y-60243929D01*
X68956475Y-60211219D01*
X68964509Y-60179143D01*
X68975649Y-60148009D01*
X68989787Y-60118116D01*
X69006787Y-60089753D01*
X69026485Y-60063193D01*
X69048692Y-60038692D01*
X69073193Y-60016485D01*
X69099753Y-59996787D01*
X69128116Y-59979787D01*
X69158009Y-59965649D01*
X69189143Y-59954509D01*
X69221219Y-59946475D01*
X69253929Y-59941623D01*
X69286956Y-59940000D01*
X70413044Y-59940000D01*
X70446071Y-59941623D01*
X70446071Y-59941623D01*
G37*
D20*
X69850000Y-60715000D03*
G04 #@! TD*
D19*
G04 #@! TO.C,R5*
G36*
X67906071Y-59941623D02*
X67938781Y-59946475D01*
X67970857Y-59954509D01*
X68001991Y-59965649D01*
X68031884Y-59979787D01*
X68060247Y-59996787D01*
X68086807Y-60016485D01*
X68111308Y-60038692D01*
X68133515Y-60063193D01*
X68153213Y-60089753D01*
X68170213Y-60118116D01*
X68184351Y-60148009D01*
X68195491Y-60179143D01*
X68203525Y-60211219D01*
X68208377Y-60243929D01*
X68210000Y-60276956D01*
X68210000Y-61153044D01*
X68208377Y-61186071D01*
X68203525Y-61218781D01*
X68195491Y-61250857D01*
X68184351Y-61281991D01*
X68170213Y-61311884D01*
X68153213Y-61340247D01*
X68133515Y-61366807D01*
X68111308Y-61391308D01*
X68086807Y-61413515D01*
X68060247Y-61433213D01*
X68031884Y-61450213D01*
X68001991Y-61464351D01*
X67970857Y-61475491D01*
X67938781Y-61483525D01*
X67906071Y-61488377D01*
X67873044Y-61490000D01*
X66746956Y-61490000D01*
X66713929Y-61488377D01*
X66681219Y-61483525D01*
X66649143Y-61475491D01*
X66618009Y-61464351D01*
X66588116Y-61450213D01*
X66559753Y-61433213D01*
X66533193Y-61413515D01*
X66508692Y-61391308D01*
X66486485Y-61366807D01*
X66466787Y-61340247D01*
X66449787Y-61311884D01*
X66435649Y-61281991D01*
X66424509Y-61250857D01*
X66416475Y-61218781D01*
X66411623Y-61186071D01*
X66410000Y-61153044D01*
X66410000Y-60276956D01*
X66411623Y-60243929D01*
X66416475Y-60211219D01*
X66424509Y-60179143D01*
X66435649Y-60148009D01*
X66449787Y-60118116D01*
X66466787Y-60089753D01*
X66486485Y-60063193D01*
X66508692Y-60038692D01*
X66533193Y-60016485D01*
X66559753Y-59996787D01*
X66588116Y-59979787D01*
X66618009Y-59965649D01*
X66649143Y-59954509D01*
X66681219Y-59946475D01*
X66713929Y-59941623D01*
X66746956Y-59940000D01*
X67873044Y-59940000D01*
X67906071Y-59941623D01*
X67906071Y-59941623D01*
G37*
D20*
X67310000Y-60715000D03*
D19*
G36*
X67906071Y-57891623D02*
X67938781Y-57896475D01*
X67970857Y-57904509D01*
X68001991Y-57915649D01*
X68031884Y-57929787D01*
X68060247Y-57946787D01*
X68086807Y-57966485D01*
X68111308Y-57988692D01*
X68133515Y-58013193D01*
X68153213Y-58039753D01*
X68170213Y-58068116D01*
X68184351Y-58098009D01*
X68195491Y-58129143D01*
X68203525Y-58161219D01*
X68208377Y-58193929D01*
X68210000Y-58226956D01*
X68210000Y-59103044D01*
X68208377Y-59136071D01*
X68203525Y-59168781D01*
X68195491Y-59200857D01*
X68184351Y-59231991D01*
X68170213Y-59261884D01*
X68153213Y-59290247D01*
X68133515Y-59316807D01*
X68111308Y-59341308D01*
X68086807Y-59363515D01*
X68060247Y-59383213D01*
X68031884Y-59400213D01*
X68001991Y-59414351D01*
X67970857Y-59425491D01*
X67938781Y-59433525D01*
X67906071Y-59438377D01*
X67873044Y-59440000D01*
X66746956Y-59440000D01*
X66713929Y-59438377D01*
X66681219Y-59433525D01*
X66649143Y-59425491D01*
X66618009Y-59414351D01*
X66588116Y-59400213D01*
X66559753Y-59383213D01*
X66533193Y-59363515D01*
X66508692Y-59341308D01*
X66486485Y-59316807D01*
X66466787Y-59290247D01*
X66449787Y-59261884D01*
X66435649Y-59231991D01*
X66424509Y-59200857D01*
X66416475Y-59168781D01*
X66411623Y-59136071D01*
X66410000Y-59103044D01*
X66410000Y-58226956D01*
X66411623Y-58193929D01*
X66416475Y-58161219D01*
X66424509Y-58129143D01*
X66435649Y-58098009D01*
X66449787Y-58068116D01*
X66466787Y-58039753D01*
X66486485Y-58013193D01*
X66508692Y-57988692D01*
X66533193Y-57966485D01*
X66559753Y-57946787D01*
X66588116Y-57929787D01*
X66618009Y-57915649D01*
X66649143Y-57904509D01*
X66681219Y-57896475D01*
X66713929Y-57891623D01*
X66746956Y-57890000D01*
X67873044Y-57890000D01*
X67906071Y-57891623D01*
X67906071Y-57891623D01*
G37*
D20*
X67310000Y-58665000D03*
G04 #@! TD*
D19*
G04 #@! TO.C,R6*
G36*
X65366071Y-57900623D02*
X65398781Y-57905475D01*
X65430857Y-57913509D01*
X65461991Y-57924649D01*
X65491884Y-57938787D01*
X65520247Y-57955787D01*
X65546807Y-57975485D01*
X65571308Y-57997692D01*
X65593515Y-58022193D01*
X65613213Y-58048753D01*
X65630213Y-58077116D01*
X65644351Y-58107009D01*
X65655491Y-58138143D01*
X65663525Y-58170219D01*
X65668377Y-58202929D01*
X65670000Y-58235956D01*
X65670000Y-59112044D01*
X65668377Y-59145071D01*
X65663525Y-59177781D01*
X65655491Y-59209857D01*
X65644351Y-59240991D01*
X65630213Y-59270884D01*
X65613213Y-59299247D01*
X65593515Y-59325807D01*
X65571308Y-59350308D01*
X65546807Y-59372515D01*
X65520247Y-59392213D01*
X65491884Y-59409213D01*
X65461991Y-59423351D01*
X65430857Y-59434491D01*
X65398781Y-59442525D01*
X65366071Y-59447377D01*
X65333044Y-59449000D01*
X64206956Y-59449000D01*
X64173929Y-59447377D01*
X64141219Y-59442525D01*
X64109143Y-59434491D01*
X64078009Y-59423351D01*
X64048116Y-59409213D01*
X64019753Y-59392213D01*
X63993193Y-59372515D01*
X63968692Y-59350308D01*
X63946485Y-59325807D01*
X63926787Y-59299247D01*
X63909787Y-59270884D01*
X63895649Y-59240991D01*
X63884509Y-59209857D01*
X63876475Y-59177781D01*
X63871623Y-59145071D01*
X63870000Y-59112044D01*
X63870000Y-58235956D01*
X63871623Y-58202929D01*
X63876475Y-58170219D01*
X63884509Y-58138143D01*
X63895649Y-58107009D01*
X63909787Y-58077116D01*
X63926787Y-58048753D01*
X63946485Y-58022193D01*
X63968692Y-57997692D01*
X63993193Y-57975485D01*
X64019753Y-57955787D01*
X64048116Y-57938787D01*
X64078009Y-57924649D01*
X64109143Y-57913509D01*
X64141219Y-57905475D01*
X64173929Y-57900623D01*
X64206956Y-57899000D01*
X65333044Y-57899000D01*
X65366071Y-57900623D01*
X65366071Y-57900623D01*
G37*
D20*
X64770000Y-58674000D03*
D19*
G36*
X65366071Y-59950623D02*
X65398781Y-59955475D01*
X65430857Y-59963509D01*
X65461991Y-59974649D01*
X65491884Y-59988787D01*
X65520247Y-60005787D01*
X65546807Y-60025485D01*
X65571308Y-60047692D01*
X65593515Y-60072193D01*
X65613213Y-60098753D01*
X65630213Y-60127116D01*
X65644351Y-60157009D01*
X65655491Y-60188143D01*
X65663525Y-60220219D01*
X65668377Y-60252929D01*
X65670000Y-60285956D01*
X65670000Y-61162044D01*
X65668377Y-61195071D01*
X65663525Y-61227781D01*
X65655491Y-61259857D01*
X65644351Y-61290991D01*
X65630213Y-61320884D01*
X65613213Y-61349247D01*
X65593515Y-61375807D01*
X65571308Y-61400308D01*
X65546807Y-61422515D01*
X65520247Y-61442213D01*
X65491884Y-61459213D01*
X65461991Y-61473351D01*
X65430857Y-61484491D01*
X65398781Y-61492525D01*
X65366071Y-61497377D01*
X65333044Y-61499000D01*
X64206956Y-61499000D01*
X64173929Y-61497377D01*
X64141219Y-61492525D01*
X64109143Y-61484491D01*
X64078009Y-61473351D01*
X64048116Y-61459213D01*
X64019753Y-61442213D01*
X63993193Y-61422515D01*
X63968692Y-61400308D01*
X63946485Y-61375807D01*
X63926787Y-61349247D01*
X63909787Y-61320884D01*
X63895649Y-61290991D01*
X63884509Y-61259857D01*
X63876475Y-61227781D01*
X63871623Y-61195071D01*
X63870000Y-61162044D01*
X63870000Y-60285956D01*
X63871623Y-60252929D01*
X63876475Y-60220219D01*
X63884509Y-60188143D01*
X63895649Y-60157009D01*
X63909787Y-60127116D01*
X63926787Y-60098753D01*
X63946485Y-60072193D01*
X63968692Y-60047692D01*
X63993193Y-60025485D01*
X64019753Y-60005787D01*
X64048116Y-59988787D01*
X64078009Y-59974649D01*
X64109143Y-59963509D01*
X64141219Y-59955475D01*
X64173929Y-59950623D01*
X64206956Y-59949000D01*
X65333044Y-59949000D01*
X65366071Y-59950623D01*
X65366071Y-59950623D01*
G37*
D20*
X64770000Y-60724000D03*
G04 #@! TD*
D19*
G04 #@! TO.C,R7*
G36*
X85686071Y-59950623D02*
X85718781Y-59955475D01*
X85750857Y-59963509D01*
X85781991Y-59974649D01*
X85811884Y-59988787D01*
X85840247Y-60005787D01*
X85866807Y-60025485D01*
X85891308Y-60047692D01*
X85913515Y-60072193D01*
X85933213Y-60098753D01*
X85950213Y-60127116D01*
X85964351Y-60157009D01*
X85975491Y-60188143D01*
X85983525Y-60220219D01*
X85988377Y-60252929D01*
X85990000Y-60285956D01*
X85990000Y-61162044D01*
X85988377Y-61195071D01*
X85983525Y-61227781D01*
X85975491Y-61259857D01*
X85964351Y-61290991D01*
X85950213Y-61320884D01*
X85933213Y-61349247D01*
X85913515Y-61375807D01*
X85891308Y-61400308D01*
X85866807Y-61422515D01*
X85840247Y-61442213D01*
X85811884Y-61459213D01*
X85781991Y-61473351D01*
X85750857Y-61484491D01*
X85718781Y-61492525D01*
X85686071Y-61497377D01*
X85653044Y-61499000D01*
X84526956Y-61499000D01*
X84493929Y-61497377D01*
X84461219Y-61492525D01*
X84429143Y-61484491D01*
X84398009Y-61473351D01*
X84368116Y-61459213D01*
X84339753Y-61442213D01*
X84313193Y-61422515D01*
X84288692Y-61400308D01*
X84266485Y-61375807D01*
X84246787Y-61349247D01*
X84229787Y-61320884D01*
X84215649Y-61290991D01*
X84204509Y-61259857D01*
X84196475Y-61227781D01*
X84191623Y-61195071D01*
X84190000Y-61162044D01*
X84190000Y-60285956D01*
X84191623Y-60252929D01*
X84196475Y-60220219D01*
X84204509Y-60188143D01*
X84215649Y-60157009D01*
X84229787Y-60127116D01*
X84246787Y-60098753D01*
X84266485Y-60072193D01*
X84288692Y-60047692D01*
X84313193Y-60025485D01*
X84339753Y-60005787D01*
X84368116Y-59988787D01*
X84398009Y-59974649D01*
X84429143Y-59963509D01*
X84461219Y-59955475D01*
X84493929Y-59950623D01*
X84526956Y-59949000D01*
X85653044Y-59949000D01*
X85686071Y-59950623D01*
X85686071Y-59950623D01*
G37*
D20*
X85090000Y-60724000D03*
D19*
G36*
X85686071Y-57900623D02*
X85718781Y-57905475D01*
X85750857Y-57913509D01*
X85781991Y-57924649D01*
X85811884Y-57938787D01*
X85840247Y-57955787D01*
X85866807Y-57975485D01*
X85891308Y-57997692D01*
X85913515Y-58022193D01*
X85933213Y-58048753D01*
X85950213Y-58077116D01*
X85964351Y-58107009D01*
X85975491Y-58138143D01*
X85983525Y-58170219D01*
X85988377Y-58202929D01*
X85990000Y-58235956D01*
X85990000Y-59112044D01*
X85988377Y-59145071D01*
X85983525Y-59177781D01*
X85975491Y-59209857D01*
X85964351Y-59240991D01*
X85950213Y-59270884D01*
X85933213Y-59299247D01*
X85913515Y-59325807D01*
X85891308Y-59350308D01*
X85866807Y-59372515D01*
X85840247Y-59392213D01*
X85811884Y-59409213D01*
X85781991Y-59423351D01*
X85750857Y-59434491D01*
X85718781Y-59442525D01*
X85686071Y-59447377D01*
X85653044Y-59449000D01*
X84526956Y-59449000D01*
X84493929Y-59447377D01*
X84461219Y-59442525D01*
X84429143Y-59434491D01*
X84398009Y-59423351D01*
X84368116Y-59409213D01*
X84339753Y-59392213D01*
X84313193Y-59372515D01*
X84288692Y-59350308D01*
X84266485Y-59325807D01*
X84246787Y-59299247D01*
X84229787Y-59270884D01*
X84215649Y-59240991D01*
X84204509Y-59209857D01*
X84196475Y-59177781D01*
X84191623Y-59145071D01*
X84190000Y-59112044D01*
X84190000Y-58235956D01*
X84191623Y-58202929D01*
X84196475Y-58170219D01*
X84204509Y-58138143D01*
X84215649Y-58107009D01*
X84229787Y-58077116D01*
X84246787Y-58048753D01*
X84266485Y-58022193D01*
X84288692Y-57997692D01*
X84313193Y-57975485D01*
X84339753Y-57955787D01*
X84368116Y-57938787D01*
X84398009Y-57924649D01*
X84429143Y-57913509D01*
X84461219Y-57905475D01*
X84493929Y-57900623D01*
X84526956Y-57899000D01*
X85653044Y-57899000D01*
X85686071Y-57900623D01*
X85686071Y-57900623D01*
G37*
D20*
X85090000Y-58674000D03*
G04 #@! TD*
D19*
G04 #@! TO.C,R8*
G36*
X87972071Y-59932623D02*
X88004781Y-59937475D01*
X88036857Y-59945509D01*
X88067991Y-59956649D01*
X88097884Y-59970787D01*
X88126247Y-59987787D01*
X88152807Y-60007485D01*
X88177308Y-60029692D01*
X88199515Y-60054193D01*
X88219213Y-60080753D01*
X88236213Y-60109116D01*
X88250351Y-60139009D01*
X88261491Y-60170143D01*
X88269525Y-60202219D01*
X88274377Y-60234929D01*
X88276000Y-60267956D01*
X88276000Y-61144044D01*
X88274377Y-61177071D01*
X88269525Y-61209781D01*
X88261491Y-61241857D01*
X88250351Y-61272991D01*
X88236213Y-61302884D01*
X88219213Y-61331247D01*
X88199515Y-61357807D01*
X88177308Y-61382308D01*
X88152807Y-61404515D01*
X88126247Y-61424213D01*
X88097884Y-61441213D01*
X88067991Y-61455351D01*
X88036857Y-61466491D01*
X88004781Y-61474525D01*
X87972071Y-61479377D01*
X87939044Y-61481000D01*
X86812956Y-61481000D01*
X86779929Y-61479377D01*
X86747219Y-61474525D01*
X86715143Y-61466491D01*
X86684009Y-61455351D01*
X86654116Y-61441213D01*
X86625753Y-61424213D01*
X86599193Y-61404515D01*
X86574692Y-61382308D01*
X86552485Y-61357807D01*
X86532787Y-61331247D01*
X86515787Y-61302884D01*
X86501649Y-61272991D01*
X86490509Y-61241857D01*
X86482475Y-61209781D01*
X86477623Y-61177071D01*
X86476000Y-61144044D01*
X86476000Y-60267956D01*
X86477623Y-60234929D01*
X86482475Y-60202219D01*
X86490509Y-60170143D01*
X86501649Y-60139009D01*
X86515787Y-60109116D01*
X86532787Y-60080753D01*
X86552485Y-60054193D01*
X86574692Y-60029692D01*
X86599193Y-60007485D01*
X86625753Y-59987787D01*
X86654116Y-59970787D01*
X86684009Y-59956649D01*
X86715143Y-59945509D01*
X86747219Y-59937475D01*
X86779929Y-59932623D01*
X86812956Y-59931000D01*
X87939044Y-59931000D01*
X87972071Y-59932623D01*
X87972071Y-59932623D01*
G37*
D20*
X87376000Y-60706000D03*
D19*
G36*
X87972071Y-57882623D02*
X88004781Y-57887475D01*
X88036857Y-57895509D01*
X88067991Y-57906649D01*
X88097884Y-57920787D01*
X88126247Y-57937787D01*
X88152807Y-57957485D01*
X88177308Y-57979692D01*
X88199515Y-58004193D01*
X88219213Y-58030753D01*
X88236213Y-58059116D01*
X88250351Y-58089009D01*
X88261491Y-58120143D01*
X88269525Y-58152219D01*
X88274377Y-58184929D01*
X88276000Y-58217956D01*
X88276000Y-59094044D01*
X88274377Y-59127071D01*
X88269525Y-59159781D01*
X88261491Y-59191857D01*
X88250351Y-59222991D01*
X88236213Y-59252884D01*
X88219213Y-59281247D01*
X88199515Y-59307807D01*
X88177308Y-59332308D01*
X88152807Y-59354515D01*
X88126247Y-59374213D01*
X88097884Y-59391213D01*
X88067991Y-59405351D01*
X88036857Y-59416491D01*
X88004781Y-59424525D01*
X87972071Y-59429377D01*
X87939044Y-59431000D01*
X86812956Y-59431000D01*
X86779929Y-59429377D01*
X86747219Y-59424525D01*
X86715143Y-59416491D01*
X86684009Y-59405351D01*
X86654116Y-59391213D01*
X86625753Y-59374213D01*
X86599193Y-59354515D01*
X86574692Y-59332308D01*
X86552485Y-59307807D01*
X86532787Y-59281247D01*
X86515787Y-59252884D01*
X86501649Y-59222991D01*
X86490509Y-59191857D01*
X86482475Y-59159781D01*
X86477623Y-59127071D01*
X86476000Y-59094044D01*
X86476000Y-58217956D01*
X86477623Y-58184929D01*
X86482475Y-58152219D01*
X86490509Y-58120143D01*
X86501649Y-58089009D01*
X86515787Y-58059116D01*
X86532787Y-58030753D01*
X86552485Y-58004193D01*
X86574692Y-57979692D01*
X86599193Y-57957485D01*
X86625753Y-57937787D01*
X86654116Y-57920787D01*
X86684009Y-57906649D01*
X86715143Y-57895509D01*
X86747219Y-57887475D01*
X86779929Y-57882623D01*
X86812956Y-57881000D01*
X87939044Y-57881000D01*
X87972071Y-57882623D01*
X87972071Y-57882623D01*
G37*
D20*
X87376000Y-58656000D03*
G04 #@! TD*
D10*
G04 #@! TO.C,U1*
X38100000Y-45720000D03*
D11*
X40640000Y-45720000D03*
X43180000Y-45720000D03*
X45720000Y-45720000D03*
X48260000Y-45720000D03*
X48260000Y-30480000D03*
X45720000Y-30480000D03*
X43180000Y-30480000D03*
X40640000Y-30480000D03*
X38100000Y-30480000D03*
G04 #@! TD*
G04 #@! TO.C,U4*
X80010000Y-30480000D03*
X82550000Y-30480000D03*
X85090000Y-30480000D03*
X87630000Y-30480000D03*
X90170000Y-30480000D03*
X90170000Y-45720000D03*
X87630000Y-45720000D03*
X85090000Y-45720000D03*
X82550000Y-45720000D03*
D10*
X80010000Y-45720000D03*
G04 #@! TD*
D19*
G04 #@! TO.C,R9*
G36*
X50126071Y-63996623D02*
X50158781Y-64001475D01*
X50190857Y-64009509D01*
X50221991Y-64020649D01*
X50251884Y-64034787D01*
X50280247Y-64051787D01*
X50306807Y-64071485D01*
X50331308Y-64093692D01*
X50353515Y-64118193D01*
X50373213Y-64144753D01*
X50390213Y-64173116D01*
X50404351Y-64203009D01*
X50415491Y-64234143D01*
X50423525Y-64266219D01*
X50428377Y-64298929D01*
X50430000Y-64331956D01*
X50430000Y-65208044D01*
X50428377Y-65241071D01*
X50423525Y-65273781D01*
X50415491Y-65305857D01*
X50404351Y-65336991D01*
X50390213Y-65366884D01*
X50373213Y-65395247D01*
X50353515Y-65421807D01*
X50331308Y-65446308D01*
X50306807Y-65468515D01*
X50280247Y-65488213D01*
X50251884Y-65505213D01*
X50221991Y-65519351D01*
X50190857Y-65530491D01*
X50158781Y-65538525D01*
X50126071Y-65543377D01*
X50093044Y-65545000D01*
X48966956Y-65545000D01*
X48933929Y-65543377D01*
X48901219Y-65538525D01*
X48869143Y-65530491D01*
X48838009Y-65519351D01*
X48808116Y-65505213D01*
X48779753Y-65488213D01*
X48753193Y-65468515D01*
X48728692Y-65446308D01*
X48706485Y-65421807D01*
X48686787Y-65395247D01*
X48669787Y-65366884D01*
X48655649Y-65336991D01*
X48644509Y-65305857D01*
X48636475Y-65273781D01*
X48631623Y-65241071D01*
X48630000Y-65208044D01*
X48630000Y-64331956D01*
X48631623Y-64298929D01*
X48636475Y-64266219D01*
X48644509Y-64234143D01*
X48655649Y-64203009D01*
X48669787Y-64173116D01*
X48686787Y-64144753D01*
X48706485Y-64118193D01*
X48728692Y-64093692D01*
X48753193Y-64071485D01*
X48779753Y-64051787D01*
X48808116Y-64034787D01*
X48838009Y-64020649D01*
X48869143Y-64009509D01*
X48901219Y-64001475D01*
X48933929Y-63996623D01*
X48966956Y-63995000D01*
X50093044Y-63995000D01*
X50126071Y-63996623D01*
X50126071Y-63996623D01*
G37*
D20*
X49530000Y-64770000D03*
D19*
G36*
X50126071Y-61946623D02*
X50158781Y-61951475D01*
X50190857Y-61959509D01*
X50221991Y-61970649D01*
X50251884Y-61984787D01*
X50280247Y-62001787D01*
X50306807Y-62021485D01*
X50331308Y-62043692D01*
X50353515Y-62068193D01*
X50373213Y-62094753D01*
X50390213Y-62123116D01*
X50404351Y-62153009D01*
X50415491Y-62184143D01*
X50423525Y-62216219D01*
X50428377Y-62248929D01*
X50430000Y-62281956D01*
X50430000Y-63158044D01*
X50428377Y-63191071D01*
X50423525Y-63223781D01*
X50415491Y-63255857D01*
X50404351Y-63286991D01*
X50390213Y-63316884D01*
X50373213Y-63345247D01*
X50353515Y-63371807D01*
X50331308Y-63396308D01*
X50306807Y-63418515D01*
X50280247Y-63438213D01*
X50251884Y-63455213D01*
X50221991Y-63469351D01*
X50190857Y-63480491D01*
X50158781Y-63488525D01*
X50126071Y-63493377D01*
X50093044Y-63495000D01*
X48966956Y-63495000D01*
X48933929Y-63493377D01*
X48901219Y-63488525D01*
X48869143Y-63480491D01*
X48838009Y-63469351D01*
X48808116Y-63455213D01*
X48779753Y-63438213D01*
X48753193Y-63418515D01*
X48728692Y-63396308D01*
X48706485Y-63371807D01*
X48686787Y-63345247D01*
X48669787Y-63316884D01*
X48655649Y-63286991D01*
X48644509Y-63255857D01*
X48636475Y-63223781D01*
X48631623Y-63191071D01*
X48630000Y-63158044D01*
X48630000Y-62281956D01*
X48631623Y-62248929D01*
X48636475Y-62216219D01*
X48644509Y-62184143D01*
X48655649Y-62153009D01*
X48669787Y-62123116D01*
X48686787Y-62094753D01*
X48706485Y-62068193D01*
X48728692Y-62043692D01*
X48753193Y-62021485D01*
X48779753Y-62001787D01*
X48808116Y-61984787D01*
X48838009Y-61970649D01*
X48869143Y-61959509D01*
X48901219Y-61951475D01*
X48933929Y-61946623D01*
X48966956Y-61945000D01*
X50093044Y-61945000D01*
X50126071Y-61946623D01*
X50126071Y-61946623D01*
G37*
D20*
X49530000Y-62720000D03*
G04 #@! TD*
D21*
G04 #@! TO.C,J1*
X29210000Y-50800000D03*
D22*
X29210000Y-53340000D03*
G04 #@! TD*
M02*
