G04 #@! TF.GenerationSoftware,KiCad,Pcbnew,(5.0.0)*
G04 #@! TF.CreationDate,2020-01-05T19:48:47-05:00*
G04 #@! TF.ProjectId,Lathe RPM Display,4C617468652052504D20446973706C61,A*
G04 #@! TF.SameCoordinates,Original*
G04 #@! TF.FileFunction,Soldermask,Top*
G04 #@! TF.FilePolarity,Negative*
%FSLAX46Y46*%
G04 Gerber Fmt 4.6, Leading zero omitted, Abs format (unit mm)*
G04 Created by KiCad (PCBNEW (5.0.0)) date 01/05/20 19:48:47*
%MOMM*%
%LPD*%
G01*
G04 APERTURE LIST*
%ADD10R,1.924000X2.924000*%
%ADD11O,1.924000X2.924000*%
%ADD12C,6.800000*%
%ADD13R,1.450000X1.900000*%
%ADD14O,1.450000X1.900000*%
%ADD15R,2.000000X2.000000*%
%ADD16O,2.000000X2.000000*%
%ADD17O,1.900000X1.400000*%
%ADD18R,1.900000X1.400000*%
%ADD19R,2.100000X2.100000*%
%ADD20O,2.100000X2.100000*%
G04 APERTURE END LIST*
D10*
G04 #@! TO.C,U3*
X66040000Y-45720000D03*
D11*
X68580000Y-45720000D03*
X71120000Y-45720000D03*
X73660000Y-45720000D03*
X76200000Y-45720000D03*
X76200000Y-30480000D03*
X73660000Y-30480000D03*
X71120000Y-30480000D03*
X68580000Y-30480000D03*
X66040000Y-30480000D03*
G04 #@! TD*
G04 #@! TO.C,U2*
X52070000Y-30480000D03*
X54610000Y-30480000D03*
X57150000Y-30480000D03*
X59690000Y-30480000D03*
X62230000Y-30480000D03*
X62230000Y-45720000D03*
X59690000Y-45720000D03*
X57150000Y-45720000D03*
X54610000Y-45720000D03*
D10*
X52070000Y-45720000D03*
G04 #@! TD*
D12*
G04 #@! TO.C,REF\002A\002A*
X96520000Y-30480000D03*
G04 #@! TD*
G04 #@! TO.C,REF\002A\002A*
X96520000Y-71120000D03*
G04 #@! TD*
G04 #@! TO.C,REF\002A\002A*
X30480000Y-71120000D03*
G04 #@! TD*
G04 #@! TO.C,REF\002A\002A*
X30480000Y-30480000D03*
G04 #@! TD*
D13*
G04 #@! TO.C,Q2*
X40640000Y-51308000D03*
D14*
X43180000Y-51308000D03*
X41910000Y-51308000D03*
G04 #@! TD*
D15*
G04 #@! TO.C,A1*
X49530000Y-71120000D03*
D16*
X82550000Y-55880000D03*
X52070000Y-71120000D03*
X80010000Y-55880000D03*
X54610000Y-71120000D03*
X77470000Y-55880000D03*
X57150000Y-71120000D03*
X74930000Y-55880000D03*
X59690000Y-71120000D03*
X72390000Y-55880000D03*
X62230000Y-71120000D03*
X69850000Y-55880000D03*
X64770000Y-71120000D03*
X67310000Y-55880000D03*
X67310000Y-71120000D03*
X64770000Y-55880000D03*
X69850000Y-71120000D03*
X62230000Y-55880000D03*
X72390000Y-71120000D03*
X59690000Y-55880000D03*
X74930000Y-71120000D03*
X57150000Y-55880000D03*
X77470000Y-71120000D03*
X54610000Y-55880000D03*
X80010000Y-71120000D03*
X52070000Y-55880000D03*
X82550000Y-71120000D03*
X49530000Y-55880000D03*
X85090000Y-71120000D03*
X85090000Y-55880000D03*
G04 #@! TD*
D17*
G04 #@! TO.C,Q1*
X29210000Y-60325000D03*
X29210000Y-61595000D03*
D18*
X29210000Y-59055000D03*
G04 #@! TD*
D14*
G04 #@! TO.C,Q3*
X55880000Y-51308000D03*
X57150000Y-51308000D03*
D13*
X54610000Y-51308000D03*
G04 #@! TD*
G04 #@! TO.C,Q4*
X68580000Y-51308000D03*
D14*
X71120000Y-51308000D03*
X69850000Y-51308000D03*
G04 #@! TD*
G04 #@! TO.C,Q5*
X83820000Y-51308000D03*
X85090000Y-51308000D03*
D13*
X82550000Y-51308000D03*
G04 #@! TD*
D10*
G04 #@! TO.C,U1*
X38100000Y-45720000D03*
D11*
X40640000Y-45720000D03*
X43180000Y-45720000D03*
X45720000Y-45720000D03*
X48260000Y-45720000D03*
X48260000Y-30480000D03*
X45720000Y-30480000D03*
X43180000Y-30480000D03*
X40640000Y-30480000D03*
X38100000Y-30480000D03*
G04 #@! TD*
G04 #@! TO.C,U4*
X80010000Y-30480000D03*
X82550000Y-30480000D03*
X85090000Y-30480000D03*
X87630000Y-30480000D03*
X90170000Y-30480000D03*
X90170000Y-45720000D03*
X87630000Y-45720000D03*
X85090000Y-45720000D03*
X82550000Y-45720000D03*
D10*
X80010000Y-45720000D03*
G04 #@! TD*
D19*
G04 #@! TO.C,J1*
X29210000Y-50800000D03*
D20*
X29210000Y-53340000D03*
G04 #@! TD*
M02*
